<svg xmlns="http://www.w3.org/2000/svg" xmlns:xlink="http://www.w3.org/1999/xlink" width="793" zoomAndPan="magnify" viewBox="0 0 594.95996 842.24997" height="1122" preserveAspectRatio="xMidYMid meet" version="1.0"><defs><clipPath id="1e918acc42"><path d="M 106.214844 111.433594 L 259 111.433594 L 259 264 L 106.214844 264 Z M 106.214844 111.433594 " clip-rule="nonzero"/></clipPath><clipPath id="c170564457"><path d="M 275 111.433594 L 428.429688 111.433594 L 428.429688 264 L 275 264 Z M 275 111.433594 " clip-rule="nonzero"/></clipPath><clipPath id="de9e731d05"><path d="M 106.214844 278 L 259 278 L 259 431.398438 L 106.214844 431.398438 Z M 106.214844 278 " clip-rule="nonzero"/></clipPath><clipPath id="c04b2f7e0c"><path d="M 275 278 L 428.429688 278 L 428.429688 431.398438 L 275 431.398438 Z M 275 278 " clip-rule="nonzero"/></clipPath><clipPath id="667b82f710"><path d="M 117.019531 116.800781 L 265 116.800781 L 265 265 L 117.019531 265 Z M 117.019531 116.800781 " clip-rule="nonzero"/></clipPath><clipPath id="6bbd9b6adf"><path d="M 117.019531 137.78125 L 117.019531 404.957031 C 117.019531 416.542969 126.410156 425.9375 138 425.9375 L 407.117188 425.9375 C 418.707031 425.9375 428.097656 416.542969 428.097656 404.957031 L 428.097656 137.78125 C 428.097656 126.195312 418.707031 116.800781 407.117188 116.800781 L 138 116.800781 C 126.410156 116.800781 117.019531 126.195312 117.019531 137.78125 Z M 117.019531 137.78125 " clip-rule="nonzero"/></clipPath><clipPath id="20c20e7b47"><path d="M 140 185 L 242 185 L 242 241 L 140 241 Z M 140 185 " clip-rule="nonzero"/></clipPath><clipPath id="7728191c60"><path d="M 117.019531 137.78125 L 117.019531 404.957031 C 117.019531 416.542969 126.410156 425.9375 138 425.9375 L 407.117188 425.9375 C 418.707031 425.9375 428.097656 416.542969 428.097656 404.957031 L 428.097656 137.78125 C 428.097656 126.195312 418.707031 116.800781 407.117188 116.800781 L 138 116.800781 C 126.410156 116.800781 117.019531 126.195312 117.019531 137.78125 Z M 117.019531 137.78125 " clip-rule="nonzero"/></clipPath><clipPath id="cec841b570"><path d="M 152 146 L 185 146 L 185 180 L 152 180 Z M 152 146 " clip-rule="nonzero"/></clipPath><clipPath id="dd92a275ae"><path d="M 117.019531 137.78125 L 117.019531 404.957031 C 117.019531 416.542969 126.410156 425.9375 138 425.9375 L 407.117188 425.9375 C 418.707031 425.9375 428.097656 416.542969 428.097656 404.957031 L 428.097656 137.78125 C 428.097656 126.195312 418.707031 116.800781 407.117188 116.800781 L 138 116.800781 C 126.410156 116.800781 117.019531 126.195312 117.019531 137.78125 Z M 117.019531 137.78125 " clip-rule="nonzero"/></clipPath><clipPath id="b2c36432d0"><path d="M 195 146 L 229 146 L 229 180 L 195 180 Z M 195 146 " clip-rule="nonzero"/></clipPath><clipPath id="d7c55d3ff7"><path d="M 117.019531 137.78125 L 117.019531 404.957031 C 117.019531 416.542969 126.410156 425.9375 138 425.9375 L 407.117188 425.9375 C 418.707031 425.9375 428.097656 416.542969 428.097656 404.957031 L 428.097656 137.78125 C 428.097656 126.195312 418.707031 116.800781 407.117188 116.800781 L 138 116.800781 C 126.410156 116.800781 117.019531 126.195312 117.019531 137.78125 Z M 117.019531 137.78125 " clip-rule="nonzero"/></clipPath><clipPath id="150b15ec34"><path d="M 280 116.800781 L 427.992188 116.800781 L 427.992188 265 L 280 265 Z M 280 116.800781 " clip-rule="nonzero"/></clipPath><clipPath id="34843fcb36"><path d="M 117.019531 137.78125 L 117.019531 404.957031 C 117.019531 416.542969 126.410156 425.9375 138 425.9375 L 407.117188 425.9375 C 418.707031 425.9375 428.097656 416.542969 428.097656 404.957031 L 428.097656 137.78125 C 428.097656 126.195312 418.707031 116.800781 407.117188 116.800781 L 138 116.800781 C 126.410156 116.800781 117.019531 126.195312 117.019531 137.78125 Z M 117.019531 137.78125 " clip-rule="nonzero"/></clipPath><clipPath id="e708c12688"><path d="M 315 146 L 349 146 L 349 180 L 315 180 Z M 315 146 " clip-rule="nonzero"/></clipPath><clipPath id="a19f7fc25e"><path d="M 117.019531 137.78125 L 117.019531 404.957031 C 117.019531 416.542969 126.410156 425.9375 138 425.9375 L 407.117188 425.9375 C 418.707031 425.9375 428.097656 416.542969 428.097656 404.957031 L 428.097656 137.78125 C 428.097656 126.195312 418.707031 116.800781 407.117188 116.800781 L 138 116.800781 C 126.410156 116.800781 117.019531 126.195312 117.019531 137.78125 Z M 117.019531 137.78125 " clip-rule="nonzero"/></clipPath><clipPath id="9820ebaa49"><path d="M 359 146 L 392 146 L 392 180 L 359 180 Z M 359 146 " clip-rule="nonzero"/></clipPath><clipPath id="b5dd232de8"><path d="M 117.019531 137.78125 L 117.019531 404.957031 C 117.019531 416.542969 126.410156 425.9375 138 425.9375 L 407.117188 425.9375 C 418.707031 425.9375 428.097656 416.542969 428.097656 404.957031 L 428.097656 137.78125 C 428.097656 126.195312 418.707031 116.800781 407.117188 116.800781 L 138 116.800781 C 126.410156 116.800781 117.019531 126.195312 117.019531 137.78125 Z M 117.019531 137.78125 " clip-rule="nonzero"/></clipPath><clipPath id="c98ab2e364"><path d="M 316 199 L 393 199 L 393 209 L 316 209 Z M 316 199 " clip-rule="nonzero"/></clipPath><clipPath id="e43daaa7e5"><path d="M 117.019531 137.78125 L 117.019531 404.957031 C 117.019531 416.542969 126.410156 425.9375 138 425.9375 L 407.117188 425.9375 C 418.707031 425.9375 428.097656 416.542969 428.097656 404.957031 L 428.097656 137.78125 C 428.097656 126.195312 418.707031 116.800781 407.117188 116.800781 L 138 116.800781 C 126.410156 116.800781 117.019531 126.195312 117.019531 137.78125 Z M 117.019531 137.78125 " clip-rule="nonzero"/></clipPath><clipPath id="07801db962"><path d="M 117.019531 278 L 265 278 L 265 426 L 117.019531 426 Z M 117.019531 278 " clip-rule="nonzero"/></clipPath><clipPath id="25ff15a291"><path d="M 117.019531 137.78125 L 117.019531 404.957031 C 117.019531 416.542969 126.410156 425.9375 138 425.9375 L 407.117188 425.9375 C 418.707031 425.9375 428.097656 416.542969 428.097656 404.957031 L 428.097656 137.78125 C 428.097656 126.195312 418.707031 116.800781 407.117188 116.800781 L 138 116.800781 C 126.410156 116.800781 117.019531 126.195312 117.019531 137.78125 Z M 117.019531 137.78125 " clip-rule="nonzero"/></clipPath><clipPath id="6bac7f0a5a"><path d="M 146 347 L 235 347 L 235 392 L 146 392 Z M 146 347 " clip-rule="nonzero"/></clipPath><clipPath id="875a869280"><path d="M 117.019531 137.78125 L 117.019531 404.957031 C 117.019531 416.542969 126.410156 425.9375 138 425.9375 L 407.117188 425.9375 C 418.707031 425.9375 428.097656 416.542969 428.097656 404.957031 L 428.097656 137.78125 C 428.097656 126.195312 418.707031 116.800781 407.117188 116.800781 L 138 116.800781 C 126.410156 116.800781 117.019531 126.195312 117.019531 137.78125 Z M 117.019531 137.78125 " clip-rule="nonzero"/></clipPath><clipPath id="7d02dbf41a"><path d="M 152 308 L 185 308 L 185 342 L 152 342 Z M 152 308 " clip-rule="nonzero"/></clipPath><clipPath id="ae94ce9b02"><path d="M 117.019531 137.78125 L 117.019531 404.957031 C 117.019531 416.542969 126.410156 425.9375 138 425.9375 L 407.117188 425.9375 C 418.707031 425.9375 428.097656 416.542969 428.097656 404.957031 L 428.097656 137.78125 C 428.097656 126.195312 418.707031 116.800781 407.117188 116.800781 L 138 116.800781 C 126.410156 116.800781 117.019531 126.195312 117.019531 137.78125 Z M 117.019531 137.78125 " clip-rule="nonzero"/></clipPath><clipPath id="c4c15e7ebe"><path d="M 195 308 L 229 308 L 229 342 L 195 342 Z M 195 308 " clip-rule="nonzero"/></clipPath><clipPath id="28707fb870"><path d="M 117.019531 137.78125 L 117.019531 404.957031 C 117.019531 416.542969 126.410156 425.9375 138 425.9375 L 407.117188 425.9375 C 418.707031 425.9375 428.097656 416.542969 428.097656 404.957031 L 428.097656 137.78125 C 428.097656 126.195312 418.707031 116.800781 407.117188 116.800781 L 138 116.800781 C 126.410156 116.800781 117.019531 126.195312 117.019531 137.78125 Z M 117.019531 137.78125 " clip-rule="nonzero"/></clipPath><clipPath id="7db78836be"><path d="M 280 278 L 427.992188 278 L 427.992188 426 L 280 426 Z M 280 278 " clip-rule="nonzero"/></clipPath><clipPath id="9f6edb91d3"><path d="M 117.019531 137.78125 L 117.019531 404.957031 C 117.019531 416.542969 126.410156 425.9375 138 425.9375 L 407.117188 425.9375 C 418.707031 425.9375 428.097656 416.542969 428.097656 404.957031 L 428.097656 137.78125 C 428.097656 126.195312 418.707031 116.800781 407.117188 116.800781 L 138 116.800781 C 126.410156 116.800781 117.019531 126.195312 117.019531 137.78125 Z M 117.019531 137.78125 " clip-rule="nonzero"/></clipPath><clipPath id="00a0178b96"><path d="M 311 312 L 354 312 L 354 355 L 311 355 Z M 311 312 " clip-rule="nonzero"/></clipPath><clipPath id="99fb66c9fe"><path d="M 117.019531 137.78125 L 117.019531 404.957031 C 117.019531 416.542969 126.410156 425.9375 138 425.9375 L 407.117188 425.9375 C 418.707031 425.9375 428.097656 416.542969 428.097656 404.957031 L 428.097656 137.78125 C 428.097656 126.195312 418.707031 116.800781 407.117188 116.800781 L 138 116.800781 C 126.410156 116.800781 117.019531 126.195312 117.019531 137.78125 Z M 117.019531 137.78125 " clip-rule="nonzero"/></clipPath><clipPath id="699f08bfa4"><path d="M 316 370 L 393 370 L 393 380 L 316 380 Z M 316 370 " clip-rule="nonzero"/></clipPath><clipPath id="c664b5bae3"><path d="M 117.019531 137.78125 L 117.019531 404.957031 C 117.019531 416.542969 126.410156 425.9375 138 425.9375 L 407.117188 425.9375 C 418.707031 425.9375 428.097656 416.542969 428.097656 404.957031 L 428.097656 137.78125 C 428.097656 126.195312 418.707031 116.800781 407.117188 116.800781 L 138 116.800781 C 126.410156 116.800781 117.019531 126.195312 117.019531 137.78125 Z M 117.019531 137.78125 " clip-rule="nonzero"/></clipPath><clipPath id="7949a711f0"><path d="M 355 312 L 398 312 L 398 355 L 355 355 Z M 355 312 " clip-rule="nonzero"/></clipPath><clipPath id="65efc96894"><path d="M 117.019531 137.78125 L 117.019531 404.957031 C 117.019531 416.542969 126.410156 425.9375 138 425.9375 L 407.117188 425.9375 C 418.707031 425.9375 428.097656 416.542969 428.097656 404.957031 L 428.097656 137.78125 C 428.097656 126.195312 418.707031 116.800781 407.117188 116.800781 L 138 116.800781 C 126.410156 116.800781 117.019531 126.195312 117.019531 137.78125 Z M 117.019531 137.78125 " clip-rule="nonzero"/></clipPath></defs><g clip-path="url(#1e918acc42)"><path fill="#10d3f9" d="M 182.503906 111.421875 C 140.480469 111.421875 106.292969 145.609375 106.292969 187.632812 C 106.292969 229.65625 140.480469 263.847656 182.503906 263.847656 C 224.53125 263.847656 258.71875 229.660156 258.71875 187.632812 C 258.71875 145.609375 224.53125 111.421875 182.503906 111.421875 Z M 182.503906 254.601562 C 145.578125 254.601562 115.535156 224.5625 115.535156 187.632812 C 115.535156 150.707031 145.578125 120.667969 182.503906 120.667969 C 219.433594 120.667969 249.472656 150.707031 249.472656 187.632812 C 249.472656 224.5625 219.433594 254.601562 182.503906 254.601562 Z M 182.503906 254.601562 " fill-opacity="1" fill-rule="nonzero"/></g><path fill="#10d3f9" d="M 225.414062 187.632812 C 225.414062 211.296875 206.164062 230.546875 182.503906 230.546875 C 158.84375 230.546875 139.59375 211.296875 139.59375 187.632812 C 139.59375 185.082031 137.527344 183.011719 134.972656 183.011719 C 132.417969 183.011719 130.351562 185.082031 130.351562 187.632812 C 130.351562 216.394531 153.746094 239.789062 182.503906 239.789062 C 211.261719 239.789062 234.660156 216.394531 234.660156 187.632812 C 234.660156 185.082031 232.589844 183.011719 230.039062 183.011719 C 227.484375 183.011719 225.414062 185.082031 225.414062 187.632812 Z M 225.414062 187.632812 " fill-opacity="1" fill-rule="nonzero"/><path fill="#10d3f9" d="M 159.441406 176.082031 C 168.738281 176.082031 176.300781 168.519531 176.300781 159.222656 C 176.300781 149.925781 168.738281 142.363281 159.441406 142.363281 C 150.144531 142.363281 142.582031 149.925781 142.582031 159.222656 C 142.582031 168.519531 150.144531 176.082031 159.441406 176.082031 Z M 159.441406 151.605469 C 163.640625 151.605469 167.054688 155.023438 167.054688 159.222656 C 167.054688 163.421875 163.640625 166.835938 159.441406 166.835938 C 155.242188 166.835938 151.828125 163.421875 151.828125 159.222656 C 151.828125 155.023438 155.242188 151.605469 159.441406 151.605469 Z M 159.441406 151.605469 " fill-opacity="1" fill-rule="nonzero"/><path fill="#10d3f9" d="M 204.226562 176.082031 C 213.523438 176.082031 221.085938 168.519531 221.085938 159.222656 C 221.085938 149.925781 213.523438 142.363281 204.226562 142.363281 C 194.929688 142.363281 187.367188 149.925781 187.367188 159.222656 C 187.367188 168.519531 194.929688 176.082031 204.226562 176.082031 Z M 204.226562 151.605469 C 208.425781 151.605469 211.839844 155.023438 211.839844 159.222656 C 211.839844 163.421875 208.425781 166.835938 204.226562 166.835938 C 200.027344 166.835938 196.609375 163.421875 196.609375 159.222656 C 196.609375 155.023438 200.027344 151.605469 204.226562 151.605469 Z M 204.226562 151.605469 " fill-opacity="1" fill-rule="nonzero"/><g clip-path="url(#c170564457)"><path fill="#10d3f9" d="M 351.988281 263.847656 C 394.007812 263.847656 428.199219 229.660156 428.199219 187.632812 C 428.199219 145.613281 394.011719 111.421875 351.988281 111.421875 C 309.960938 111.421875 275.773438 145.609375 275.773438 187.632812 C 275.773438 229.65625 309.960938 263.847656 351.988281 263.847656 Z M 351.988281 120.667969 C 388.914062 120.667969 418.957031 150.707031 418.957031 187.632812 C 418.957031 224.5625 388.914062 254.601562 351.988281 254.601562 C 315.058594 254.601562 285.019531 224.5625 285.019531 187.632812 C 285.019531 150.707031 315.058594 120.667969 351.988281 120.667969 Z M 351.988281 120.667969 " fill-opacity="1" fill-rule="nonzero"/></g><path fill="#10d3f9" d="M 328.921875 176.082031 C 338.21875 176.082031 345.78125 168.519531 345.78125 159.222656 C 345.78125 149.925781 338.21875 142.363281 328.921875 142.363281 C 319.628906 142.363281 312.0625 149.925781 312.0625 159.222656 C 312.0625 168.519531 319.628906 176.082031 328.921875 176.082031 Z M 328.921875 151.605469 C 333.121094 151.605469 336.539062 155.023438 336.539062 159.222656 C 336.539062 163.421875 333.121094 166.835938 328.921875 166.835938 C 324.722656 166.835938 321.308594 163.421875 321.308594 159.222656 C 321.308594 155.023438 324.722656 151.605469 328.921875 151.605469 Z M 328.921875 151.605469 " fill-opacity="1" fill-rule="nonzero"/><path fill="#10d3f9" d="M 373.707031 176.082031 C 383.003906 176.082031 390.566406 168.519531 390.566406 159.222656 C 390.566406 149.925781 383.003906 142.363281 373.707031 142.363281 C 364.410156 142.363281 356.847656 149.925781 356.847656 159.222656 C 356.847656 168.519531 364.410156 176.082031 373.707031 176.082031 Z M 373.707031 151.605469 C 377.90625 151.605469 381.320312 155.023438 381.320312 159.222656 C 381.320312 163.421875 377.90625 166.835938 373.707031 166.835938 C 369.507812 166.835938 366.089844 163.421875 366.089844 159.222656 C 366.089844 155.023438 369.507812 151.605469 373.707031 151.605469 Z M 373.707031 151.605469 " fill-opacity="1" fill-rule="nonzero"/><path fill="#10d3f9" d="M 312.726562 201.820312 C 312.726562 204.375 314.792969 206.445312 317.347656 206.445312 L 386.628906 206.445312 C 389.179688 206.445312 391.25 204.375 391.25 201.820312 C 391.25 199.269531 389.179688 197.199219 386.628906 197.199219 L 317.347656 197.199219 C 314.792969 197.199219 312.726562 199.269531 312.726562 201.820312 Z M 312.726562 201.820312 " fill-opacity="1" fill-rule="nonzero"/><g clip-path="url(#de9e731d05)"><path fill="#10d3f9" d="M 182.503906 278.882812 C 140.480469 278.882812 106.292969 313.070312 106.292969 355.09375 C 106.292969 397.113281 140.480469 431.304688 182.503906 431.304688 C 224.53125 431.304688 258.71875 397.117188 258.71875 355.09375 C 258.71875 313.070312 224.53125 278.882812 182.503906 278.882812 Z M 182.503906 422.058594 C 145.578125 422.058594 115.535156 392.019531 115.535156 355.09375 C 115.535156 318.164062 145.578125 288.125 182.503906 288.125 C 219.433594 288.125 249.472656 318.164062 249.472656 355.09375 C 249.472656 392.019531 219.433594 422.058594 182.503906 422.058594 Z M 182.503906 422.058594 " fill-opacity="1" fill-rule="nonzero"/></g><path fill="#10d3f9" d="M 182.503906 350.472656 C 157.488281 350.472656 137.136719 368.453125 137.136719 390.558594 C 137.136719 393.109375 139.207031 395.179688 141.757812 395.179688 C 144.3125 395.179688 146.382812 393.109375 146.382812 390.558594 C 146.382812 373.550781 162.589844 359.714844 182.503906 359.714844 C 202.421875 359.714844 218.628906 373.550781 218.628906 390.558594 C 218.628906 393.109375 220.695312 395.179688 223.25 395.179688 C 225.804688 395.179688 227.871094 393.109375 227.871094 390.558594 C 227.871094 368.453125 207.519531 350.472656 182.503906 350.472656 Z M 182.503906 350.472656 " fill-opacity="1" fill-rule="nonzero"/><path fill="#10d3f9" d="M 159.441406 343.539062 C 168.738281 343.539062 176.300781 335.976562 176.300781 326.679688 C 176.300781 317.386719 168.738281 309.820312 159.441406 309.820312 C 150.144531 309.820312 142.582031 317.386719 142.582031 326.679688 C 142.582031 335.976562 150.144531 343.539062 159.441406 343.539062 Z M 159.441406 319.066406 C 163.640625 319.066406 167.054688 322.484375 167.054688 326.679688 C 167.054688 330.878906 163.640625 334.296875 159.441406 334.296875 C 155.242188 334.296875 151.828125 330.878906 151.828125 326.679688 C 151.828125 322.484375 155.242188 319.066406 159.441406 319.066406 Z M 159.441406 319.066406 " fill-opacity="1" fill-rule="nonzero"/><path fill="#10d3f9" d="M 204.226562 343.539062 C 213.523438 343.539062 221.085938 335.976562 221.085938 326.679688 C 221.085938 317.386719 213.523438 309.820312 204.226562 309.820312 C 194.929688 309.820312 187.367188 317.386719 187.367188 326.679688 C 187.367188 335.976562 194.929688 343.539062 204.226562 343.539062 Z M 204.226562 319.066406 C 208.425781 319.066406 211.839844 322.484375 211.839844 326.679688 C 211.839844 330.878906 208.425781 334.296875 204.226562 334.296875 C 200.027344 334.296875 196.609375 330.878906 196.609375 326.679688 C 196.609375 322.484375 200.027344 319.066406 204.226562 319.066406 Z M 204.226562 319.066406 " fill-opacity="1" fill-rule="nonzero"/><g clip-path="url(#c04b2f7e0c)"><path fill="#10d3f9" d="M 351.988281 278.882812 C 309.964844 278.882812 275.773438 313.070312 275.773438 355.09375 C 275.773438 397.113281 309.960938 431.304688 351.988281 431.304688 C 394.011719 431.304688 428.199219 397.117188 428.199219 355.09375 C 428.199219 313.070312 394.007812 278.882812 351.988281 278.882812 Z M 351.988281 422.058594 C 315.058594 422.058594 285.019531 392.019531 285.019531 355.09375 C 285.019531 318.164062 315.058594 288.125 351.988281 288.125 C 388.914062 288.125 418.957031 318.164062 418.957031 355.09375 C 418.957031 392.019531 388.914062 422.058594 351.988281 422.058594 Z M 351.988281 422.058594 " fill-opacity="1" fill-rule="nonzero"/></g><path fill="#10d3f9" d="M 317.355469 347.066406 C 320.640625 350.355469 324.957031 352 329.277344 352 C 332.101562 352 334.925781 351.28125 337.460938 349.871094 L 343.125 355.535156 C 344.027344 356.4375 345.210938 356.886719 346.394531 356.886719 C 347.578125 356.886719 348.757812 356.4375 349.664062 355.535156 C 351.46875 353.726562 351.46875 350.800781 349.664062 348.996094 L 323.898438 323.234375 C 323.894531 323.230469 323.894531 323.226562 323.894531 323.226562 C 323.890625 323.222656 323.886719 323.21875 323.882812 323.21875 L 315.425781 314.761719 C 313.617188 312.953125 310.695312 312.953125 308.890625 314.761719 C 307.085938 316.566406 307.082031 319.492188 308.890625 321.296875 L 314.554688 326.960938 C 310.992188 333.375 311.917969 341.628906 317.355469 347.066406 Z M 329.277344 342.761719 C 327.242188 342.761719 325.332031 341.96875 323.894531 340.53125 C 322.457031 339.09375 321.664062 337.179688 321.664062 335.148438 C 321.664062 334.8125 321.714844 334.492188 321.757812 334.164062 L 330.261719 342.664062 C 329.933594 342.707031 329.609375 342.761719 329.277344 342.761719 Z M 329.277344 342.761719 " fill-opacity="1" fill-rule="nonzero"/><path fill="#10d3f9" d="M 386.625 373.6875 L 317.347656 373.6875 C 314.792969 373.6875 312.726562 375.753906 312.726562 378.308594 C 312.726562 380.863281 314.792969 382.929688 317.347656 382.929688 L 386.628906 382.929688 C 389.179688 382.929688 391.25 380.863281 391.25 378.308594 C 391.25 375.753906 389.179688 373.6875 386.625 373.6875 Z M 386.625 373.6875 " fill-opacity="1" fill-rule="nonzero"/><path fill="#10d3f9" d="M 388.878906 314.761719 L 354.636719 349 C 352.832031 350.804688 352.832031 353.730469 354.636719 355.535156 C 355.539062 356.4375 356.722656 356.886719 357.90625 356.886719 C 359.089844 356.886719 360.269531 356.4375 361.175781 355.535156 L 366.484375 350.226562 C 369.113281 351.769531 372.066406 352.5625 375.027344 352.5625 C 379.34375 352.5625 383.660156 350.921875 386.949219 347.632812 C 392.488281 342.09375 393.339844 333.632812 389.539062 327.171875 L 395.414062 321.296875 C 397.21875 319.492188 397.21875 316.566406 395.414062 314.761719 C 393.605469 312.957031 390.683594 312.953125 388.878906 314.761719 Z M 382.640625 335.710938 C 382.640625 337.746094 381.847656 339.65625 380.410156 341.097656 C 378.972656 342.53125 377.058594 343.324219 375.027344 343.324219 C 374.519531 343.324219 374.015625 343.277344 373.527344 343.179688 L 382.496094 334.214844 C 382.589844 334.703125 382.640625 335.203125 382.640625 335.710938 Z M 382.640625 335.710938 " fill-opacity="1" fill-rule="nonzero"/><g clip-path="url(#667b82f710)"><g clip-path="url(#6bbd9b6adf)"><path fill="#2bf6ff" d="M 190.746094 116.792969 C 150.132812 116.792969 117.089844 149.832031 117.089844 190.445312 C 117.089844 231.058594 150.132812 264.101562 190.746094 264.101562 C 231.363281 264.101562 264.40625 231.0625 264.40625 190.445312 C 264.40625 149.832031 231.363281 116.792969 190.746094 116.792969 Z M 190.746094 255.167969 C 155.058594 255.167969 126.027344 226.136719 126.027344 190.445312 C 126.027344 154.757812 155.058594 125.726562 190.746094 125.726562 C 226.4375 125.726562 255.46875 154.757812 255.46875 190.445312 C 255.46875 226.136719 226.4375 255.167969 190.746094 255.167969 Z M 190.746094 255.167969 " fill-opacity="1" fill-rule="nonzero"/></g></g><g clip-path="url(#20c20e7b47)"><g clip-path="url(#7728191c60)"><path fill="#2bf6ff" d="M 232.21875 190.445312 C 232.21875 213.316406 213.613281 231.917969 190.746094 231.917969 C 167.878906 231.917969 149.277344 213.316406 149.277344 190.445312 C 149.277344 187.980469 147.277344 185.980469 144.808594 185.980469 C 142.34375 185.980469 140.34375 187.980469 140.34375 190.445312 C 140.34375 218.242188 162.953125 240.855469 190.746094 240.855469 C 218.542969 240.855469 241.152344 218.242188 241.152344 190.445312 C 241.152344 187.980469 239.152344 185.980469 236.6875 185.980469 C 234.21875 185.980469 232.21875 187.980469 232.21875 190.445312 Z M 232.21875 190.445312 " fill-opacity="1" fill-rule="nonzero"/></g></g><g clip-path="url(#cec841b570)"><g clip-path="url(#dd92a275ae)"><path fill="#2bf6ff" d="M 168.457031 179.28125 C 177.441406 179.28125 184.75 171.972656 184.75 162.988281 C 184.75 154.003906 177.441406 146.695312 168.457031 146.695312 C 159.472656 146.695312 152.164062 154.003906 152.164062 162.988281 C 152.164062 171.972656 159.472656 179.28125 168.457031 179.28125 Z M 168.457031 155.628906 C 172.515625 155.628906 175.816406 158.929688 175.816406 162.988281 C 175.816406 167.046875 172.515625 170.347656 168.457031 170.347656 C 164.398438 170.347656 161.097656 167.046875 161.097656 162.988281 C 161.097656 158.929688 164.398438 155.628906 168.457031 155.628906 Z M 168.457031 155.628906 " fill-opacity="1" fill-rule="nonzero"/></g></g><g clip-path="url(#b2c36432d0)"><g clip-path="url(#d7c55d3ff7)"><path fill="#2bf6ff" d="M 211.742188 179.28125 C 220.726562 179.28125 228.035156 171.972656 228.035156 162.988281 C 228.035156 154.003906 220.726562 146.695312 211.742188 146.695312 C 202.757812 146.695312 195.445312 154.003906 195.445312 162.988281 C 195.445312 171.972656 202.757812 179.28125 211.742188 179.28125 Z M 211.742188 155.628906 C 215.796875 155.628906 219.101562 158.929688 219.101562 162.988281 C 219.101562 167.046875 215.796875 170.347656 211.742188 170.347656 C 207.683594 170.347656 204.382812 167.046875 204.382812 162.988281 C 204.382812 158.929688 207.683594 155.628906 211.742188 155.628906 Z M 211.742188 155.628906 " fill-opacity="1" fill-rule="nonzero"/></g></g><g clip-path="url(#150b15ec34)"><g clip-path="url(#34843fcb36)"><path fill="#2bf6ff" d="M 354.546875 264.101562 C 395.160156 264.101562 428.203125 231.0625 428.203125 190.445312 C 428.203125 149.835938 395.160156 116.792969 354.546875 116.792969 C 313.929688 116.792969 280.890625 149.832031 280.890625 190.445312 C 280.890625 231.058594 313.929688 264.101562 354.546875 264.101562 Z M 354.546875 125.726562 C 390.234375 125.726562 419.269531 154.757812 419.269531 190.445312 C 419.269531 226.136719 390.234375 255.167969 354.546875 255.167969 C 318.855469 255.167969 289.824219 226.136719 289.824219 190.445312 C 289.824219 154.757812 318.855469 125.726562 354.546875 125.726562 Z M 354.546875 125.726562 " fill-opacity="1" fill-rule="nonzero"/></g></g><g clip-path="url(#e708c12688)"><g clip-path="url(#a19f7fc25e)"><path fill="#2bf6ff" d="M 332.253906 179.28125 C 341.238281 179.28125 348.550781 171.972656 348.550781 162.988281 C 348.550781 154.003906 341.238281 146.695312 332.253906 146.695312 C 323.273438 146.695312 315.960938 154.003906 315.960938 162.988281 C 315.960938 171.972656 323.273438 179.28125 332.253906 179.28125 Z M 332.253906 155.628906 C 336.3125 155.628906 339.617188 158.929688 339.617188 162.988281 C 339.617188 167.046875 336.3125 170.347656 332.253906 170.347656 C 328.199219 170.347656 324.894531 167.046875 324.894531 162.988281 C 324.894531 158.929688 328.199219 155.628906 332.253906 155.628906 Z M 332.253906 155.628906 " fill-opacity="1" fill-rule="nonzero"/></g></g><g clip-path="url(#9820ebaa49)"><g clip-path="url(#b5dd232de8)"><path fill="#2bf6ff" d="M 375.535156 179.28125 C 384.519531 179.28125 391.832031 171.972656 391.832031 162.988281 C 391.832031 154.003906 384.519531 146.695312 375.535156 146.695312 C 366.554688 146.695312 359.242188 154.003906 359.242188 162.988281 C 359.242188 171.972656 366.554688 179.28125 375.535156 179.28125 Z M 375.535156 155.628906 C 379.59375 155.628906 382.898438 158.929688 382.898438 162.988281 C 382.898438 167.046875 379.59375 170.347656 375.535156 170.347656 C 371.480469 170.347656 368.175781 167.046875 368.175781 162.988281 C 368.175781 158.929688 371.480469 155.628906 375.535156 155.628906 Z M 375.535156 155.628906 " fill-opacity="1" fill-rule="nonzero"/></g></g><g clip-path="url(#c98ab2e364)"><g clip-path="url(#e43daaa7e5)"><path fill="#2bf6ff" d="M 316.601562 204.160156 C 316.601562 206.625 318.601562 208.625 321.070312 208.625 L 388.023438 208.625 C 390.492188 208.625 392.492188 206.625 392.492188 204.160156 C 392.492188 201.691406 390.492188 199.691406 388.023438 199.691406 L 321.070312 199.691406 C 318.601562 199.691406 316.601562 201.691406 316.601562 204.160156 Z M 316.601562 204.160156 " fill-opacity="1" fill-rule="nonzero"/></g></g><g clip-path="url(#07801db962)"><g clip-path="url(#25ff15a291)"><path fill="#2bf6ff" d="M 190.746094 278.632812 C 150.132812 278.632812 117.089844 311.675781 117.089844 352.289062 C 117.089844 392.902344 150.132812 425.945312 190.746094 425.945312 C 231.363281 425.945312 264.40625 392.902344 264.40625 352.289062 C 264.40625 311.675781 231.363281 278.632812 190.746094 278.632812 Z M 190.746094 417.011719 C 155.058594 417.011719 126.027344 387.976562 126.027344 352.289062 C 126.027344 316.601562 155.058594 287.566406 190.746094 287.566406 C 226.4375 287.566406 255.46875 316.601562 255.46875 352.289062 C 255.46875 387.976562 226.4375 417.011719 190.746094 417.011719 Z M 190.746094 417.011719 " fill-opacity="1" fill-rule="nonzero"/></g></g><g clip-path="url(#6bac7f0a5a)"><g clip-path="url(#875a869280)"><path fill="#2bf6ff" d="M 190.746094 347.824219 C 166.570312 347.824219 146.902344 365.203125 146.902344 386.5625 C 146.902344 389.03125 148.902344 391.03125 151.367188 391.03125 C 153.835938 391.03125 155.835938 389.03125 155.835938 386.5625 C 155.835938 370.128906 171.5 356.757812 190.746094 356.757812 C 209.996094 356.757812 225.660156 370.128906 225.660156 386.5625 C 225.660156 389.03125 227.660156 391.03125 230.125 391.03125 C 232.59375 391.03125 234.59375 389.03125 234.59375 386.5625 C 234.59375 365.203125 214.925781 347.824219 190.746094 347.824219 Z M 190.746094 347.824219 " fill-opacity="1" fill-rule="nonzero"/></g></g><g clip-path="url(#7d02dbf41a)"><g clip-path="url(#ae94ce9b02)"><path fill="#2bf6ff" d="M 168.457031 341.125 C 177.441406 341.125 184.75 333.816406 184.75 324.832031 C 184.75 315.847656 177.441406 308.535156 168.457031 308.535156 C 159.472656 308.535156 152.164062 315.847656 152.164062 324.832031 C 152.164062 333.816406 159.472656 341.125 168.457031 341.125 Z M 168.457031 317.472656 C 172.515625 317.472656 175.816406 320.773438 175.816406 324.832031 C 175.816406 328.886719 172.515625 332.191406 168.457031 332.191406 C 164.398438 332.191406 161.097656 328.886719 161.097656 324.832031 C 161.097656 320.773438 164.398438 317.472656 168.457031 317.472656 Z M 168.457031 317.472656 " fill-opacity="1" fill-rule="nonzero"/></g></g><g clip-path="url(#c4c15e7ebe)"><g clip-path="url(#28707fb870)"><path fill="#2bf6ff" d="M 211.742188 341.125 C 220.726562 341.125 228.035156 333.816406 228.035156 324.832031 C 228.035156 315.847656 220.726562 308.535156 211.742188 308.535156 C 202.757812 308.535156 195.445312 315.847656 195.445312 324.832031 C 195.445312 333.816406 202.757812 341.125 211.742188 341.125 Z M 211.742188 317.472656 C 215.796875 317.472656 219.101562 320.773438 219.101562 324.832031 C 219.101562 328.886719 215.796875 332.191406 211.742188 332.191406 C 207.683594 332.191406 204.382812 328.886719 204.382812 324.832031 C 204.382812 320.773438 207.683594 317.472656 211.742188 317.472656 Z M 211.742188 317.472656 " fill-opacity="1" fill-rule="nonzero"/></g></g><g clip-path="url(#7db78836be)"><g clip-path="url(#9f6edb91d3)"><path fill="#2bf6ff" d="M 354.546875 278.632812 C 313.933594 278.632812 280.890625 311.675781 280.890625 352.289062 C 280.890625 392.902344 313.929688 425.945312 354.546875 425.945312 C 395.160156 425.945312 428.203125 392.902344 428.203125 352.289062 C 428.203125 311.675781 395.160156 278.632812 354.546875 278.632812 Z M 354.546875 417.011719 C 318.855469 417.011719 289.824219 387.976562 289.824219 352.289062 C 289.824219 316.601562 318.855469 287.566406 354.546875 287.566406 C 390.234375 287.566406 419.269531 316.601562 419.269531 352.289062 C 419.269531 387.976562 390.234375 417.011719 354.546875 417.011719 Z M 354.546875 417.011719 " fill-opacity="1" fill-rule="nonzero"/></g></g><g clip-path="url(#00a0178b96)"><g clip-path="url(#99fb66c9fe)"><path fill="#2bf6ff" d="M 321.074219 344.535156 C 324.25 347.710938 328.421875 349.296875 332.597656 349.296875 C 335.328125 349.296875 338.054688 348.605469 340.507812 347.242188 L 345.980469 352.714844 C 346.855469 353.585938 347.996094 354.023438 349.140625 354.023438 C 350.285156 354.023438 351.425781 353.585938 352.300781 352.714844 C 354.046875 350.96875 354.046875 348.144531 352.300781 346.398438 L 327.402344 321.5 C 327.398438 321.496094 327.394531 321.492188 327.394531 321.492188 C 327.390625 321.488281 327.386719 321.484375 327.386719 321.484375 L 319.210938 313.308594 C 317.464844 311.5625 314.636719 311.5625 312.894531 313.308594 C 311.148438 315.054688 311.148438 317.882812 312.894531 319.625 L 318.367188 325.101562 C 314.925781 331.296875 315.820312 339.277344 321.074219 344.535156 Z M 332.597656 340.371094 C 330.632812 340.371094 328.785156 339.605469 327.394531 338.21875 C 326.003906 336.828125 325.238281 334.976562 325.238281 333.011719 C 325.238281 332.691406 325.289062 332.378906 325.332031 332.0625 L 333.546875 340.277344 C 333.230469 340.320312 332.917969 340.371094 332.597656 340.371094 Z M 332.597656 340.371094 " fill-opacity="1" fill-rule="nonzero"/></g></g><g clip-path="url(#699f08bfa4)"><g clip-path="url(#c664b5bae3)"><path fill="#2bf6ff" d="M 388.023438 370.257812 L 321.070312 370.257812 C 318.601562 370.257812 316.601562 372.257812 316.601562 374.726562 C 316.601562 377.195312 318.601562 379.195312 321.070312 379.195312 L 388.023438 379.195312 C 390.492188 379.195312 392.492188 377.195312 392.492188 374.726562 C 392.492188 372.257812 390.492188 370.257812 388.023438 370.257812 Z M 388.023438 370.257812 " fill-opacity="1" fill-rule="nonzero"/></g></g><g clip-path="url(#7949a711f0)"><g clip-path="url(#65efc96894)"><path fill="#2bf6ff" d="M 390.199219 313.308594 L 357.109375 346.402344 C 355.363281 348.144531 355.363281 350.972656 357.109375 352.71875 C 357.980469 353.589844 359.125 354.023438 360.265625 354.023438 C 361.410156 354.023438 362.550781 353.589844 363.425781 352.71875 L 368.558594 347.585938 C 371.097656 349.078125 373.953125 349.84375 376.8125 349.84375 C 380.984375 349.84375 385.160156 348.257812 388.332031 345.082031 C 393.6875 339.726562 394.511719 331.550781 390.839844 325.304688 L 396.515625 319.628906 C 398.261719 317.882812 398.261719 315.054688 396.515625 313.3125 C 394.769531 311.566406 391.945312 311.5625 390.199219 313.308594 Z M 384.171875 333.558594 C 384.171875 335.523438 383.40625 337.371094 382.015625 338.761719 C 380.628906 340.152344 378.777344 340.917969 376.8125 340.917969 C 376.320312 340.917969 375.835938 340.867188 375.367188 340.777344 L 384.03125 332.109375 C 384.125 332.582031 384.171875 333.066406 384.171875 333.558594 Z M 384.171875 333.558594 " fill-opacity="1" fill-rule="nonzero"/></g></g></svg>