<svg xmlns="http://www.w3.org/2000/svg" xmlns:xlink="http://www.w3.org/1999/xlink" width="793" zoomAndPan="magnify" viewBox="0 0 594.95996 842.24997" height="1122" preserveAspectRatio="xMidYMid meet" version="1.0"><defs><clipPath id="41a124952d"><path d="M 223 376 L 416.207031 376 L 416.207031 513.925781 L 223 513.925781 Z M 223 376 " clip-rule="nonzero"/></clipPath><clipPath id="eadd315632"><path d="M 179 327.34375 L 236 327.34375 L 236 417 L 179 417 Z M 179 327.34375 " clip-rule="nonzero"/></clipPath><clipPath id="56d531ed5a"><path d="M 223 396 L 416.207031 396 L 416.207031 533 L 223 533 Z M 223 396 " clip-rule="nonzero"/></clipPath><clipPath id="53aea45a4d"><path d="M 179 346.535156 L 236 346.535156 L 236 437 L 179 437 Z M 179 346.535156 " clip-rule="nonzero"/></clipPath></defs><g clip-path="url(#41a124952d)"><path fill="#38b6ff" d="M 416.363281 453.695312 L 411.644531 459.15625 C 404.921875 466.882812 398.230469 474.640625 391.507812 482.332031 C 390.910156 482.96875 390.585938 483.722656 390.539062 484.59375 C 390.085938 490.671875 389.601562 496.714844 389.148438 502.792969 C 388.859375 506.347656 388.566406 509.902344 388.277344 513.71875 L 385.464844 511.390625 L 356.375 486.242188 C 356.066406 485.945312 355.707031 485.734375 355.296875 485.601562 C 354.886719 485.472656 354.472656 485.4375 354.046875 485.5 C 337.058594 487.195312 320.078125 487.109375 303.109375 485.242188 C 292.371094 484.171875 281.855469 482.015625 271.5625 478.777344 L 270.851562 478.582031 C 270.023438 479.738281 269.328125 480.96875 268.765625 482.273438 C 268.199219 483.574219 267.777344 484.925781 267.5 486.316406 C 267.222656 487.710938 267.089844 489.117188 267.113281 490.535156 C 267.132812 491.957031 267.300781 493.359375 267.617188 494.746094 C 264.847656 491.921875 262.695312 488.691406 261.152344 485.046875 C 259.683594 481.453125 258.894531 477.714844 258.792969 473.832031 C 257.953125 473.347656 257.179688 472.894531 256.371094 472.476562 C 250.09375 469.273438 244.472656 465.179688 239.5 460.191406 C 237.253906 457.917969 235.226562 455.464844 233.417969 452.832031 C 231.605469 450.199219 230.039062 447.425781 228.714844 444.519531 C 227.390625 441.609375 226.332031 438.609375 225.539062 435.515625 C 224.742188 432.417969 224.226562 429.277344 223.984375 426.09375 C 223.789062 424.25 223.726562 422.375 223.597656 420.4375 L 249.9375 416.945312 L 238.300781 386.078125 L 238.789062 385.722656 C 240.90625 384.476562 243.085938 383.351562 245.335938 382.355469 C 247.582031 381.359375 249.878906 380.496094 252.226562 379.761719 C 254.570312 379.03125 256.953125 378.4375 259.367188 377.976562 C 261.78125 377.519531 264.214844 377.199219 266.667969 377.019531 C 269.117188 376.84375 271.570312 376.804688 274.027344 376.90625 C 276.484375 377.011719 278.925781 377.253906 281.351562 377.640625 C 283.78125 378.023438 286.179688 378.546875 288.546875 379.207031 C 290.914062 379.863281 293.234375 380.660156 295.511719 381.585938 C 299.761719 383.332031 303.855469 385.390625 307.792969 387.757812 L 309.3125 388.597656 L 330.644531 380.390625 L 324.183594 394.609375 C 325.964844 394.480469 327.730469 394.246094 329.484375 393.898438 C 331.164062 393.671875 332.714844 393.382812 334.71875 393.09375 L 331.488281 400.300781 L 338.984375 401.722656 L 336.300781 407.667969 L 343.703125 408.152344 L 340.988281 414.070312 L 349.296875 414.910156 L 347.261719 419.5625 L 350.296875 421.082031 L 350.296875 426.738281 L 355.597656 429.355469 L 353.078125 434.980469 L 359.542969 435.304688 C 359.542969 436.886719 359.542969 438.375 359.542969 439.828125 C 359.367188 441.699219 359.421875 443.5625 359.703125 445.421875 C 360.371094 447.113281 361.230469 448.695312 362.289062 450.171875 L 366.78125 458.285156 L 367.429688 459.382812 Z M 292.796875 401.398438 C 292.796875 401.398438 292.796875 401.109375 292.796875 401.398438 C 292.796875 401.691406 292.796875 401.398438 292.796875 401.398438 L 292.796875 402.109375 C 292.796875 402.5625 292.507812 403.015625 292.441406 403.46875 C 291.332031 412.78125 288.605469 421.59375 284.265625 429.90625 C 282.304688 433.683594 280.082031 437.304688 277.605469 440.765625 C 273.257812 447 268.246094 452.644531 262.578125 457.703125 C 262.3125 457.960938 262.074219 458.242188 261.863281 458.542969 L 261.703125 458.542969 C 261.910156 458.5625 262.113281 458.5625 262.316406 458.542969 C 266.433594 456.824219 270.226562 454.5625 273.695312 451.757812 C 277.285156 448.796875 280.386719 445.390625 283.003906 441.542969 C 285.621094 437.695312 287.644531 433.558594 289.082031 429.132812 C 291.925781 420.746094 293.226562 412.125 292.992188 403.273438 C 292.992188 402.828125 292.917969 402.398438 292.765625 401.980469 Z M 270.429688 393.058594 C 269.273438 392.722656 268.097656 392.464844 266.90625 392.285156 C 266.597656 392.246094 266.285156 392.222656 265.96875 392.222656 C 265.65625 392.222656 265.34375 392.242188 265.03125 392.28125 C 264.71875 392.320312 264.414062 392.375 264.109375 392.453125 C 263.804688 392.53125 263.507812 392.625 263.214844 392.742188 C 262.921875 392.855469 262.636719 392.988281 262.363281 393.136719 C 262.085938 393.285156 261.820312 393.453125 261.566406 393.636719 C 261.3125 393.820312 261.070312 394.015625 260.839844 394.230469 C 260.609375 394.445312 260.390625 394.671875 260.191406 394.910156 C 259.988281 395.152344 259.800781 395.402344 259.632812 395.667969 C 259.460938 395.929688 259.308594 396.203125 259.171875 396.484375 C 259.035156 396.769531 258.917969 397.058594 258.816406 397.355469 C 258.71875 397.652344 258.636719 397.957031 258.574219 398.261719 C 258.511719 398.570312 258.46875 398.882812 258.445312 399.195312 C 258.421875 399.507812 258.417969 399.820312 258.433594 400.132812 C 258.453125 400.445312 258.488281 400.757812 258.542969 401.066406 C 258.597656 401.375 258.667969 401.679688 258.761719 401.980469 C 258.941406 402.511719 259.167969 403.023438 259.449219 403.507812 C 259.726562 403.996094 260.050781 404.449219 260.421875 404.875 C 260.789062 405.296875 261.195312 405.679688 261.640625 406.023438 C 262.085938 406.363281 262.558594 406.660156 263.0625 406.910156 C 263.566406 407.160156 264.089844 407.355469 264.628906 407.503906 C 265.171875 407.648438 265.722656 407.742188 266.28125 407.777344 C 266.84375 407.816406 267.402344 407.796875 267.957031 407.726562 C 268.515625 407.652344 269.058594 407.527344 269.589844 407.347656 C 270.625 407.019531 271.539062 406.484375 272.332031 405.742188 C 273.125 405 273.71875 404.125 274.113281 403.113281 C 274.285156 402.65625 274.414062 402.1875 274.5 401.707031 C 274.585938 401.230469 274.628906 400.746094 274.628906 400.261719 C 274.632812 399.773438 274.589844 399.289062 274.503906 398.8125 C 274.421875 398.332031 274.292969 397.863281 274.128906 397.40625 C 273.960938 396.949219 273.753906 396.511719 273.507812 396.089844 C 273.261719 395.667969 272.980469 395.273438 272.667969 394.902344 C 272.351562 394.53125 272.007812 394.191406 271.628906 393.882812 C 271.253906 393.574219 270.855469 393.296875 270.429688 393.058594 Z M 270.429688 393.058594 " fill-opacity="1" fill-rule="nonzero"/></g><g clip-path="url(#eadd315632)"><path fill="#38b6ff" d="M 197.027344 366.230469 C 196.757812 365.738281 196.578125 365.214844 196.488281 364.660156 C 196.398438 364.105469 196.402344 363.550781 196.503906 363 C 196.601562 362.445312 196.792969 361.925781 197.070312 361.4375 C 197.347656 360.949219 197.699219 360.523438 198.125 360.15625 C 200.164062 358.054688 202.132812 355.890625 204.136719 353.691406 C 204.3125 353.414062 204.515625 353.15625 204.742188 352.921875 C 204.96875 352.683594 205.214844 352.472656 205.484375 352.285156 C 205.753906 352.097656 206.039062 351.9375 206.339844 351.808594 C 206.640625 351.679688 206.953125 351.582031 207.273438 351.511719 C 207.59375 351.445312 207.917969 351.410156 208.246094 351.40625 C 208.574219 351.402344 208.898438 351.433594 209.222656 351.496094 C 209.542969 351.558594 209.855469 351.652344 210.160156 351.777344 C 210.460938 351.902344 210.75 352.054688 211.023438 352.238281 L 233.648438 327.703125 L 235.101562 328.964844 C 233.292969 331.195312 231.289062 333.167969 229.414062 335.234375 L 223.757812 341.34375 L 218.101562 347.582031 L 212.378906 353.722656 C 212.65625 354.019531 212.886719 354.347656 213.066406 354.710938 C 213.25 355.070312 213.375 355.453125 213.449219 355.851562 C 213.519531 356.25 213.53125 356.648438 213.488281 357.050781 C 213.445312 357.453125 213.34375 357.84375 213.1875 358.214844 C 212.964844 358.816406 212.640625 359.355469 212.21875 359.832031 C 209.957031 362.386719 207.628906 364.875 205.300781 367.363281 C 204.964844 367.777344 204.566406 368.125 204.109375 368.40625 C 203.65625 368.683594 203.164062 368.882812 202.640625 368.992188 C 202.117188 369.105469 201.589844 369.125 201.0625 369.058594 C 200.53125 368.988281 200.027344 368.832031 199.546875 368.59375 L 195.667969 372.890625 C 193.179688 375.605469 190.53125 378.191406 188.269531 381.101562 C 187.238281 382.332031 186.355469 383.667969 185.625 385.097656 C 184.894531 386.53125 184.332031 388.023438 183.9375 389.582031 C 183.542969 391.140625 183.328125 392.722656 183.289062 394.332031 C 183.25 395.9375 183.390625 397.527344 183.710938 399.105469 C 183.914062 400.113281 184.199219 401.101562 184.574219 402.0625 C 184.949219 403.023438 185.40625 403.941406 185.941406 404.824219 C 186.476562 405.703125 187.085938 406.53125 187.765625 407.304688 C 188.449219 408.082031 189.191406 408.789062 189.996094 409.433594 C 190.800781 410.078125 191.65625 410.648438 192.5625 411.140625 C 193.464844 411.636719 194.40625 412.046875 195.386719 412.375 C 196.363281 412.703125 197.359375 412.945312 198.378906 413.101562 C 199.398438 413.253906 200.425781 413.320312 201.457031 413.292969 C 202.964844 413.285156 204.457031 413.128906 205.9375 412.820312 C 207.414062 412.511719 208.847656 412.0625 210.234375 411.46875 C 211.621094 410.875 212.9375 410.148438 214.179688 409.292969 C 215.421875 408.433594 216.570312 407.460938 217.617188 406.375 C 217.8125 406.191406 217.988281 405.988281 218.132812 405.761719 L 221.367188 400.203125 L 214.253906 400.71875 L 227.796875 390.472656 C 227.472656 391.921875 227.050781 393.34375 226.539062 394.742188 C 225.535156 397.972656 224.566406 400.945312 223.5625 404.015625 C 223.457031 404.429688 223.273438 404.808594 223.015625 405.148438 C 220.457031 408.339844 217.441406 411.011719 213.964844 413.164062 C 212.535156 414.058594 211.027344 414.796875 209.441406 415.375 C 207.859375 415.953125 206.230469 416.363281 204.558594 416.597656 C 202.890625 416.835938 201.210938 416.894531 199.527344 416.78125 C 197.847656 416.664062 196.191406 416.375 194.570312 415.910156 C 193.636719 415.671875 192.726562 415.367188 191.835938 414.992188 C 190.945312 414.621094 190.089844 414.183594 189.265625 413.6875 C 188.4375 413.191406 187.652344 412.632812 186.910156 412.019531 C 186.164062 411.410156 185.46875 410.746094 184.820312 410.03125 C 184.175781 409.316406 183.582031 408.558594 183.046875 407.757812 C 182.507812 406.957031 182.035156 406.121094 181.621094 405.25 C 181.207031 404.378906 180.855469 403.484375 180.574219 402.5625 C 180.289062 401.640625 180.074219 400.703125 179.929688 399.75 C 179.589844 398.027344 179.4375 396.285156 179.46875 394.527344 C 179.503906 392.773438 179.726562 391.039062 180.132812 389.328125 C 180.539062 387.621094 181.125 385.972656 181.882812 384.390625 C 182.644531 382.808594 183.566406 381.324219 184.648438 379.9375 C 186.652344 377.253906 189.011719 374.828125 191.273438 372.339844 C 192.859375 370.5625 194.507812 368.816406 196.15625 367.074219 C 196.46875 366.816406 196.761719 366.539062 197.027344 366.230469 Z M 197.027344 366.230469 " fill-opacity="1" fill-rule="nonzero"/></g><g clip-path="url(#56d531ed5a)"><path fill="#2bf6ff" d="M 416.363281 472.886719 L 411.644531 478.347656 C 404.921875 486.074219 398.230469 493.832031 391.507812 501.523438 C 390.910156 502.160156 390.585938 502.914062 390.539062 503.785156 C 390.085938 509.863281 389.601562 515.90625 389.148438 521.984375 C 388.859375 525.539062 388.566406 529.09375 388.277344 532.910156 L 385.464844 530.582031 L 356.375 505.433594 C 356.066406 505.136719 355.707031 504.925781 355.296875 504.792969 C 354.886719 504.664062 354.472656 504.628906 354.046875 504.691406 C 337.058594 506.386719 320.078125 506.300781 303.109375 504.433594 C 292.371094 503.363281 281.855469 501.207031 271.5625 497.96875 L 270.851562 497.773438 C 270.023438 498.929688 269.328125 500.160156 268.765625 501.464844 C 268.199219 502.765625 267.777344 504.113281 267.5 505.507812 C 267.222656 506.902344 267.089844 508.308594 267.113281 509.726562 C 267.132812 511.148438 267.300781 512.550781 267.617188 513.9375 C 264.847656 511.113281 262.695312 507.882812 261.152344 504.238281 C 259.683594 500.644531 258.894531 496.90625 258.792969 493.023438 C 257.953125 492.539062 257.179688 492.085938 256.371094 491.664062 C 250.09375 488.464844 244.472656 484.371094 239.5 479.382812 C 237.253906 477.109375 235.226562 474.652344 233.417969 472.023438 C 231.605469 469.390625 230.039062 466.617188 228.714844 463.710938 C 227.390625 460.800781 226.332031 457.800781 225.539062 454.707031 C 224.742188 451.609375 224.226562 448.46875 223.984375 445.285156 C 223.789062 443.441406 223.726562 441.566406 223.597656 439.628906 L 249.9375 436.136719 L 238.300781 405.269531 L 238.789062 404.914062 C 240.90625 403.667969 243.085938 402.542969 245.335938 401.546875 C 247.582031 400.550781 249.878906 399.6875 252.226562 398.953125 C 254.570312 398.222656 256.953125 397.625 259.367188 397.167969 C 261.78125 396.710938 264.214844 396.390625 266.667969 396.210938 C 269.117188 396.035156 271.570312 395.996094 274.027344 396.097656 C 276.484375 396.203125 278.925781 396.445312 281.351562 396.832031 C 283.78125 397.214844 286.179688 397.738281 288.546875 398.394531 C 290.914062 399.054688 293.234375 399.847656 295.511719 400.777344 C 299.761719 402.523438 303.855469 404.582031 307.792969 406.949219 L 309.3125 407.789062 L 330.644531 399.582031 L 324.183594 413.800781 C 325.964844 413.671875 327.730469 413.4375 329.484375 413.089844 C 331.164062 412.863281 332.714844 412.574219 334.71875 412.28125 L 331.488281 419.492188 L 338.984375 420.914062 L 336.300781 426.859375 L 343.703125 427.34375 L 340.988281 433.261719 L 349.296875 434.101562 L 347.261719 438.753906 L 350.296875 440.273438 L 350.296875 445.929688 L 355.597656 448.546875 L 353.078125 454.171875 L 359.542969 454.496094 C 359.542969 456.078125 359.542969 457.566406 359.542969 459.019531 C 359.367188 460.890625 359.421875 462.753906 359.703125 464.613281 C 360.371094 466.300781 361.230469 467.886719 362.289062 469.363281 L 366.78125 477.476562 L 367.429688 478.574219 Z M 292.796875 420.589844 C 292.796875 420.589844 292.796875 420.296875 292.796875 420.589844 C 292.796875 420.878906 292.796875 420.589844 292.796875 420.589844 L 292.796875 421.300781 C 292.796875 421.753906 292.507812 422.207031 292.441406 422.660156 C 291.332031 431.972656 288.605469 440.785156 284.265625 449.097656 C 282.304688 452.875 280.082031 456.496094 277.605469 459.957031 C 273.257812 466.191406 268.246094 471.835938 262.578125 476.894531 C 262.3125 477.152344 262.074219 477.433594 261.863281 477.734375 L 261.703125 477.734375 C 261.910156 477.753906 262.113281 477.753906 262.316406 477.734375 C 266.433594 476.015625 270.226562 473.753906 273.695312 470.949219 C 277.285156 467.988281 280.386719 464.582031 283.003906 460.734375 C 285.621094 456.886719 287.644531 452.75 289.082031 448.320312 C 291.925781 439.9375 293.226562 431.316406 292.992188 422.464844 C 292.992188 422.019531 292.917969 421.589844 292.765625 421.171875 Z M 270.429688 412.25 C 269.273438 411.914062 268.097656 411.65625 266.90625 411.476562 C 266.597656 411.433594 266.285156 411.414062 265.96875 411.414062 C 265.65625 411.414062 265.34375 411.433594 265.03125 411.472656 C 264.71875 411.511719 264.414062 411.566406 264.109375 411.644531 C 263.804688 411.722656 263.507812 411.816406 263.214844 411.933594 C 262.921875 412.046875 262.636719 412.179688 262.363281 412.328125 C 262.085938 412.476562 261.820312 412.644531 261.566406 412.828125 C 261.3125 413.011719 261.070312 413.207031 260.839844 413.421875 C 260.609375 413.636719 260.390625 413.863281 260.191406 414.101562 C 259.988281 414.34375 259.800781 414.59375 259.632812 414.859375 C 259.460938 415.121094 259.308594 415.394531 259.171875 415.675781 C 259.035156 415.960938 258.917969 416.25 258.816406 416.546875 C 258.71875 416.84375 258.636719 417.148438 258.574219 417.453125 C 258.511719 417.761719 258.46875 418.074219 258.445312 418.386719 C 258.421875 418.699219 258.417969 419.011719 258.433594 419.324219 C 258.453125 419.636719 258.488281 419.949219 258.542969 420.257812 C 258.597656 420.566406 258.667969 420.871094 258.761719 421.171875 C 258.941406 421.703125 259.167969 422.214844 259.449219 422.699219 C 259.726562 423.1875 260.050781 423.640625 260.421875 424.066406 C 260.789062 424.488281 261.195312 424.871094 261.640625 425.214844 C 262.085938 425.554688 262.558594 425.851562 263.0625 426.101562 C 263.566406 426.351562 264.089844 426.546875 264.628906 426.695312 C 265.171875 426.839844 265.722656 426.933594 266.28125 426.96875 C 266.84375 427.007812 267.402344 426.988281 267.957031 426.917969 C 268.515625 426.84375 269.058594 426.71875 269.589844 426.535156 C 270.625 426.210938 271.539062 425.675781 272.332031 424.933594 C 273.125 424.191406 273.71875 423.316406 274.113281 422.304688 C 274.285156 421.847656 274.414062 421.378906 274.5 420.898438 C 274.585938 420.421875 274.628906 419.9375 274.628906 419.449219 C 274.632812 418.964844 274.589844 418.480469 274.503906 418 C 274.421875 417.523438 274.292969 417.054688 274.128906 416.597656 C 273.960938 416.140625 273.753906 415.699219 273.507812 415.28125 C 273.261719 414.859375 272.980469 414.464844 272.667969 414.09375 C 272.351562 413.722656 272.007812 413.382812 271.628906 413.074219 C 271.253906 412.761719 270.855469 412.488281 270.429688 412.25 Z M 270.429688 412.25 " fill-opacity="1" fill-rule="nonzero"/></g><g clip-path="url(#53aea45a4d)"><path fill="#2bf6ff" d="M 197.027344 385.421875 C 196.757812 384.929688 196.578125 384.40625 196.488281 383.851562 C 196.398438 383.296875 196.402344 382.742188 196.503906 382.191406 C 196.601562 381.636719 196.792969 381.117188 197.070312 380.628906 C 197.347656 380.140625 197.699219 379.714844 198.125 379.347656 C 200.164062 377.246094 202.132812 375.082031 204.136719 372.882812 C 204.3125 372.605469 204.515625 372.347656 204.742188 372.113281 C 204.96875 371.875 205.214844 371.664062 205.484375 371.476562 C 205.753906 371.289062 206.039062 371.128906 206.339844 371 C 206.640625 370.871094 206.953125 370.769531 207.273438 370.703125 C 207.59375 370.636719 207.917969 370.601562 208.246094 370.597656 C 208.574219 370.59375 208.898438 370.625 209.222656 370.6875 C 209.542969 370.75 209.855469 370.84375 210.160156 370.96875 C 210.460938 371.09375 210.75 371.246094 211.023438 371.429688 L 233.648438 346.894531 L 235.101562 348.15625 C 233.292969 350.386719 231.289062 352.359375 229.414062 354.425781 L 223.757812 360.535156 L 218.101562 366.773438 L 212.378906 372.914062 C 212.65625 373.210938 212.886719 373.539062 213.066406 373.902344 C 213.25 374.261719 213.375 374.644531 213.449219 375.042969 C 213.519531 375.441406 213.53125 375.839844 213.488281 376.242188 C 213.445312 376.644531 213.34375 377.035156 213.1875 377.40625 C 212.964844 378.007812 212.640625 378.546875 212.21875 379.023438 C 209.957031 381.578125 207.628906 384.066406 205.300781 386.554688 C 204.964844 386.96875 204.566406 387.316406 204.109375 387.597656 C 203.65625 387.875 203.164062 388.070312 202.640625 388.183594 C 202.117188 388.296875 201.589844 388.316406 201.0625 388.25 C 200.53125 388.179688 200.027344 388.023438 199.546875 387.78125 L 195.667969 392.082031 C 193.179688 394.796875 190.53125 397.382812 188.269531 400.292969 C 187.238281 401.523438 186.355469 402.859375 185.625 404.289062 C 184.894531 405.71875 184.332031 407.214844 183.9375 408.773438 C 183.542969 410.332031 183.328125 411.914062 183.289062 413.523438 C 183.25 415.128906 183.390625 416.71875 183.710938 418.292969 C 183.914062 419.304688 184.199219 420.292969 184.574219 421.253906 C 184.949219 422.214844 185.40625 423.132812 185.941406 424.015625 C 186.476562 424.894531 187.085938 425.722656 187.765625 426.496094 C 188.449219 427.273438 189.191406 427.980469 189.996094 428.625 C 190.800781 429.269531 191.65625 429.835938 192.5625 430.332031 C 193.464844 430.824219 194.40625 431.238281 195.386719 431.566406 C 196.363281 431.894531 197.359375 432.136719 198.378906 432.292969 C 199.398438 432.445312 200.425781 432.511719 201.457031 432.484375 C 202.964844 432.476562 204.457031 432.316406 205.9375 432.011719 C 207.414062 431.703125 208.847656 431.253906 210.234375 430.660156 C 211.621094 430.066406 212.9375 429.339844 214.179688 428.484375 C 215.421875 427.625 216.570312 426.652344 217.617188 425.566406 C 217.8125 425.382812 217.988281 425.179688 218.132812 424.953125 L 221.367188 419.394531 L 214.253906 419.910156 L 227.796875 409.664062 C 227.472656 411.113281 227.050781 412.535156 226.539062 413.929688 C 225.535156 417.164062 224.566406 420.136719 223.5625 423.207031 C 223.457031 423.621094 223.273438 424 223.015625 424.339844 C 220.457031 427.53125 217.441406 430.203125 213.964844 432.355469 C 212.535156 433.25 211.027344 433.988281 209.441406 434.566406 C 207.859375 435.144531 206.230469 435.554688 204.558594 435.789062 C 202.890625 436.027344 201.210938 436.085938 199.527344 435.972656 C 197.847656 435.855469 196.191406 435.566406 194.570312 435.101562 C 193.636719 434.863281 192.726562 434.558594 191.835938 434.183594 C 190.945312 433.8125 190.089844 433.375 189.265625 432.878906 C 188.4375 432.378906 187.652344 431.824219 186.910156 431.210938 C 186.164062 430.601562 185.46875 429.9375 184.820312 429.222656 C 184.175781 428.507812 183.582031 427.75 183.046875 426.949219 C 182.507812 426.148438 182.035156 425.3125 181.621094 424.441406 C 181.207031 423.570312 180.855469 422.675781 180.574219 421.753906 C 180.289062 420.832031 180.074219 419.894531 179.929688 418.941406 C 179.589844 417.21875 179.4375 415.476562 179.46875 413.71875 C 179.503906 411.964844 179.726562 410.230469 180.132812 408.519531 C 180.539062 406.8125 181.125 405.164062 181.882812 403.582031 C 182.644531 401.996094 183.566406 400.511719 184.648438 399.128906 C 186.652344 396.445312 189.011719 394.019531 191.273438 391.53125 C 192.859375 389.753906 194.507812 388.007812 196.15625 386.265625 C 196.46875 386.007812 196.761719 385.730469 197.027344 385.421875 Z M 197.027344 385.421875 " fill-opacity="1" fill-rule="nonzero"/></g></svg>