<svg xmlns="http://www.w3.org/2000/svg" xmlns:xlink="http://www.w3.org/1999/xlink" width="793" zoomAndPan="magnify" viewBox="0 0 594.95996 842.24997" height="1122" preserveAspectRatio="xMidYMid meet" version="1.0"><defs><clipPath id="7e3452171c"><path d="M 178.667969 333.886719 L 416.207031 333.886719 L 416.207031 506.980469 L 178.667969 506.980469 Z M 178.667969 333.886719 " clip-rule="nonzero"/></clipPath></defs><g clip-path="url(#7e3452171c)"><path fill="#2bf6ff" d="M 290.183594 333.972656 C 289.917969 334.0625 289.21875 334.0625 287.996094 334.0625 C 286.773438 334.0625 286.160156 334.0625 285.984375 334.234375 C 285.8125 334.410156 285.199219 334.5 283.976562 334.585938 C 282.75 334.671875 282.050781 334.847656 281.703125 335.023438 C 281.351562 335.199219 280.914062 335.285156 280.214844 335.285156 C 279.605469 335.285156 279.253906 335.371094 279.167969 335.460938 C 279.078125 335.632812 278.816406 335.722656 278.378906 335.722656 C 277.941406 335.722656 277.417969 335.984375 276.804688 336.246094 C 276.195312 336.507812 275.757812 336.683594 275.582031 336.683594 C 275.40625 336.683594 274.707031 336.945312 273.570312 337.558594 C 272.433594 338.171875 271.734375 338.433594 271.558594 338.433594 C 271.386719 338.433594 270.859375 338.695312 269.988281 339.21875 C 269.199219 339.742188 268.589844 340.007812 268.238281 340.09375 C 267.886719 340.179688 267.101562 340.617188 265.964844 341.578125 C 264.828125 342.542969 264.214844 342.980469 264.042969 342.980469 C 263.953125 342.980469 263.691406 343.152344 263.34375 343.589844 C 263.082031 343.941406 262.816406 344.203125 262.644531 344.203125 C 262.46875 344.203125 262.378906 344.289062 262.292969 344.464844 C 262.207031 344.640625 262.117188 344.726562 261.945312 344.726562 C 261.769531 344.726562 261.59375 344.902344 261.332031 345.164062 C 261.070312 345.425781 260.808594 345.6875 260.632812 345.777344 C 260.457031 345.863281 260.195312 346.039062 260.019531 346.386719 C 259.84375 346.738281 259.671875 346.914062 259.410156 347 C 259.144531 347.085938 259.058594 347.261719 258.882812 347.613281 C 258.707031 347.960938 258.621094 348.136719 258.359375 348.222656 C 258.097656 348.3125 257.835938 348.660156 257.398438 349.1875 C 257.046875 349.796875 256.699219 350.148438 256.523438 350.234375 C 256.347656 350.320312 256.171875 350.585938 256.085938 351.023438 C 256 351.371094 255.738281 351.808594 255.300781 352.246094 C 254.863281 352.683594 254.511719 353.207031 254.164062 353.820312 C 253.902344 354.429688 253.636719 354.78125 253.375 354.957031 C 253.113281 355.042969 252.9375 355.394531 252.765625 356.003906 C 252.589844 356.617188 252.414062 356.878906 252.328125 356.964844 C 252.238281 357.054688 252.066406 357.230469 251.976562 357.667969 C 251.890625 358.101562 251.714844 358.453125 251.363281 358.890625 C 251.015625 359.328125 250.929688 359.765625 250.929688 360.027344 C 250.929688 360.289062 250.839844 360.636719 250.578125 360.988281 C 250.316406 361.339844 250.230469 361.601562 250.230469 361.863281 C 250.230469 362.125 250.140625 362.210938 250.054688 362.300781 C 249.878906 362.386719 249.617188 363.085938 249.265625 364.308594 C 248.828125 365.621094 248.65625 366.410156 248.742188 366.847656 C 248.742188 367.195312 248.742188 367.632812 248.566406 368.15625 C 248.394531 368.59375 248.304688 369.03125 248.394531 369.292969 C 248.480469 369.554688 248.394531 369.90625 248.21875 370.253906 C 248.042969 370.691406 247.957031 371.128906 248.042969 371.742188 C 248.042969 372.355469 248.042969 372.703125 247.867188 372.964844 C 247.691406 373.226562 247.691406 373.402344 247.78125 373.664062 C 247.867188 373.839844 247.867188 374.453125 247.867188 375.589844 C 247.867188 376.726562 247.867188 377.25 247.78125 377.335938 C 247.691406 377.335938 247.691406 377.597656 247.867188 378.125 C 248.042969 378.5625 248.042969 379.171875 248.042969 379.785156 C 247.957031 380.484375 248.128906 381.269531 248.394531 382.234375 C 248.65625 383.195312 248.828125 383.980469 248.828125 384.332031 C 248.828125 384.679688 248.917969 385.207031 249.179688 385.816406 C 249.441406 386.429688 249.527344 386.777344 249.703125 386.867188 C 249.878906 386.953125 249.964844 387.304688 250.054688 388.003906 C 250.140625 388.703125 250.316406 389.050781 250.492188 389.226562 C 250.664062 389.402344 250.839844 389.578125 250.839844 389.839844 C 250.839844 390.101562 251.015625 390.363281 251.191406 390.886719 C 251.453125 391.414062 251.628906 391.585938 251.714844 391.585938 C 251.800781 391.585938 251.976562 392.023438 252.414062 392.898438 C 252.765625 393.773438 253.199219 394.472656 253.726562 394.910156 C 254.25 395.347656 254.511719 395.785156 254.601562 396.046875 C 254.601562 396.308594 255.035156 396.832031 255.910156 397.53125 C 256.699219 398.230469 257.222656 398.757812 257.398438 399.019531 C 257.484375 399.367188 257.746094 399.542969 258.183594 399.71875 C 258.621094 399.894531 258.972656 400.15625 259.410156 400.59375 C 259.757812 401.027344 260.195312 401.292969 260.542969 401.378906 C 260.894531 401.464844 261.15625 401.640625 261.417969 401.992188 C 261.679688 402.253906 262.207031 402.601562 263.167969 402.863281 C 264.128906 403.128906 264.742188 403.390625 265.089844 403.652344 C 265.441406 403.914062 266.050781 404.089844 267.015625 404.175781 C 267.976562 404.265625 268.589844 404.4375 269.023438 404.527344 C 269.375 404.699219 270.074219 404.789062 271.210938 404.789062 C 272.347656 404.789062 272.871094 404.699219 273.046875 404.613281 C 273.222656 404.527344 273.921875 404.351562 275.230469 404.265625 C 276.542969 404.089844 277.503906 404 278.03125 403.828125 C 278.640625 403.652344 279.078125 403.390625 279.339844 403.128906 C 279.605469 402.863281 280.039062 402.601562 280.476562 402.429688 C 280.914062 402.253906 281.265625 402.078125 281.527344 401.816406 C 281.789062 401.554688 281.964844 401.464844 282.140625 401.464844 C 282.226562 401.464844 282.664062 401.117188 283.277344 400.328125 C 283.976562 399.542969 284.5 399.019531 284.9375 398.757812 C 285.460938 398.492188 285.722656 398.144531 285.722656 397.792969 C 285.722656 397.445312 285.984375 397.09375 286.246094 396.832031 C 286.597656 396.570312 286.773438 396.222656 286.949219 395.695312 C 287.121094 395.171875 287.210938 394.910156 287.382812 394.734375 C 287.472656 394.558594 287.558594 394.210938 287.558594 393.683594 C 287.558594 393.074219 287.648438 392.550781 287.910156 392.023438 C 288.171875 391.5 288.171875 390.976562 288.082031 390.539062 C 287.910156 390.101562 287.910156 389.578125 287.910156 389.140625 C 287.910156 388.703125 287.910156 388.175781 287.734375 387.476562 C 287.558594 386.777344 287.296875 386.339844 287.035156 385.992188 C 286.773438 385.640625 286.597656 385.292969 286.597656 384.855469 C 286.597656 384.417969 286.335938 383.980469 285.984375 383.371094 C 285.636719 382.757812 285.460938 382.40625 285.460938 382.234375 C 285.460938 382.058594 285.375 381.796875 285.113281 381.535156 C 284.847656 381.269531 284.761719 381.007812 284.585938 380.570312 C 284.5 380.132812 284.238281 379.785156 283.886719 379.523438 C 283.625 379.261719 283.363281 378.996094 283.363281 378.648438 C 283.277344 378.386719 283.1875 378.125 282.925781 377.949219 C 282.664062 377.773438 282.574219 377.425781 282.488281 376.988281 C 282.402344 376.550781 282.3125 376.199219 282.140625 376.027344 C 281.964844 375.851562 281.964844 375.589844 281.964844 375.324219 C 281.964844 374.976562 281.875 374.800781 281.789062 374.714844 C 281.613281 374.625 281.527344 374.015625 281.351562 372.964844 C 281.265625 371.828125 281.265625 370.953125 281.527344 370.167969 C 281.789062 369.382812 282.050781 368.945312 282.226562 368.769531 C 282.488281 368.59375 282.574219 368.507812 282.664062 368.332031 C 282.664062 368.15625 282.925781 367.894531 283.363281 367.632812 C 283.710938 367.371094 283.976562 367.109375 283.976562 366.933594 C 283.976562 366.847656 284.0625 366.671875 284.324219 366.410156 C 284.585938 366.144531 284.847656 366.058594 285.113281 366.058594 C 285.375 365.972656 285.898438 365.710938 286.683594 365.183594 C 287.382812 364.660156 288.433594 364.222656 289.746094 363.960938 C 291.054688 363.699219 292.191406 363.699219 293.242188 363.960938 C 294.203125 364.222656 295.078125 364.746094 295.691406 365.359375 C 296.300781 365.972656 296.652344 366.320312 296.914062 366.320312 C 297.089844 366.320312 297.351562 366.496094 297.613281 366.757812 C 297.875 367.019531 298.136719 367.28125 298.136719 367.457031 C 298.226562 367.632812 298.3125 367.71875 298.488281 367.894531 C 298.664062 367.980469 298.925781 368.332031 299.1875 368.945312 C 299.449219 369.554688 299.625 369.90625 299.800781 369.90625 C 299.972656 369.992188 300.148438 370.253906 300.410156 370.867188 C 300.671875 371.390625 300.847656 372.089844 300.847656 372.878906 C 300.933594 373.664062 301.023438 374.191406 301.199219 374.539062 C 301.371094 374.800781 301.460938 375.324219 301.460938 376.113281 C 301.460938 376.8125 301.371094 377.949219 301.109375 379.523438 C 300.847656 381.097656 300.585938 381.882812 300.410156 382.058594 C 300.234375 382.144531 300.0625 382.667969 299.886719 383.457031 C 299.710938 384.332031 299.449219 384.855469 299.097656 385.207031 C 298.75 385.554688 298.574219 385.90625 298.488281 386.167969 C 298.398438 386.429688 298.3125 386.867188 298.136719 387.214844 C 297.875 387.566406 297.699219 387.828125 297.527344 387.914062 C 297.351562 388.003906 297.175781 388.265625 296.914062 388.789062 C 296.652344 389.3125 296.390625 389.664062 296.039062 389.925781 C 295.691406 390.1875 295.339844 390.625 295.078125 391.148438 C 294.726562 391.675781 294.203125 392.460938 293.328125 393.335938 C 292.457031 394.210938 292.019531 394.734375 292.019531 394.910156 C 292.019531 395.085938 291.667969 395.519531 291.054688 396.222656 C 290.355469 396.921875 290.09375 397.355469 290.09375 397.445312 C 290.09375 397.53125 290.007812 397.707031 289.746094 397.792969 C 289.484375 397.96875 289.21875 398.230469 289.046875 398.582031 C 288.785156 399.019531 288.609375 399.28125 288.347656 399.367188 C 288.082031 399.457031 287.820312 399.71875 287.558594 400.15625 C 287.210938 400.503906 286.949219 401.027344 286.597656 401.730469 C 286.246094 402.429688 285.898438 402.863281 285.546875 403.128906 C 285.113281 403.476562 284.761719 403.914062 284.5 404.4375 C 284.238281 404.964844 283.886719 405.402344 283.539062 405.75 C 283.1875 406.011719 283.011719 406.273438 283.011719 406.535156 C 283.011719 406.800781 282.925781 407.0625 282.664062 407.5 C 282.402344 407.9375 282.3125 408.109375 282.140625 408.199219 C 282.050781 408.285156 281.789062 408.460938 281.527344 408.898438 C 281.265625 409.335938 281.089844 409.597656 281.003906 409.945312 C 280.914062 410.296875 280.738281 410.472656 280.566406 410.558594 C 280.390625 410.644531 280.214844 410.910156 280.128906 411.257812 C 280.039062 411.609375 279.867188 411.871094 279.691406 411.957031 C 279.515625 412.042969 279.339844 412.480469 279.167969 413.179688 C 278.992188 413.878906 278.640625 414.582031 278.03125 415.453125 C 277.417969 416.242188 277.15625 416.851562 277.066406 417.378906 C 276.980469 417.902344 276.894531 418.253906 276.71875 418.425781 C 276.542969 418.601562 276.28125 419.214844 276.105469 420.175781 C 275.933594 421.136719 275.667969 422.1875 275.230469 423.410156 C 274.796875 424.546875 274.621094 425.332031 274.707031 425.683594 C 274.707031 426.03125 274.707031 426.382812 274.53125 426.820312 C 274.359375 427.257812 274.359375 428.742188 274.359375 431.453125 C 274.445312 434.164062 274.53125 435.738281 274.707031 436.085938 C 274.882812 436.4375 274.96875 436.785156 274.882812 437.136719 C 274.882812 437.484375 274.96875 437.921875 275.144531 438.359375 C 275.40625 438.882812 275.496094 439.410156 275.496094 440.019531 C 275.496094 440.632812 275.667969 441.507812 276.105469 442.554688 C 276.542969 443.691406 276.894531 444.480469 277.15625 444.917969 C 277.417969 445.441406 277.59375 445.792969 277.59375 445.964844 C 277.59375 446.140625 277.941406 446.839844 278.554688 447.890625 C 279.253906 448.9375 279.691406 449.550781 279.953125 449.8125 C 280.214844 450.074219 280.476562 450.25 280.476562 450.425781 C 280.476562 450.597656 280.566406 450.6875 280.738281 450.773438 C 280.914062 450.863281 281.175781 451.125 281.703125 451.734375 C 282.226562 452.347656 282.488281 452.699219 282.664062 452.699219 C 282.839844 452.699219 283.011719 452.871094 283.277344 453.136719 C 283.539062 453.484375 283.976562 453.746094 284.5 453.921875 C 285.023438 454.183594 285.375 454.359375 285.636719 454.621094 C 285.898438 454.882812 286.335938 454.972656 287.121094 454.972656 C 287.910156 455.058594 288.433594 455.058594 288.785156 455.234375 C 289.046875 455.320312 289.484375 455.40625 289.917969 455.40625 C 290.355469 455.40625 290.621094 455.320312 290.621094 455.320312 C 290.707031 455.234375 290.96875 455.144531 291.667969 455.058594 C 292.367188 454.972656 292.71875 454.882812 292.890625 454.707031 C 293.066406 454.535156 293.242188 454.535156 293.417969 454.535156 C 293.589844 454.535156 294.117188 454.359375 294.902344 454.007812 C 295.691406 453.660156 296.128906 453.308594 296.390625 453.046875 C 296.5625 452.785156 296.738281 452.609375 297 452.609375 C 297.261719 452.523438 297.527344 452.433594 297.789062 452.171875 C 298.050781 451.910156 298.398438 451.5625 298.664062 451.125 C 298.925781 450.6875 299.273438 450.335938 299.625 449.988281 C 300.0625 449.636719 300.234375 449.375 300.324219 449.027344 C 300.410156 448.675781 300.585938 448.5 300.761719 448.328125 C 301.023438 448.152344 301.109375 447.976562 301.109375 447.800781 C 301.109375 447.628906 301.285156 447.453125 301.546875 447.191406 C 301.808594 446.925781 301.984375 446.578125 302.160156 445.964844 C 302.335938 445.355469 302.597656 444.65625 303.035156 443.957031 C 303.472656 443.253906 303.734375 442.554688 303.734375 442.121094 C 303.820312 441.59375 303.90625 441.246094 304.082031 440.894531 C 304.257812 440.546875 304.433594 440.109375 304.433594 439.496094 C 304.519531 438.796875 304.605469 438.449219 304.695312 438.449219 C 304.78125 438.449219 304.871094 438.011719 304.871094 437.3125 C 304.957031 436.523438 305.042969 436 305.21875 435.648438 C 305.394531 435.300781 305.480469 434.863281 305.394531 434.339844 C 305.394531 433.8125 305.394531 433.375 305.480469 433.027344 C 305.570312 432.675781 305.570312 432.328125 305.480469 432.066406 C 305.394531 431.714844 305.394531 431.539062 305.480469 431.367188 C 305.570312 431.191406 305.570312 430.753906 305.570312 429.96875 C 305.480469 429.179688 305.570312 428.742188 305.65625 428.65625 C 305.742188 428.566406 305.742188 428.132812 305.65625 427.433594 C 305.570312 426.730469 305.570312 425.859375 305.570312 424.894531 C 305.570312 423.933594 305.570312 423.234375 305.65625 422.886719 C 305.742188 422.625 305.742188 422.273438 305.65625 421.925781 C 305.570312 421.574219 305.570312 421.136719 305.570312 420.523438 C 305.570312 419.914062 305.570312 419.5625 305.65625 419.5625 C 305.742188 419.5625 305.742188 418.953125 305.742188 417.902344 C 305.742188 416.851562 305.742188 415.890625 305.917969 415.28125 C 306.09375 414.667969 306.179688 414.144531 306.09375 413.792969 C 306.09375 413.445312 306.09375 412.917969 306.269531 412.132812 C 306.355469 411.34375 306.53125 410.910156 306.617188 410.820312 C 306.707031 410.734375 306.96875 410.035156 307.316406 408.898438 C 307.667969 407.761719 308.015625 406.886719 308.542969 406.1875 C 308.980469 405.488281 309.242188 405.050781 309.242188 404.875 C 309.242188 404.699219 309.503906 404.351562 309.941406 403.914062 C 310.378906 403.476562 310.640625 403.214844 310.640625 403.039062 C 310.640625 402.953125 310.902344 402.515625 311.515625 401.730469 C 312.039062 401.027344 312.476562 400.59375 312.824219 400.417969 C 313.085938 400.242188 313.785156 399.628906 314.75 398.492188 C 315.710938 397.355469 316.410156 396.65625 316.933594 396.308594 C 317.457031 396.046875 318.160156 395.433594 318.945312 394.648438 C 319.730469 393.859375 320.167969 393.335938 320.167969 393.160156 C 320.167969 392.984375 320.519531 392.636719 320.957031 392.375 C 321.394531 392.113281 321.742188 391.761719 321.917969 391.414062 C 322.09375 391.0625 322.265625 390.886719 322.441406 390.800781 C 322.617188 390.800781 322.878906 390.539062 323.140625 390.101562 C 323.492188 389.75 323.753906 389.226562 324.015625 388.703125 C 324.277344 388.175781 324.628906 387.652344 325.152344 387.214844 C 325.675781 386.777344 325.9375 386.429688 325.9375 386.078125 C 325.9375 385.730469 326.113281 385.46875 326.375 385.292969 C 326.636719 385.117188 326.8125 384.855469 326.8125 384.59375 C 326.8125 384.332031 327.074219 383.894531 327.425781 383.457031 C 327.773438 383.019531 327.949219 382.667969 328.039062 382.320312 C 328.125 381.96875 328.210938 381.882812 328.300781 381.796875 C 328.386719 381.707031 328.472656 381.621094 328.472656 381.445312 C 328.472656 381.269531 328.738281 380.746094 329.175781 379.871094 C 329.609375 378.996094 329.875 378.296875 329.875 377.863281 C 329.875 377.425781 329.960938 376.898438 330.222656 376.375 C 330.484375 375.851562 330.574219 375.414062 330.660156 374.976562 C 330.746094 374.625 330.746094 374.191406 330.746094 373.753906 C 330.746094 373.316406 330.746094 372.964844 330.921875 372.617188 C 331.011719 372.351562 331.097656 371.828125 331.011719 371.042969 C 330.921875 370.34375 330.835938 369.46875 330.835938 368.417969 C 330.835938 367.457031 330.921875 366.757812 331.011719 366.496094 C 331.097656 366.234375 331.097656 365.882812 330.835938 365.535156 C 330.660156 365.183594 330.484375 364.398438 330.398438 363.171875 C 330.308594 361.949219 330.136719 361.25 330.046875 361.074219 C 329.875 360.902344 329.785156 360.375 329.699219 359.589844 C 329.523438 358.714844 329.4375 358.277344 329.261719 358.191406 C 329.085938 358.101562 328.910156 357.753906 328.824219 357.054688 C 328.648438 356.355469 328.5625 355.917969 328.386719 355.917969 C 328.210938 355.828125 327.863281 355.128906 327.25 353.730469 C 326.636719 352.332031 326.113281 351.457031 325.765625 350.933594 C 325.414062 350.410156 325.066406 350.234375 324.976562 350.234375 C 324.800781 350.234375 324.628906 349.972656 324.453125 349.449219 C 324.277344 348.921875 323.929688 348.398438 323.402344 347.960938 C 322.878906 347.523438 322.703125 347.261719 322.703125 347.085938 C 322.703125 346.914062 322.441406 346.648438 321.832031 346.214844 C 321.304688 345.863281 320.34375 344.988281 319.121094 343.765625 C 317.894531 342.542969 317.023438 341.753906 316.496094 341.578125 C 315.972656 341.40625 315.710938 341.140625 315.535156 340.96875 C 315.449219 340.792969 315.1875 340.617188 314.921875 340.53125 C 314.660156 340.441406 314.488281 340.355469 314.488281 340.179688 C 314.398438 340.007812 314.136719 339.917969 313.613281 339.742188 C 313.085938 339.570312 312.738281 339.394531 312.5625 339.132812 C 312.386719 338.871094 312.039062 338.695312 311.515625 338.605469 C 310.988281 338.433594 310.640625 338.34375 310.378906 338.171875 C 310.113281 337.996094 309.941406 337.90625 309.679688 337.90625 C 309.414062 337.90625 309.152344 337.734375 308.714844 337.46875 C 308.367188 337.207031 307.492188 336.859375 306.007812 336.597656 C 304.605469 336.335938 303.558594 335.984375 303.035156 335.722656 C 302.507812 335.460938 301.898438 335.285156 301.371094 335.285156 C 300.847656 335.285156 300.410156 335.199219 300.148438 335.109375 C 299.972656 335.023438 299.625 334.933594 299.097656 334.933594 C 298.574219 334.933594 297.964844 334.847656 297.175781 334.585938 C 296.476562 334.324219 295.253906 334.234375 293.589844 334.234375 C 291.40625 333.886719 290.445312 333.886719 290.183594 333.972656 Z M 206.867188 370.34375 C 206.777344 370.429688 206.515625 370.519531 205.992188 370.605469 C 205.464844 370.691406 204.855469 370.691406 204.15625 370.691406 C 203.457031 370.691406 202.929688 370.78125 202.496094 371.042969 C 202.058594 371.304688 201.707031 371.390625 201.269531 371.390625 C 200.921875 371.390625 200.394531 371.480469 199.785156 371.828125 C 199.171875 372.179688 198.558594 372.441406 198.035156 372.527344 C 197.511719 372.617188 197.074219 372.789062 196.722656 372.964844 C 196.375 373.226562 196.199219 373.316406 196.023438 373.316406 C 195.851562 373.316406 195.675781 373.402344 195.5 373.664062 C 195.324219 373.925781 194.800781 374.191406 194.101562 374.539062 C 193.402344 374.890625 192.527344 375.414062 191.914062 376.113281 C 191.214844 376.8125 190.777344 377.160156 190.515625 377.25 C 190.253906 377.25 190.167969 377.335938 190.167969 377.511719 C 190.078125 377.6875 189.992188 377.773438 189.730469 377.863281 C 189.46875 377.949219 189.03125 378.386719 188.417969 379.261719 C 187.71875 380.046875 187.195312 380.660156 186.671875 381.097656 C 186.144531 381.445312 185.796875 381.882812 185.707031 382.234375 C 185.621094 382.582031 185.359375 382.933594 185.007812 383.195312 C 184.570312 383.457031 184.398438 383.804688 184.308594 384.070312 C 184.222656 384.332031 184.132812 384.59375 183.871094 384.769531 C 183.609375 384.941406 183.523438 385.207031 183.433594 385.46875 C 183.347656 385.730469 183.261719 385.90625 183.171875 385.90625 C 183.085938 385.90625 183 385.992188 183 386.253906 C 183 386.515625 182.910156 386.605469 182.734375 386.691406 C 182.5625 386.777344 182.472656 387.214844 182.296875 387.914062 C 182.125 388.613281 181.949219 389.140625 181.773438 389.402344 C 181.597656 389.664062 181.511719 389.839844 181.425781 390.101562 C 181.335938 390.363281 181.25 390.625 180.988281 390.800781 C 180.726562 390.976562 180.550781 391.585938 180.460938 392.636719 C 180.375 393.683594 180.199219 394.296875 180.027344 394.734375 C 179.851562 395.085938 179.675781 395.695312 179.589844 396.394531 C 179.5 397.09375 179.414062 397.53125 179.238281 397.707031 C 179.152344 397.882812 179.0625 398.757812 179.0625 400.417969 C 179.0625 402.078125 178.976562 402.953125 178.890625 403.214844 C 178.800781 403.476562 178.714844 403.652344 178.714844 403.914062 C 178.714844 404.175781 178.800781 404.4375 178.890625 404.613281 C 179.0625 404.789062 179.0625 405.3125 179.0625 406.1875 C 178.976562 407.0625 178.976562 408.023438 179.0625 408.898438 C 179.0625 409.859375 179.152344 410.472656 179.328125 410.734375 C 179.5 410.996094 179.5 411.34375 179.5 411.78125 C 179.5 412.21875 179.589844 412.746094 179.851562 413.355469 C 180.113281 413.96875 180.375 414.929688 180.550781 416.152344 C 180.636719 417.378906 180.898438 418.253906 181.164062 418.6875 C 181.425781 419.125 181.597656 419.738281 181.863281 420.523438 C 182.035156 421.3125 182.386719 422.097656 182.824219 422.796875 C 183.261719 423.585938 183.609375 424.195312 183.785156 424.894531 C 183.960938 425.597656 184.222656 426.03125 184.484375 426.382812 C 184.835938 426.644531 184.921875 426.996094 184.921875 427.34375 C 184.921875 427.605469 185.007812 427.867188 185.359375 428.042969 C 185.621094 428.21875 185.796875 428.480469 185.882812 428.742188 C 185.96875 429.09375 186.144531 429.269531 186.496094 429.53125 C 186.84375 429.792969 187.195312 430.230469 187.632812 430.929688 C 188.070312 431.628906 188.417969 432.066406 188.59375 432.066406 C 188.855469 432.152344 189.207031 432.503906 189.816406 433.203125 C 190.429688 433.902344 190.777344 434.25 191.128906 434.339844 C 191.480469 434.425781 191.566406 434.511719 191.566406 434.601562 C 191.566406 434.6875 191.652344 434.777344 192.003906 434.949219 C 192.265625 435.039062 192.441406 435.125 192.703125 435.125 C 192.878906 435.125 193.050781 435.300781 193.316406 435.5625 C 193.578125 435.824219 193.839844 436 194.101562 436 C 194.449219 436.085938 194.714844 436.261719 195.0625 436.523438 C 195.324219 436.785156 196.023438 437.046875 197.160156 437.136719 C 198.296875 437.222656 198.910156 437.398438 199.171875 437.574219 C 199.433594 437.746094 200.394531 437.835938 201.96875 437.660156 C 203.628906 437.574219 205.03125 437.3125 206.339844 436.875 C 207.652344 436.4375 208.351562 436.085938 208.527344 435.910156 C 208.703125 435.738281 208.964844 435.648438 209.226562 435.5625 C 209.488281 435.476562 209.664062 435.386719 209.75 435.300781 C 209.839844 435.210938 210.101562 435.039062 210.539062 434.863281 C 210.972656 434.6875 211.238281 434.425781 211.410156 434.164062 C 211.585938 433.902344 211.9375 433.550781 212.546875 433.113281 C 213.160156 432.675781 213.511719 432.328125 213.511719 432.066406 C 213.511719 431.804688 213.683594 431.628906 213.859375 431.539062 C 214.035156 431.453125 214.121094 431.277344 214.296875 431.015625 C 214.382812 430.753906 214.558594 430.492188 214.910156 430.230469 C 215.171875 429.96875 215.347656 429.617188 215.347656 429.179688 C 215.347656 428.742188 215.433594 428.304688 215.695312 427.867188 C 215.957031 427.433594 215.957031 426.382812 215.78125 424.808594 C 215.695312 423.148438 215.257812 421.660156 214.644531 420.351562 C 214.035156 419.039062 213.511719 418.164062 213.160156 417.726562 C 212.722656 417.378906 212.546875 417.027344 212.546875 416.941406 C 212.546875 416.851562 212.285156 416.417969 211.761719 415.714844 C 211.238281 415.015625 210.800781 414.582031 210.363281 414.316406 C 209.925781 414.054688 209.664062 413.617188 209.402344 413.09375 C 209.136719 412.570312 208.875 412.132812 208.527344 411.957031 C 208.265625 411.78125 208.089844 411.609375 208.089844 411.519531 C 208.175781 411.433594 208.089844 411.257812 207.914062 411.082031 C 207.738281 410.910156 207.652344 410.644531 207.476562 410.382812 C 207.390625 410.035156 207.300781 409.859375 207.128906 409.859375 C 207.039062 409.773438 206.867188 409.683594 206.777344 409.421875 C 206.691406 409.160156 206.515625 408.984375 206.339844 408.808594 C 206.167969 408.636719 206.078125 408.371094 205.992188 407.847656 C 205.902344 407.324219 205.730469 407.0625 205.554688 406.800781 C 205.378906 406.535156 205.292969 406.101562 205.292969 405.402344 C 205.292969 404.699219 205.203125 404.265625 205.117188 404 C 205.03125 403.738281 205.117188 403.214844 205.554688 402.253906 C 205.902344 401.292969 206.167969 400.765625 206.253906 400.765625 C 206.339844 400.679688 206.515625 400.503906 206.601562 400.066406 C 206.777344 399.628906 206.953125 399.28125 207.300781 398.929688 C 207.652344 398.582031 208.265625 398.320312 209.226562 398.144531 C 210.1875 397.882812 210.800781 397.882812 210.972656 398.058594 C 211.238281 398.230469 211.410156 398.320312 211.761719 398.230469 C 212.023438 398.144531 212.546875 398.320312 213.160156 398.582031 C 213.859375 398.84375 214.296875 399.105469 214.472656 399.367188 C 214.734375 399.628906 214.910156 400.066406 215.082031 400.59375 C 215.257812 401.117188 215.433594 401.464844 215.609375 401.554688 C 215.78125 401.640625 215.871094 401.902344 216.046875 402.339844 C 216.132812 402.691406 216.21875 402.953125 216.394531 403.039062 C 216.480469 403.128906 216.65625 403.390625 216.746094 403.914062 C 216.832031 404.4375 217.007812 404.789062 217.183594 405.050781 C 217.355469 405.3125 217.617188 406.363281 217.882812 408.109375 C 218.230469 409.945312 218.40625 410.820312 218.492188 410.820312 C 218.582031 410.910156 218.582031 411.082031 218.492188 411.34375 C 218.40625 411.609375 218.40625 412.042969 218.582031 412.480469 C 218.753906 412.917969 218.753906 413.707031 218.753906 414.753906 C 218.753906 415.804688 218.84375 416.417969 218.929688 416.503906 C 219.105469 416.679688 219.105469 417.203125 219.105469 418.253906 C 219.105469 419.214844 219.019531 420.351562 218.84375 421.660156 C 218.667969 422.886719 218.582031 424.632812 218.492188 426.90625 C 218.492188 429.179688 218.316406 430.492188 218.144531 431.105469 C 217.96875 431.628906 217.882812 432.238281 217.792969 432.675781 C 217.792969 433.113281 217.792969 433.550781 217.882812 433.8125 C 217.96875 434.164062 217.96875 434.339844 217.882812 434.339844 C 217.792969 434.425781 217.792969 434.6875 217.792969 435.386719 C 217.792969 436.085938 217.707031 436.4375 217.617188 436.523438 C 217.53125 436.613281 217.53125 437.046875 217.707031 437.835938 C 217.792969 438.621094 217.882812 439.058594 217.792969 439.234375 C 217.707031 439.320312 217.617188 439.847656 217.617188 440.632812 C 217.617188 441.421875 217.617188 442.121094 217.792969 442.644531 C 217.96875 443.167969 217.96875 443.691406 217.882812 444.304688 C 217.792969 444.917969 217.792969 445.265625 217.882812 445.527344 C 218.054688 445.703125 218.144531 446.054688 218.230469 446.664062 C 218.316406 447.191406 218.40625 447.890625 218.40625 448.765625 C 218.40625 449.636719 218.582031 450.601562 219.019531 451.734375 C 219.453125 452.871094 219.628906 453.570312 219.542969 453.921875 C 219.453125 454.269531 219.542969 454.535156 219.71875 454.882812 C 219.890625 455.144531 219.980469 455.582031 220.066406 455.933594 C 220.152344 456.28125 220.242188 456.632812 220.417969 456.808594 C 220.589844 456.980469 220.679688 457.242188 220.765625 457.679688 C 220.855469 458.117188 220.941406 458.46875 221.203125 458.644531 C 221.464844 458.816406 221.640625 459.253906 221.816406 459.867188 C 221.988281 460.480469 222.253906 460.828125 222.515625 461.003906 C 222.777344 461.179688 223.039062 461.527344 223.214844 461.964844 C 223.390625 462.488281 223.5625 462.75 223.738281 462.839844 C 223.914062 462.925781 224.089844 463.1875 224.175781 463.714844 C 224.351562 464.152344 224.527344 464.5 224.875 464.761719 C 225.226562 465.023438 225.398438 465.289062 225.574219 465.722656 C 225.75 466.160156 226.011719 466.511719 226.273438 466.773438 C 226.535156 467.035156 226.796875 467.210938 226.972656 467.210938 C 227.234375 467.296875 227.410156 467.472656 227.761719 467.910156 C 228.109375 468.347656 228.371094 468.609375 228.546875 468.609375 C 228.722656 468.609375 229.070312 468.871094 229.332031 469.394531 C 229.597656 469.921875 229.945312 470.183594 230.296875 470.269531 C 230.644531 470.359375 230.996094 470.53125 231.257812 470.882812 C 231.519531 471.144531 231.871094 471.320312 232.042969 471.40625 C 232.21875 471.496094 232.394531 471.582031 232.480469 471.757812 C 232.570312 471.929688 232.917969 472.105469 233.617188 472.457031 C 234.316406 472.804688 234.667969 472.980469 234.753906 473.15625 C 234.839844 473.332031 235.191406 473.59375 235.890625 473.855469 C 236.589844 474.203125 237.027344 474.292969 237.464844 474.292969 C 237.8125 474.292969 238.511719 474.46875 239.386719 474.816406 C 240.261719 475.167969 240.960938 475.339844 241.660156 475.253906 C 242.273438 475.167969 242.710938 475.167969 242.796875 475.339844 C 242.972656 475.429688 243.234375 475.515625 243.585938 475.515625 C 243.933594 475.515625 244.109375 475.515625 244.195312 475.429688 C 244.285156 475.339844 244.632812 475.253906 245.332031 475.253906 C 246.03125 475.253906 246.90625 474.992188 247.957031 474.46875 C 249.003906 473.941406 249.703125 473.503906 250.140625 473.15625 C 250.578125 472.804688 250.753906 472.457031 250.839844 472.195312 C 250.929688 471.929688 251.015625 471.84375 251.191406 471.84375 C 251.363281 471.84375 251.453125 471.582031 251.539062 471.144531 C 251.628906 470.707031 251.976562 470.183594 252.5 469.394531 C 253.113281 468.609375 253.289062 467.996094 253.289062 467.558594 C 253.199219 467.125 253.375 466.335938 253.636719 465.199219 C 253.902344 464.0625 254.074219 463.015625 253.988281 462.050781 C 253.988281 461.089844 253.988281 460.304688 254.074219 459.605469 C 254.164062 458.90625 254.164062 458.554688 253.988281 458.378906 C 253.902344 458.207031 253.8125 457.769531 253.8125 457.15625 C 253.8125 456.542969 253.726562 456.109375 253.636719 456.019531 C 253.464844 455.84375 253.464844 455.757812 253.464844 455.582031 C 253.550781 455.40625 253.464844 455.234375 253.289062 455.058594 C 253.199219 454.882812 252.9375 454.007812 252.5 452.523438 C 252.066406 450.949219 251.800781 450.074219 251.539062 449.8125 C 251.277344 449.550781 251.277344 449.375 251.277344 449.289062 C 251.363281 449.199219 251.277344 449.113281 251.191406 448.9375 C 251.015625 448.851562 250.839844 448.414062 250.578125 447.628906 C 250.316406 446.839844 250.140625 446.492188 250.054688 446.492188 C 249.964844 446.492188 249.964844 446.492188 249.878906 446.492188 C 249.878906 446.402344 249.878906 446.316406 249.878906 446.316406 C 249.878906 446.226562 249.792969 445.964844 249.527344 445.792969 C 249.265625 445.617188 249.179688 445.355469 249.179688 445.179688 C 249.179688 445.003906 249.09375 444.828125 248.828125 444.566406 C 248.566406 444.304688 248.480469 444.042969 248.394531 443.691406 C 248.304688 443.34375 248.128906 442.992188 247.691406 442.730469 C 247.34375 442.46875 247.082031 442.121094 246.992188 441.59375 C 246.90625 441.070312 246.558594 440.632812 246.03125 440.195312 C 245.59375 439.757812 245.332031 439.410156 245.246094 439.058594 C 245.246094 438.796875 244.808594 438.097656 244.109375 437.046875 C 243.410156 436.085938 242.972656 435.300781 242.796875 434.6875 C 242.621094 434.164062 242.359375 433.640625 241.921875 433.203125 C 241.574219 432.765625 241.3125 432.238281 241.222656 431.539062 C 241.136719 430.839844 240.960938 430.402344 240.699219 430.140625 C 240.4375 429.878906 240.261719 429.53125 240.261719 429.179688 C 240.261719 428.832031 240.085938 428.042969 239.738281 427.082031 C 239.386719 426.121094 239.214844 425.332031 239.300781 424.894531 C 239.386719 424.460938 239.300781 424.195312 239.214844 424.023438 C 239.039062 423.847656 239.039062 423.585938 239.039062 423.324219 C 239.039062 423.058594 239.039062 422.886719 238.863281 422.710938 C 238.6875 422.535156 238.6875 422.273438 238.6875 421.835938 C 238.777344 421.398438 238.6875 421.050781 238.601562 420.789062 C 238.511719 420.523438 238.511719 420.175781 238.6875 419.824219 C 238.863281 419.476562 238.863281 418.425781 238.777344 416.851562 C 238.6875 415.191406 238.6875 414.316406 238.777344 414.230469 C 238.863281 414.054688 238.863281 413.878906 238.863281 413.53125 C 238.777344 413.179688 238.863281 412.832031 239.039062 412.570312 C 239.214844 412.308594 239.214844 411.957031 239.214844 411.609375 C 239.214844 411.257812 239.300781 410.996094 239.386719 410.910156 C 239.476562 410.820312 239.476562 410.644531 239.386719 410.382812 C 239.300781 410.121094 239.214844 409.683594 239.214844 409.160156 C 239.214844 408.636719 239.300781 408.199219 239.386719 408.023438 C 239.476562 407.847656 239.476562 407.324219 239.476562 406.535156 C 239.476562 405.75 239.476562 405.136719 239.648438 404.964844 C 239.824219 404.789062 239.824219 404.4375 239.824219 404 C 239.738281 403.652344 239.824219 403.300781 239.914062 402.953125 C 240 402.691406 240 402.429688 239.824219 402.164062 C 239.648438 401.902344 239.648438 401.554688 239.648438 401.117188 C 239.738281 400.59375 239.648438 399.980469 239.476562 399.28125 C 239.300781 398.582031 239.300781 398.058594 239.386719 397.707031 C 239.476562 397.355469 239.476562 397.183594 239.300781 397.007812 C 239.214844 396.832031 239.039062 396.394531 239.039062 395.609375 C 238.949219 394.910156 238.863281 394.210938 238.601562 393.597656 C 238.339844 392.984375 238.25 392.550781 238.25 392.199219 C 238.25 391.847656 238.164062 391.585938 237.988281 391.414062 C 237.8125 391.238281 237.640625 390.976562 237.640625 390.625 C 237.640625 390.277344 237.550781 390.011719 237.289062 389.664062 C 237.027344 389.3125 236.941406 389.050781 236.941406 388.789062 C 236.941406 388.527344 236.765625 388.265625 236.503906 387.914062 C 236.152344 387.476562 235.976562 387.128906 235.890625 386.691406 C 235.804688 386.253906 235.542969 385.816406 235.105469 385.292969 C 234.667969 384.769531 234.40625 384.332031 234.230469 383.894531 C 234.054688 383.457031 233.878906 383.195312 233.617188 383.019531 C 233.355469 382.84375 233.09375 382.582031 232.832031 381.96875 C 232.570312 381.359375 232.21875 381.097656 232.042969 381.007812 C 231.871094 380.921875 231.605469 380.746094 231.34375 380.484375 C 231.082031 380.222656 230.996094 380.046875 230.820312 380.046875 C 230.644531 380.046875 230.558594 379.871094 230.296875 379.433594 C 230.035156 378.996094 229.769531 378.824219 229.421875 378.734375 C 229.070312 378.648438 228.632812 378.296875 228.109375 377.597656 C 227.585938 376.898438 227.234375 376.636719 226.972656 376.636719 C 226.710938 376.636719 226.535156 376.550781 226.363281 376.289062 C 226.1875 376.027344 225.835938 375.851562 225.3125 375.589844 C 224.789062 375.324219 224.351562 375.0625 224 374.714844 C 223.652344 374.363281 223.390625 373.839844 223.039062 373.753906 C 222.691406 373.664062 222.253906 373.488281 221.726562 373.140625 C 221.289062 372.789062 220.589844 372.527344 219.890625 372.355469 C 219.191406 372.179688 218.40625 371.917969 217.792969 371.566406 C 217.09375 371.21875 216.746094 371.042969 216.570312 371.128906 C 216.394531 371.128906 216.046875 371.042969 215.609375 370.867188 C 215.171875 370.691406 214.734375 370.605469 214.296875 370.605469 C 213.859375 370.691406 213.683594 370.605469 213.597656 370.519531 C 213.511719 370.429688 213.074219 370.34375 212.199219 370.34375 C 211.324219 370.34375 210.800781 370.34375 210.710938 370.167969 C 210.539062 370.082031 210.1875 370.082031 209.574219 370.167969 C 208.875 370.253906 208.351562 370.253906 207.828125 370.167969 C 207.214844 370.253906 206.953125 370.253906 206.867188 370.34375 Z M 373.671875 372.703125 C 373.410156 372.878906 372.539062 372.964844 370.964844 373.140625 C 369.390625 373.316406 368.601562 373.402344 368.601562 373.488281 C 368.601562 373.578125 368.429688 373.664062 368.253906 373.664062 C 367.992188 373.664062 367.816406 373.753906 367.640625 373.925781 C 367.464844 374.101562 367.117188 374.191406 366.417969 374.277344 C 365.71875 374.363281 365.195312 374.539062 364.757812 374.800781 C 364.230469 375.0625 363.882812 375.238281 363.53125 375.238281 C 363.183594 375.324219 362.65625 375.5 361.871094 375.9375 C 361.171875 376.375 360.734375 376.636719 360.734375 376.726562 C 360.734375 376.8125 360.734375 376.8125 360.734375 376.898438 C 360.558594 376.898438 360.386719 376.898438 360.296875 376.898438 C 360.035156 376.898438 359.773438 376.988281 359.597656 377.25 C 359.511719 377.511719 358.898438 377.863281 357.9375 378.386719 C 356.976562 378.910156 356.101562 379.523438 355.578125 380.046875 C 355.050781 380.660156 354.527344 381.097656 354.089844 381.359375 C 353.652344 381.621094 353.304688 381.96875 353.042969 382.40625 C 352.777344 382.84375 352.515625 383.105469 352.167969 383.28125 C 351.816406 383.457031 351.46875 383.804688 351.117188 384.242188 C 350.769531 384.679688 350.417969 385.117188 350.242188 385.46875 C 350.070312 385.816406 349.804688 386.167969 349.457031 386.429688 C 349.105469 386.691406 348.933594 386.867188 348.933594 387.128906 C 348.933594 387.304688 348.757812 387.742188 348.40625 388.351562 C 348.058594 389.050781 347.707031 389.488281 347.359375 389.839844 C 347.007812 390.1875 346.835938 390.449219 346.746094 390.800781 C 346.660156 391.148438 346.570312 391.5 346.398438 391.847656 C 346.222656 392.199219 346.132812 392.375 346.046875 392.375 C 345.960938 392.375 345.871094 392.636719 345.871094 393.074219 C 345.871094 393.597656 345.609375 394.121094 345.261719 394.734375 C 344.910156 395.347656 344.648438 396.65625 344.472656 398.492188 C 344.296875 400.417969 344.296875 401.464844 344.386719 401.640625 C 344.472656 401.816406 344.648438 402.339844 344.648438 403.128906 C 344.734375 403.914062 344.734375 404.351562 344.824219 404.351562 C 344.910156 404.351562 345.085938 404.527344 345.261719 404.875 C 345.523438 405.226562 345.699219 405.75 345.960938 406.449219 C 346.222656 407.148438 346.398438 407.585938 346.660156 407.671875 C 346.921875 407.761719 347.183594 408.109375 347.445312 408.546875 C 347.707031 408.984375 348.320312 409.507812 349.195312 410.035156 C 350.15625 410.558594 350.769531 410.820312 351.207031 410.910156 C 351.554688 410.996094 351.90625 411.082031 352.167969 411.171875 C 352.429688 411.34375 352.691406 411.34375 353.042969 411.34375 C 353.390625 411.34375 353.566406 411.257812 353.652344 411.171875 C 353.742188 411.082031 353.828125 411.082031 354.089844 411.171875 C 354.351562 411.257812 354.527344 411.257812 354.527344 411.171875 C 354.613281 411.082031 354.878906 411.082031 355.488281 411.082031 C 356.015625 411.171875 356.625 410.996094 357.148438 410.734375 C 357.675781 410.472656 358.199219 410.296875 358.550781 410.296875 C 358.898438 410.296875 359.160156 410.121094 359.335938 409.945312 C 359.511719 409.683594 359.949219 409.507812 360.558594 409.246094 C 361.171875 408.984375 361.523438 408.808594 361.609375 408.546875 C 361.695312 408.285156 361.957031 408.109375 362.308594 408.023438 C 362.65625 407.9375 362.832031 407.671875 362.921875 407.5 C 363.007812 407.324219 363.183594 407.148438 363.53125 406.972656 C 363.882812 406.800781 364.320312 406.363281 364.929688 405.488281 C 365.542969 404.613281 366.15625 403.914062 366.941406 403.390625 C 367.640625 402.863281 368.078125 402.429688 368.164062 402.164062 C 368.253906 401.816406 368.429688 401.730469 368.515625 401.730469 C 368.691406 401.730469 368.777344 401.554688 368.953125 401.292969 C 369.128906 400.941406 369.390625 400.765625 369.652344 400.59375 C 369.914062 400.503906 370.265625 400.242188 370.613281 399.894531 C 370.875 399.542969 371.136719 399.367188 371.3125 399.367188 C 371.488281 399.367188 371.664062 399.28125 371.75 399.191406 C 371.925781 399.019531 372.363281 399.019531 373.238281 399.105469 C 374.109375 399.191406 374.636719 399.367188 374.898438 399.542969 C 375.160156 399.71875 375.335938 399.804688 375.507812 399.71875 C 375.597656 399.628906 375.773438 399.71875 375.859375 399.894531 C 375.945312 399.980469 376.121094 400.066406 376.296875 400.066406 C 376.472656 400.066406 376.820312 400.242188 377.082031 400.503906 C 377.34375 400.765625 377.609375 401.117188 377.78125 401.464844 C 377.871094 401.816406 378.046875 401.992188 378.21875 402.078125 C 378.394531 402.164062 378.480469 402.253906 378.570312 402.429688 C 378.65625 402.601562 378.746094 402.777344 378.917969 402.863281 C 379.09375 402.953125 379.179688 403.214844 379.179688 403.476562 C 379.179688 403.738281 379.269531 404 379.53125 404.351562 C 379.792969 404.699219 379.882812 404.964844 379.882812 405.136719 C 379.882812 405.3125 379.882812 405.75 380.054688 406.273438 C 380.230469 406.886719 380.230469 407.671875 380.054688 408.808594 C 379.882812 409.945312 379.707031 410.558594 379.617188 410.644531 C 379.53125 410.734375 379.445312 410.910156 379.445312 410.996094 C 379.445312 411.082031 379.269531 411.519531 379.007812 412.042969 C 378.746094 412.570312 378.308594 413.09375 377.871094 413.53125 C 377.433594 413.96875 377.082031 414.230469 376.820312 414.316406 C 376.558594 414.40625 376.382812 414.582031 376.210938 414.929688 C 376.035156 415.191406 375.859375 415.453125 375.683594 415.453125 C 375.421875 415.542969 375.160156 415.714844 374.722656 416.152344 C 374.375 416.589844 374.023438 416.765625 373.761719 416.851562 C 373.5 416.941406 373.324219 417.027344 373.0625 417.289062 C 372.886719 417.550781 372.625 417.640625 372.1875 417.816406 C 371.75 417.988281 371.402344 418.164062 371.226562 418.339844 C 371.050781 418.515625 370.789062 418.601562 370.527344 418.601562 C 370.265625 418.515625 369.914062 418.6875 369.476562 419.039062 C 369.039062 419.386719 368.515625 419.652344 367.902344 419.738281 C 367.292969 419.914062 366.941406 420 366.855469 420.089844 C 366.765625 420.261719 366.503906 420.261719 366.15625 420.261719 C 365.894531 420.261719 365.457031 420.351562 364.929688 420.613281 C 364.40625 420.875 363.96875 420.960938 363.707031 420.960938 C 363.359375 420.960938 363.09375 421.050781 362.832031 421.222656 C 362.570312 421.398438 361.957031 421.574219 360.996094 421.660156 C 360.035156 421.75 359.511719 421.925781 359.421875 422.011719 C 359.335938 422.097656 359.160156 422.1875 358.984375 422.1875 C 358.8125 422.1875 358.460938 422.273438 358.113281 422.535156 C 357.675781 422.796875 357.238281 422.886719 356.714844 422.886719 C 356.1875 422.886719 355.839844 422.972656 355.75 423.148438 C 355.664062 423.324219 355.402344 423.410156 355.140625 423.410156 C 354.878906 423.410156 354.703125 423.496094 354.527344 423.585938 C 354.351562 423.671875 353.742188 423.933594 352.515625 424.371094 C 351.292969 424.722656 350.59375 425.070312 350.417969 425.332031 C 350.242188 425.597656 349.894531 425.683594 349.542969 425.769531 C 349.195312 425.859375 348.933594 426.03125 348.667969 426.121094 C 348.40625 426.296875 348.234375 426.382812 347.96875 426.382812 C 347.707031 426.382812 347.445312 426.558594 347.269531 426.730469 C 347.007812 426.996094 346.832031 427.167969 346.570312 427.167969 C 346.308594 427.167969 346.132812 427.34375 345.960938 427.605469 C 345.785156 427.867188 345.523438 428.042969 345.171875 428.132812 C 344.824219 428.21875 344.386719 428.480469 343.863281 428.917969 C 343.335938 429.355469 342.8125 429.703125 342.289062 429.878906 C 341.761719 430.140625 341.238281 430.492188 340.800781 431.015625 C 340.363281 431.539062 340.015625 431.804688 339.753906 431.890625 C 339.488281 431.976562 339.226562 432.152344 339.054688 432.503906 C 338.789062 432.851562 338.617188 433.027344 338.355469 433.113281 C 338.089844 433.203125 338.003906 433.375 337.828125 433.726562 C 337.742188 433.988281 337.390625 434.339844 336.953125 434.601562 C 336.519531 434.863281 336.167969 435.210938 335.992188 435.5625 C 335.730469 436 335.554688 436.175781 335.292969 436.261719 C 335.03125 436.347656 334.855469 436.613281 334.59375 437.046875 C 334.332031 437.484375 334.070312 437.746094 333.894531 437.921875 C 333.632812 438.011719 333.457031 438.359375 333.195312 438.796875 C 332.933594 439.234375 332.671875 439.582031 332.320312 439.933594 C 331.972656 440.195312 331.710938 440.632812 331.445312 441.070312 C 331.183594 441.507812 330.921875 441.855469 330.574219 442.292969 C 330.222656 442.644531 329.960938 442.992188 329.875 443.429688 C 329.785156 443.867188 329.523438 444.21875 329.175781 444.480469 C 328.910156 444.742188 328.648438 445.089844 328.472656 445.441406 C 328.300781 445.792969 328.125 446.226562 327.863281 446.664062 C 327.601562 447.101562 327.601562 447.453125 327.601562 447.628906 C 327.601562 447.714844 327.511719 447.976562 327.339844 448.238281 C 327.074219 448.5 326.988281 448.761719 327.074219 449.113281 C 327.164062 449.464844 326.988281 449.898438 326.550781 450.597656 C 326.203125 451.300781 325.9375 451.910156 325.9375 452.347656 C 325.9375 452.785156 325.851562 453.222656 325.675781 453.484375 C 325.503906 453.746094 325.414062 454.097656 325.414062 454.535156 C 325.414062 454.972656 325.328125 455.234375 325.328125 455.40625 C 325.238281 455.582031 325.152344 456.457031 325.152344 458.207031 C 325.152344 459.953125 325.238281 461.089844 325.503906 461.789062 C 325.765625 462.488281 325.851562 463.015625 325.765625 463.363281 C 325.675781 463.714844 325.851562 464.0625 326.113281 464.238281 C 326.375 464.5 326.550781 464.761719 326.550781 465.113281 C 326.636719 465.460938 326.726562 465.636719 326.988281 465.898438 C 327.25 466.160156 327.425781 466.511719 327.601562 467.035156 C 327.773438 467.558594 328.125 467.996094 328.5625 468.171875 C 329 468.433594 329.347656 468.785156 329.785156 469.222656 C 330.136719 469.660156 330.921875 470.09375 332.234375 470.621094 C 333.546875 471.144531 334.945312 471.320312 336.34375 471.320312 C 337.742188 471.320312 339.226562 471.058594 340.976562 470.621094 C 342.636719 470.09375 343.6875 469.660156 344.125 469.308594 C 344.5625 468.957031 345.085938 468.523438 345.785156 468.257812 C 346.484375 467.910156 347.097656 467.386719 347.796875 466.6875 C 348.496094 465.898438 349.019531 465.550781 349.28125 465.460938 C 349.632812 465.375 349.894531 465.113281 350.242188 464.5 C 350.59375 463.976562 350.855469 463.714844 351.03125 463.625 C 351.207031 463.539062 351.46875 463.363281 351.730469 463.101562 C 351.992188 462.75 352.167969 462.578125 352.167969 462.402344 C 352.167969 462.226562 352.339844 461.964844 352.777344 461.441406 C 353.214844 460.914062 353.566406 460.480469 354.003906 460.214844 C 354.351562 459.953125 354.613281 459.691406 354.703125 459.34375 C 354.789062 458.992188 354.964844 458.816406 355.226562 458.644531 C 355.488281 458.46875 355.839844 458.117188 356.1875 457.59375 C 356.625 457.070312 356.800781 456.71875 356.800781 456.457031 C 356.800781 456.195312 356.886719 456.105469 357.0625 456.019531 C 357.238281 455.933594 357.585938 455.496094 358.023438 454.621094 C 358.460938 453.835938 358.8125 453.308594 359.160156 453.046875 C 359.511719 452.785156 359.683594 452.523438 359.773438 452.261719 C 359.859375 452 360.121094 451.5625 360.472656 451.210938 C 360.820312 450.863281 360.996094 450.511719 360.996094 450.25 C 360.996094 449.988281 361.085938 449.898438 361.171875 449.898438 C 361.347656 449.8125 361.519531 449.550781 361.957031 448.9375 C 362.308594 448.414062 362.570312 447.976562 362.65625 447.714844 C 362.65625 447.453125 362.832031 447.191406 363.09375 446.925781 C 363.355469 446.664062 363.53125 446.402344 363.53125 446.226562 C 363.621094 445.964844 363.707031 445.878906 363.96875 445.703125 C 364.230469 445.617188 364.667969 444.917969 365.367188 443.691406 C 366.066406 442.554688 366.59375 441.855469 366.855469 441.769531 C 367.117188 441.683594 367.292969 441.507812 367.464844 441.15625 C 367.640625 440.808594 367.816406 440.632812 368.078125 440.546875 C 368.339844 440.457031 368.691406 440.109375 369.128906 439.582031 C 369.566406 438.972656 370 438.621094 370.4375 438.449219 C 370.875 438.273438 371.136719 438.097656 371.3125 437.835938 C 371.488281 437.574219 371.75 437.398438 372.273438 437.222656 C 372.800781 437.046875 373.0625 436.875 373.148438 436.785156 C 373.238281 436.699219 373.671875 436.523438 374.546875 436.347656 C 375.335938 436.175781 375.859375 436 375.945312 435.910156 C 376.035156 435.738281 376.644531 435.648438 377.957031 435.648438 C 379.179688 435.5625 379.878906 435.476562 379.96875 435.386719 C 380.054688 435.300781 380.316406 435.210938 380.753906 435.210938 C 381.191406 435.210938 381.367188 435.210938 381.453125 435.125 C 381.542969 435.039062 382.066406 435.039062 383.027344 435.125 C 384.078125 435.210938 384.601562 435.210938 384.777344 435.125 C 384.953125 435.039062 385.652344 435.039062 386.875 435.039062 C 388.097656 435.039062 388.710938 435.039062 388.796875 434.949219 C 388.886719 434.863281 389.671875 434.777344 391.246094 434.777344 C 392.820312 434.6875 393.78125 434.601562 394.21875 434.425781 C 394.566406 434.164062 395.179688 434.074219 395.878906 434.074219 C 396.667969 433.988281 397.191406 433.902344 397.453125 433.640625 C 397.714844 433.375 398.238281 433.289062 398.941406 433.203125 C 399.640625 433.113281 400.164062 432.941406 400.425781 432.765625 C 400.6875 432.589844 401.125 432.414062 401.5625 432.328125 C 402 432.238281 402.261719 432.066406 402.4375 431.890625 C 402.613281 431.714844 402.875 431.539062 403.398438 431.367188 C 403.835938 431.277344 404.183594 431.105469 404.273438 430.929688 C 404.359375 430.753906 404.621094 430.578125 404.972656 430.578125 C 405.320312 430.492188 405.847656 430.054688 406.546875 429.355469 C 407.246094 428.566406 407.855469 428.042969 408.46875 427.695312 C 408.992188 427.257812 409.34375 426.996094 409.429688 426.820312 C 409.429688 426.644531 409.691406 426.382812 410.128906 425.945312 C 410.566406 425.597656 410.917969 425.160156 411.09375 424.722656 C 411.265625 424.285156 411.441406 423.933594 411.792969 423.761719 C 412.054688 423.585938 412.226562 423.410156 412.226562 423.148438 C 412.226562 422.886719 412.402344 422.710938 412.664062 422.449219 C 412.925781 422.1875 413.101562 421.835938 413.277344 421.222656 C 413.453125 420.699219 413.628906 420.175781 413.976562 419.738281 C 414.328125 419.300781 414.5 418.777344 414.675781 418.078125 C 414.851562 417.378906 415.027344 417.117188 415.113281 417.117188 C 415.199219 417.117188 415.289062 416.851562 415.289062 416.328125 C 415.375 415.804688 415.464844 415.28125 415.726562 414.84375 C 415.988281 414.40625 416.074219 413.878906 415.988281 413.445312 C 415.988281 413.007812 416.074219 412.132812 416.25 410.910156 C 416.425781 409.683594 416.511719 408.808594 416.425781 408.546875 C 416.335938 408.199219 416.25 407.148438 416.25 405.402344 C 416.164062 403.566406 416.074219 402.601562 415.898438 402.429688 C 415.726562 402.253906 415.636719 401.992188 415.8125 401.554688 C 415.898438 401.203125 415.726562 400.59375 415.375 399.894531 C 415.027344 399.191406 414.851562 398.582031 414.761719 398.058594 C 414.675781 397.53125 414.589844 397.007812 414.328125 396.570312 C 414.0625 396.132812 413.976562 395.785156 413.976562 395.609375 C 413.976562 395.433594 413.890625 395.171875 413.714844 395.085938 C 413.539062 394.910156 413.453125 394.734375 413.363281 394.386719 C 413.277344 394.035156 413.191406 393.859375 413.101562 393.773438 C 413.015625 393.683594 412.925781 393.511719 412.925781 393.335938 C 412.925781 393.160156 412.839844 392.8125 412.578125 392.460938 C 412.316406 392.113281 412.140625 391.847656 411.878906 391.585938 C 411.617188 391.324219 411.355469 390.976562 411.179688 390.449219 C 411.003906 389.925781 410.566406 389.3125 409.957031 388.441406 C 409.34375 387.652344 408.992188 387.042969 408.820312 386.691406 C 408.644531 386.339844 408.46875 385.992188 408.121094 385.816406 C 407.769531 385.640625 407.59375 385.46875 407.59375 385.207031 C 407.507812 384.941406 407.332031 384.769531 406.894531 384.59375 C 406.457031 384.417969 406.195312 384.15625 406.109375 383.894531 C 405.933594 383.632812 405.671875 383.195312 405.234375 382.757812 C 404.796875 382.320312 404.359375 381.96875 403.921875 381.796875 C 403.484375 381.621094 403.046875 381.183594 402.613281 380.746094 C 402.175781 380.308594 401.824219 380.046875 401.5625 379.960938 C 401.300781 379.960938 400.863281 379.609375 400.339844 379.085938 C 399.8125 378.5625 399.203125 378.210938 398.675781 378.035156 C 398.152344 377.863281 397.628906 377.511719 397.015625 377.074219 C 396.492188 376.550781 395.792969 376.199219 395.003906 375.9375 C 394.21875 375.675781 393.78125 375.414062 393.605469 375.238281 C 393.433594 375.0625 393.257812 374.890625 393.082031 374.976562 C 392.90625 375.0625 392.121094 374.714844 390.546875 374.191406 C 389.0625 373.578125 388.273438 373.402344 388.097656 373.402344 C 387.925781 373.488281 387.75 373.402344 387.660156 373.316406 C 387.574219 373.140625 387.3125 373.054688 386.960938 373.054688 C 386.699219 372.964844 386.351562 372.964844 386.089844 373.054688 C 385.824219 373.140625 385.476562 373.054688 385.125 372.878906 C 384.777344 372.703125 384.425781 372.617188 383.988281 372.703125 C 383.640625 372.703125 383.027344 372.703125 382.328125 372.527344 C 381.628906 372.355469 380.753906 372.265625 379.96875 372.355469 C 379.179688 372.441406 378.65625 372.355469 378.570312 372.265625 C 378.394531 372.179688 378.046875 372.089844 377.519531 372.089844 C 376.996094 372.089844 376.382812 372.179688 375.859375 372.265625 C 375.335938 372.355469 374.898438 372.355469 374.636719 372.265625 C 374.199219 372.617188 373.9375 372.617188 373.671875 372.703125 Z M 283.976562 462.664062 C 283.710938 462.75 283.363281 462.839844 282.75 462.839844 C 282.140625 462.839844 281.703125 462.925781 281.265625 463.015625 C 280.828125 463.1875 280.566406 463.277344 280.476562 463.363281 C 280.390625 463.539062 280.039062 463.714844 279.429688 463.976562 C 278.816406 464.238281 278.46875 464.5 278.378906 464.675781 C 278.292969 464.851562 278.117188 465.023438 277.769531 465.023438 C 277.417969 465.113281 276.980469 465.550781 276.457031 466.25 C 275.84375 467.035156 275.582031 467.472656 275.496094 467.734375 C 275.40625 467.996094 275.230469 468.171875 275.058594 468.347656 C 274.796875 468.433594 274.621094 468.695312 274.359375 469.046875 C 274.097656 469.394531 274.007812 469.832031 273.921875 470.359375 C 273.832031 470.882812 273.660156 471.230469 273.570312 471.40625 C 273.394531 471.582031 273.308594 472.105469 273.222656 472.804688 C 273.132812 473.59375 273.046875 474.203125 272.960938 474.554688 C 272.871094 474.902344 272.785156 475.515625 272.871094 476.390625 C 272.960938 477.265625 273.132812 477.964844 273.484375 478.664062 C 273.832031 479.363281 273.921875 479.800781 273.921875 480.0625 C 273.921875 480.324219 274.097656 480.761719 274.53125 481.285156 C 274.882812 481.898438 275.230469 482.246094 275.582031 482.421875 C 275.84375 482.597656 276.105469 482.859375 276.28125 483.121094 C 276.457031 483.382812 276.632812 483.644531 277.066406 483.820312 C 277.417969 483.996094 277.855469 484.257812 278.203125 484.519531 C 278.554688 484.871094 278.992188 485.046875 279.429688 485.132812 C 279.953125 485.21875 280.304688 485.394531 280.652344 485.570312 C 281.003906 485.746094 281.441406 486.007812 282.226562 486.269531 C 283.011719 486.53125 283.539062 486.53125 283.976562 486.355469 C 284.410156 486.183594 285.023438 486.09375 285.722656 486.183594 C 286.421875 486.269531 287.121094 486.183594 287.820312 486.007812 C 288.519531 485.832031 289.21875 485.480469 290.09375 484.871094 C 290.96875 484.257812 291.492188 483.820312 291.582031 483.644531 C 291.667969 483.382812 292.105469 482.859375 292.980469 481.984375 C 293.855469 481.109375 294.464844 480.324219 294.816406 479.625 C 295.164062 478.925781 295.425781 478.3125 295.601562 477.875 C 295.777344 477.4375 295.863281 476.828125 295.691406 476.214844 C 295.601562 475.601562 295.691406 475.078125 295.863281 474.554688 C 296.039062 474.117188 296.128906 473.15625 295.953125 471.84375 C 295.863281 470.445312 295.691406 469.394531 295.339844 468.695312 C 295.078125 467.996094 294.640625 467.296875 294.203125 466.6875 C 293.765625 466.160156 293.242188 465.636719 292.542969 465.285156 C 291.84375 464.9375 291.320312 464.585938 290.882812 464.152344 C 290.445312 463.714844 290.09375 463.539062 289.65625 463.539062 C 289.21875 463.539062 288.957031 463.449219 288.695312 463.1875 C 288.433594 462.925781 287.648438 462.75 286.246094 462.578125 C 284.847656 462.402344 284.238281 462.578125 283.976562 462.664062 Z M 319.03125 476.652344 C 318.507812 476.828125 317.722656 477.265625 316.671875 477.964844 C 315.710938 478.664062 315.011719 479.011719 314.660156 479.101562 C 314.398438 479.1875 314.136719 479.273438 313.960938 479.539062 C 313.875 479.800781 313.613281 480.0625 313.175781 480.324219 C 312.738281 480.585938 312.5625 480.847656 312.476562 481.023438 C 312.386719 481.199219 312.125 481.546875 311.601562 481.984375 C 311.078125 482.511719 310.816406 482.773438 310.726562 483.035156 C 310.640625 483.296875 310.550781 483.382812 310.378906 483.472656 C 310.203125 483.558594 309.765625 484.171875 309.152344 485.308594 C 308.542969 486.445312 308.191406 487.144531 308.191406 487.40625 C 308.191406 487.667969 308.015625 488.105469 307.753906 488.71875 C 307.40625 489.328125 307.230469 490.203125 307.054688 491.339844 C 306.878906 492.476562 306.878906 493.089844 306.96875 493.261719 C 307.144531 493.4375 307.144531 493.789062 307.144531 494.3125 C 307.054688 494.925781 307.144531 495.625 307.316406 496.585938 C 307.492188 497.546875 307.753906 498.246094 308.015625 498.597656 C 308.277344 498.945312 308.542969 499.382812 308.714844 499.996094 C 308.890625 500.519531 309.152344 501.042969 309.589844 501.480469 C 310.027344 501.917969 310.203125 502.269531 310.289062 502.441406 C 310.378906 502.617188 310.550781 502.878906 310.816406 503.054688 C 311.078125 503.230469 311.425781 503.492188 311.6875 503.929688 C 311.949219 504.277344 312.300781 504.628906 312.652344 504.804688 C 313 504.976562 313.351562 505.152344 313.523438 505.414062 C 313.699219 505.679688 313.960938 505.765625 314.222656 505.765625 C 314.488281 505.765625 314.75 505.941406 314.835938 506.027344 C 314.921875 506.113281 315.1875 506.289062 315.621094 506.378906 C 316.058594 506.464844 316.324219 506.550781 316.324219 506.640625 C 316.410156 506.726562 316.585938 506.726562 317.023438 506.726562 C 317.457031 506.726562 317.632812 506.8125 317.722656 506.902344 C 317.808594 506.988281 318.070312 507.078125 318.507812 507.164062 C 319.03125 507.25 319.46875 507.25 319.90625 507.164062 C 320.429688 507.078125 321.042969 507.078125 321.832031 507.164062 C 322.617188 507.25 323.140625 507.25 323.316406 507.078125 C 323.492188 506.902344 323.667969 506.8125 323.839844 506.902344 C 324.015625 506.988281 324.628906 506.726562 325.675781 506.289062 C 326.726562 505.851562 327.339844 505.503906 327.511719 505.328125 C 327.6875 505.152344 327.949219 504.976562 328.300781 504.804688 C 328.648438 504.628906 328.910156 504.453125 329 504.367188 C 329.085938 504.191406 329.261719 504.105469 329.785156 503.929688 C 330.308594 503.753906 330.574219 503.492188 330.746094 503.140625 C 330.921875 502.792969 331.183594 502.53125 331.445312 502.355469 C 331.796875 502.179688 331.972656 501.917969 331.972656 501.65625 C 332.058594 501.394531 332.234375 501.042969 332.582031 500.695312 C 332.933594 500.34375 333.371094 499.734375 333.808594 498.945312 C 334.246094 498.160156 334.507812 497.460938 334.59375 496.933594 C 334.683594 496.496094 334.769531 496.0625 335.03125 495.625 C 335.292969 495.273438 335.46875 494.835938 335.46875 494.488281 C 335.46875 494.136719 335.554688 493.875 335.644531 493.613281 C 335.816406 493.351562 335.816406 493.089844 335.816406 492.5625 C 335.730469 492.039062 335.816406 491.777344 335.90625 491.601562 C 335.992188 491.515625 335.992188 491.164062 335.992188 490.640625 C 335.90625 490.117188 335.992188 489.765625 336.082031 489.503906 C 336.167969 489.242188 336.082031 488.890625 335.90625 488.28125 C 335.730469 487.667969 335.554688 487.144531 335.554688 486.792969 C 335.554688 486.355469 335.46875 486.183594 335.382812 486.09375 C 335.292969 486.007812 335.117188 485.832031 335.03125 485.394531 C 334.855469 485.046875 334.683594 484.695312 334.332031 484.519531 C 333.984375 484.257812 333.808594 483.996094 333.808594 483.820312 C 333.808594 483.644531 333.371094 483.035156 332.671875 482.160156 C 331.972656 481.285156 331.535156 480.761719 331.359375 480.761719 C 331.183594 480.761719 330.746094 480.410156 330.136719 479.800781 C 329.523438 479.1875 328.738281 478.664062 327.773438 478.226562 C 326.8125 477.789062 326.289062 477.527344 326.203125 477.351562 C 326.113281 477.265625 325.589844 477.089844 324.628906 476.828125 C 323.667969 476.566406 322.617188 476.476562 321.566406 476.476562 C 320.519531 476.476562 319.558594 476.476562 319.03125 476.652344 Z M 248.65625 479.449219 C 248.394531 479.625 248.21875 479.800781 248.042969 480.148438 C 247.867188 480.5 247.691406 480.675781 247.34375 480.847656 C 246.992188 481.109375 246.730469 481.199219 246.558594 481.199219 C 246.382812 481.199219 245.855469 481.546875 245.070312 482.421875 C 244.285156 483.210938 243.933594 483.734375 243.933594 484.082031 C 243.933594 484.347656 243.757812 484.871094 243.320312 485.480469 C 242.972656 486.183594 242.710938 486.707031 242.621094 487.144531 C 242.535156 487.667969 242.535156 488.542969 242.710938 489.765625 C 242.886719 491.078125 242.972656 491.863281 243.148438 492.300781 C 243.320312 492.738281 243.496094 493.089844 243.847656 493.261719 C 244.195312 493.4375 244.371094 493.875 244.722656 494.488281 C 244.984375 495.011719 245.507812 495.625 246.207031 496.148438 C 246.90625 496.671875 247.429688 496.933594 247.691406 497.109375 C 247.957031 497.199219 248.21875 497.371094 248.394531 497.546875 C 248.566406 497.722656 249.09375 497.984375 250.054688 498.246094 C 251.015625 498.507812 252.066406 498.507812 253.113281 498.421875 C 254.25 498.332031 255.386719 497.984375 256.523438 497.460938 C 257.660156 496.933594 258.359375 496.496094 258.535156 496.234375 C 258.707031 495.972656 258.882812 495.796875 259.144531 495.710938 C 259.410156 495.625 259.496094 495.449219 259.671875 495.097656 C 259.84375 494.75 260.019531 494.574219 260.28125 494.398438 C 260.542969 494.226562 260.71875 493.960938 260.71875 493.527344 C 260.71875 493.175781 260.980469 492.738281 261.246094 492.476562 C 261.507812 492.125 261.679688 491.863281 261.59375 491.515625 C 261.59375 491.164062 261.59375 490.902344 261.769531 490.726562 C 261.945312 490.554688 261.945312 490.289062 261.945312 489.855469 C 261.855469 489.417969 261.945312 489.066406 262.117188 488.71875 C 262.207031 488.453125 262.207031 487.667969 262.03125 486.53125 C 261.855469 485.394531 261.417969 484.257812 260.632812 483.210938 C 259.84375 482.160156 259.320312 481.375 258.882812 481.023438 C 258.535156 480.675781 258.097656 480.410156 257.746094 480.324219 C 257.398438 480.238281 257.046875 480.0625 256.785156 479.886719 C 256.4375 479.625 256.171875 479.539062 255.824219 479.539062 C 255.472656 479.539062 255.300781 479.449219 255.125 479.363281 C 254.949219 479.1875 253.902344 479.1875 251.890625 479.1875 C 249.878906 479.1875 248.917969 479.273438 248.65625 479.449219 Z M 248.65625 479.449219 " fill-opacity="1" fill-rule="nonzero"/></g><path fill="#38b6ff" d="M 286.792969 241.167969 C 200.035156 242.117188 130.472656 313.234375 131.429688 399.992188 C 132.375 486.738281 203.484375 556.304688 290.246094 555.351562 C 322.285156 555.003906 353.453125 544.855469 379.574219 526.28125 L 469.300781 615.988281 C 479.574219 626.128906 496.140625 626.023438 506.28125 615.738281 C 516.316406 605.5625 516.316406 589.195312 506.28125 579.007812 L 416.550781 489.300781 C 466.839844 418.601562 450.277344 320.515625 379.574219 270.222656 C 352.488281 250.980469 320.011719 240.800781 286.792969 241.167969 Z M 284.902344 268.355469 C 356.550781 266.355469 416.257812 322.804688 418.261719 394.464844 C 418.289062 395.722656 418.316406 396.984375 418.316406 398.238281 C 418.34375 469.914062 360.257812 528.046875 288.589844 528.085938 C 216.914062 528.113281 158.777344 470.039062 158.746094 398.359375 C 158.746094 398.320312 158.746094 398.289062 158.746094 398.246094 C 158.667969 327.925781 214.601562 270.324219 284.902344 268.355469 Z M 284.902344 268.355469 " fill-opacity="1" fill-rule="nonzero"/><path fill="#38b6ff" d="M 253.492188 301.996094 C 260.597656 299.457031 268.414062 303.144531 270.960938 310.25 C 273.488281 317.300781 269.867188 325.078125 262.835938 327.679688 C 233.164062 338.480469 213.414062 366.683594 213.414062 398.253906 C 213.414062 405.804688 207.296875 411.921875 199.753906 411.921875 C 192.207031 411.921875 186.089844 405.804688 186.089844 398.253906 C 186.09375 355.195312 213.023438 316.722656 253.492188 301.996094 Z M 253.492188 301.996094 " fill-opacity="1" fill-rule="nonzero"/></svg>