<svg xmlns="http://www.w3.org/2000/svg" xmlns:xlink="http://www.w3.org/1999/xlink" width="793" zoomAndPan="magnify" viewBox="0 0 594.95996 842.24997" height="1122" preserveAspectRatio="xMidYMid meet" version="1.0"><defs><clipPath id="59460ba078"><path d="M 178.667969 276.65625 L 416.207031 276.65625 L 416.207031 564.351562 L 178.667969 564.351562 Z M 178.667969 276.65625 " clip-rule="nonzero"/></clipPath><clipPath id="ac79e405fe"><path d="M 275 267 L 343 267 L 343 334 L 275 334 Z M 275 267 " clip-rule="nonzero"/></clipPath><clipPath id="4903186634"><path d="M 286.066406 254.890625 L 442.902344 312.546875 L 393.519531 446.878906 L 236.679688 389.222656 Z M 286.066406 254.890625 " clip-rule="nonzero"/></clipPath><clipPath id="d77c6f3dfe"><path d="M 286.066406 254.890625 L 442.902344 312.546875 L 393.519531 446.878906 L 236.679688 389.222656 Z M 286.066406 254.890625 " clip-rule="nonzero"/></clipPath><clipPath id="b4a92c14ad"><path d="M 300 295 L 313 295 L 313 306 L 300 306 Z M 300 295 " clip-rule="nonzero"/></clipPath><clipPath id="230abf3882"><path d="M 286.066406 254.890625 L 442.902344 312.546875 L 393.519531 446.878906 L 236.679688 389.222656 Z M 286.066406 254.890625 " clip-rule="nonzero"/></clipPath><clipPath id="fd92a50935"><path d="M 286.066406 254.890625 L 442.902344 312.546875 L 393.519531 446.878906 L 236.679688 389.222656 Z M 286.066406 254.890625 " clip-rule="nonzero"/></clipPath><clipPath id="1ec6cac4ed"><path d="M 307 300 L 308 300 L 308 301 L 307 301 Z M 307 300 " clip-rule="nonzero"/></clipPath><clipPath id="f22681ab95"><path d="M 286.066406 254.890625 L 442.902344 312.546875 L 393.519531 446.878906 L 236.679688 389.222656 Z M 286.066406 254.890625 " clip-rule="nonzero"/></clipPath><clipPath id="43fc6e9ef9"><path d="M 286.066406 254.890625 L 442.902344 312.546875 L 393.519531 446.878906 L 236.679688 389.222656 Z M 286.066406 254.890625 " clip-rule="nonzero"/></clipPath><clipPath id="7329c92ede"><path d="M 393 334 L 401 334 L 401 342 L 393 342 Z M 393 334 " clip-rule="nonzero"/></clipPath><clipPath id="60765463cc"><path d="M 286.066406 254.890625 L 442.902344 312.546875 L 393.519531 446.878906 L 236.679688 389.222656 Z M 286.066406 254.890625 " clip-rule="nonzero"/></clipPath><clipPath id="00085e0f09"><path d="M 286.066406 254.890625 L 442.902344 312.546875 L 393.519531 446.878906 L 236.679688 389.222656 Z M 286.066406 254.890625 " clip-rule="nonzero"/></clipPath><clipPath id="5b7cc8e9b4"><path d="M 367 308 L 431 308 L 431 371 L 367 371 Z M 367 308 " clip-rule="nonzero"/></clipPath><clipPath id="6d205e1e59"><path d="M 286.066406 254.890625 L 442.902344 312.546875 L 393.519531 446.878906 L 236.679688 389.222656 Z M 286.066406 254.890625 " clip-rule="nonzero"/></clipPath><clipPath id="06bc28df64"><path d="M 286.066406 254.890625 L 442.902344 312.546875 L 393.519531 446.878906 L 236.679688 389.222656 Z M 286.066406 254.890625 " clip-rule="nonzero"/></clipPath><clipPath id="025fe0ce49"><path d="M 323 375 L 337 375 L 337 389 L 323 389 Z M 323 375 " clip-rule="nonzero"/></clipPath><clipPath id="59ace1abab"><path d="M 286.066406 254.890625 L 442.902344 312.546875 L 393.519531 446.878906 L 236.679688 389.222656 Z M 286.066406 254.890625 " clip-rule="nonzero"/></clipPath><clipPath id="86d78d937c"><path d="M 286.066406 254.890625 L 442.902344 312.546875 L 393.519531 446.878906 L 236.679688 389.222656 Z M 286.066406 254.890625 " clip-rule="nonzero"/></clipPath><clipPath id="8301b09a4e"><path d="M 294 347 L 366 347 L 366 421 L 294 421 Z M 294 347 " clip-rule="nonzero"/></clipPath><clipPath id="5737b44bc6"><path d="M 286.066406 254.890625 L 442.902344 312.546875 L 393.519531 446.878906 L 236.679688 389.222656 Z M 286.066406 254.890625 " clip-rule="nonzero"/></clipPath><clipPath id="c717d92e8b"><path d="M 286.066406 254.890625 L 442.902344 312.546875 L 393.519531 446.878906 L 236.679688 389.222656 Z M 286.066406 254.890625 " clip-rule="nonzero"/></clipPath><clipPath id="0df2ef0ee4"><path d="M 99 373 L 165 373 L 165 444 L 99 444 Z M 99 373 " clip-rule="nonzero"/></clipPath><clipPath id="4bfddab50f"><path d="M 87.152344 388.519531 L 240.09375 321.199219 L 297.753906 452.195312 L 144.8125 519.511719 Z M 87.152344 388.519531 " clip-rule="nonzero"/></clipPath><clipPath id="0f846634c3"><path d="M 87.152344 388.519531 L 240.09375 321.199219 L 297.753906 452.195312 L 144.8125 519.511719 Z M 87.152344 388.519531 " clip-rule="nonzero"/></clipPath><clipPath id="789ebf1929"><path d="M 127 401 L 140 401 L 140 413 L 127 413 Z M 127 401 " clip-rule="nonzero"/></clipPath><clipPath id="7785970cad"><path d="M 87.152344 388.519531 L 240.09375 321.199219 L 297.753906 452.195312 L 144.8125 519.511719 Z M 87.152344 388.519531 " clip-rule="nonzero"/></clipPath><clipPath id="bcf931cd80"><path d="M 87.152344 388.519531 L 240.09375 321.199219 L 297.753906 452.195312 L 144.8125 519.511719 Z M 87.152344 388.519531 " clip-rule="nonzero"/></clipPath><clipPath id="daa28d29f5"><path d="M 134 406 L 135 406 L 135 407 L 134 407 Z M 134 406 " clip-rule="nonzero"/></clipPath><clipPath id="7b0d0ec0ca"><path d="M 87.152344 388.519531 L 240.09375 321.199219 L 297.753906 452.195312 L 144.8125 519.511719 Z M 87.152344 388.519531 " clip-rule="nonzero"/></clipPath><clipPath id="19bfe544bb"><path d="M 87.152344 388.519531 L 240.09375 321.199219 L 297.753906 452.195312 L 144.8125 519.511719 Z M 87.152344 388.519531 " clip-rule="nonzero"/></clipPath><clipPath id="92f97621a5"><path d="M 220 367 L 229 367 L 229 376 L 220 376 Z M 220 367 " clip-rule="nonzero"/></clipPath><clipPath id="8d2e4d0f95"><path d="M 87.152344 388.519531 L 240.09375 321.199219 L 297.753906 452.195312 L 144.8125 519.511719 Z M 87.152344 388.519531 " clip-rule="nonzero"/></clipPath><clipPath id="e686ae399d"><path d="M 87.152344 388.519531 L 240.09375 321.199219 L 297.753906 452.195312 L 144.8125 519.511719 Z M 87.152344 388.519531 " clip-rule="nonzero"/></clipPath><clipPath id="bd7acc24c6"><path d="M 194 339 L 257 339 L 257 405 L 194 405 Z M 194 339 " clip-rule="nonzero"/></clipPath><clipPath id="59f8f5b4b2"><path d="M 87.152344 388.519531 L 240.09375 321.199219 L 297.753906 452.195312 L 144.8125 519.511719 Z M 87.152344 388.519531 " clip-rule="nonzero"/></clipPath><clipPath id="6c346b3396"><path d="M 87.152344 388.519531 L 240.09375 321.199219 L 297.753906 452.195312 L 144.8125 519.511719 Z M 87.152344 388.519531 " clip-rule="nonzero"/></clipPath><clipPath id="c039180d35"><path d="M 200 443 L 215 443 L 215 457 L 200 457 Z M 200 443 " clip-rule="nonzero"/></clipPath><clipPath id="ba7392a28f"><path d="M 87.152344 388.519531 L 240.09375 321.199219 L 297.753906 452.195312 L 144.8125 519.511719 Z M 87.152344 388.519531 " clip-rule="nonzero"/></clipPath><clipPath id="e9d2d4e544"><path d="M 87.152344 388.519531 L 240.09375 321.199219 L 297.753906 452.195312 L 144.8125 519.511719 Z M 87.152344 388.519531 " clip-rule="nonzero"/></clipPath><clipPath id="70193c4329"><path d="M 170 416 L 245 416 L 245 491 L 170 491 Z M 170 416 " clip-rule="nonzero"/></clipPath><clipPath id="6caeef2377"><path d="M 87.152344 388.519531 L 240.09375 321.199219 L 297.753906 452.195312 L 144.8125 519.511719 Z M 87.152344 388.519531 " clip-rule="nonzero"/></clipPath><clipPath id="f22e80b96a"><path d="M 87.152344 388.519531 L 240.09375 321.199219 L 297.753906 452.195312 L 144.8125 519.511719 Z M 87.152344 388.519531 " clip-rule="nonzero"/></clipPath></defs><g clip-path="url(#59460ba078)"><path fill="#38b6ff" d="M 337.671875 400.871094 C 336.960938 401.253906 336.671875 401.40625 336.644531 401.414062 C 331.546875 404.109375 326.386719 406.71875 321.636719 410.015625 C 323.34375 404.585938 324.496094 398.933594 324.503906 393.226562 C 324.511719 390.386719 324.226562 387.542969 323.617188 384.769531 C 323.054688 382.214844 321.570312 379.578125 321.71875 376.945312 C 321.839844 374.785156 322.113281 372.160156 322.996094 370.152344 C 323.90625 368.089844 326.234375 366.230469 327.949219 364.84375 C 332.136719 361.460938 337.078125 359.707031 342.425781 360.433594 C 340.527344 361.851562 338.910156 363.652344 339.484375 366.1875 C 340.066406 368.757812 342.039062 370.683594 343.355469 372.878906 C 345.914062 377.152344 346.613281 382.503906 346.636719 387.402344 C 346.1875 383.738281 343.136719 381.375 340.722656 378.921875 C 340.324219 378.515625 336.421875 374.109375 336.203125 374.21875 C 336.292969 374.171875 339.320312 377.71875 339.601562 378.019531 C 341.488281 380.042969 343.777344 381.742188 345.171875 384.179688 C 346.980469 387.339844 346.835938 391.417969 344.804688 394.417969 C 343.269531 396.691406 340.398438 399.996094 337.671875 400.871094 Z M 342.410156 359.621094 C 342.335938 359.65625 341.925781 359.710938 342.125 359.671875 C 342.035156 359.6875 342.011719 359.6875 342.261719 359.644531 C 342.796875 359.550781 343.335938 359.453125 343.867188 359.34375 C 342.59375 360.375 341.839844 360.140625 340.265625 359.960938 C 340.878906 359.871094 341.851562 359.890625 342.410156 359.621094 Z M 320.644531 421.863281 C 324.132812 420.671875 322.289062 421.3125 321.222656 421.671875 C 325.699219 420.265625 330.535156 420.144531 335.0625 421.433594 C 332.226562 426.679688 328.914062 432.195312 330.734375 438.371094 C 331.632812 441.410156 332.988281 444.394531 331.390625 447.476562 C 330.714844 448.777344 329.683594 449.882812 328.625 450.882812 C 327.617188 451.832031 326.398438 453.234375 325.089844 453.738281 C 324 454.15625 322.808594 454.167969 321.699219 454.503906 C 320.152344 454.976562 318.640625 455.554688 317.175781 456.234375 C 314.132812 457.640625 311.398438 459.519531 308.839844 461.671875 C 303.804688 465.90625 298.605469 470.144531 294.765625 475.546875 C 295.664062 470.113281 296.589844 464.496094 298.296875 459.25 C 299.972656 454.109375 302.609375 449.210938 305.085938 444.417969 C 307.546875 439.65625 310.160156 434.980469 312.570312 430.195312 C 313.609375 428.132812 314.800781 426.109375 316.355469 424.382812 C 317.464844 423.148438 319.515625 422.355469 320.644531 421.863281 Z M 329.996094 419.507812 C 329.996094 419.507812 329.992188 419.507812 329.992188 419.507812 C 329.789062 419.527344 329.585938 419.570312 329.382812 419.609375 C 329.132812 419.65625 328.910156 419.691406 328.949219 419.6875 C 329.023438 419.675781 329.097656 419.664062 329.171875 419.652344 C 329.171875 419.652344 329.167969 419.652344 329.167969 419.652344 C 329.179688 419.652344 329.1875 419.648438 329.195312 419.648438 C 331.589844 419.234375 333.996094 418.9375 336.410156 418.695312 C 336.027344 419.570312 335.605469 420.425781 335.152344 421.261719 C 334.179688 420.96875 333.191406 420.742188 332.191406 420.574219 C 330.058594 420.21875 327.878906 420.128906 325.726562 420.347656 C 327.109375 420.015625 328.574219 419.625 329.996094 419.507812 Z M 336.660156 418.792969 C 337.371094 418.234375 339.132812 418.445312 339.976562 418.375 C 341.410156 418.257812 342.847656 418.144531 344.28125 418.046875 C 346.945312 417.839844 349.578125 417.539062 352.234375 417.28125 C 353.789062 417.128906 359.953125 418.101562 359.972656 419.867188 C 360.046875 425.886719 354.628906 430.3125 353.414062 436.039062 C 352.917969 438.394531 351.097656 440.632812 349.765625 442.597656 C 348.238281 444.84375 346.527344 447.003906 344.417969 448.738281 C 339.296875 452.960938 333.230469 452.328125 327.066406 453.289062 C 329.914062 450.777344 333.332031 447.722656 332.910156 443.527344 C 332.699219 441.445312 331.625 439.578125 331.054688 437.585938 C 330.347656 435.113281 330.359375 432.648438 331.125 430.195312 C 331.78125 428.101562 332.804688 426.148438 333.828125 424.21875 C 334.785156 422.417969 334.792969 421.203125 337.078125 422.117188 C 338.667969 422.757812 340.113281 423.609375 341.441406 424.6875 C 341.628906 424.839844 343.699219 426.683594 343.785156 426.625 C 343.765625 426.640625 341.464844 424.585938 341.257812 424.414062 C 339.527344 422.984375 337.488281 421.992188 335.351562 421.324219 C 335.710938 420.625 336.035156 419.285156 336.660156 418.792969 Z M 344.4375 414.710938 C 344.875 414.515625 345.167969 414.382812 345.351562 414.300781 C 345.0625 414.460938 344.746094 414.585938 344.4375 414.710938 Z M 345.351562 414.296875 C 345.992188 414.007812 345.300781 414.316406 344.65625 414.609375 C 348.527344 412.828125 352.265625 410.75 355.796875 408.363281 C 355.078125 411.074219 357.265625 413.496094 358.546875 415.644531 C 352.496094 416.171875 346.421875 416.203125 340.359375 416.449219 C 342.011719 415.785156 343.800781 415.175781 345.351562 414.296875 Z M 359.085938 416.921875 C 359.082031 416.921875 359.082031 416.917969 359.082031 416.914062 C 359.035156 416.847656 359.023438 416.777344 359.117188 416.753906 C 359.042969 416.777344 359.050781 416.847656 359.082031 416.914062 C 359.082031 416.917969 359.085938 416.921875 359.085938 416.925781 C 359.085938 416.925781 359.085938 416.925781 359.085938 416.921875 C 359.160156 417.074219 359.363281 417.199219 359.144531 416.746094 C 359.480469 417.433594 359.75 418.152344 359.882812 418.90625 C 358.386719 418.230469 356.84375 417.636719 355.261719 417.183594 C 355.695312 417.140625 358.398438 416.777344 359.085938 416.921875 Z M 370.40625 414.398438 C 369.808594 414.597656 367.996094 415.195312 370.492188 414.371094 C 370.5 414.367188 370.511719 414.363281 370.519531 414.363281 C 370.539062 414.355469 370.554688 414.351562 370.570312 414.347656 C 370.582031 414.34375 370.582031 414.34375 370.578125 414.34375 C 370.800781 414.265625 371.019531 414.191406 371.242188 414.113281 C 368.859375 415.71875 366.785156 417.757812 364.898438 419.917969 C 364.332031 420.5625 364.332031 421.089844 363.476562 420.65625 C 362.921875 420.371094 362.367188 420.09375 361.808594 419.820312 C 361.28125 419.5625 360.75 419.304688 360.214844 419.058594 C 360.078125 418.238281 359.777344 417.453125 359.402344 416.714844 C 363.117188 416.226562 366.847656 415.582031 370.40625 414.398438 Z M 365.746094 422.082031 C 366.8125 422.621094 367.886719 423.140625 368.980469 423.625 C 365.789062 424.988281 362.894531 426.941406 360.152344 429.050781 C 361.042969 427.5 361.957031 425.960938 362.9375 424.464844 C 363.433594 423.703125 363.949219 422.945312 364.484375 422.207031 C 365.0625 421.40625 365.023438 421.71875 365.746094 422.082031 Z M 360.253906 419.425781 C 361.46875 419.96875 362.667969 420.550781 363.863281 421.144531 C 360.179688 425.652344 357.238281 430.691406 354.15625 435.609375 C 355.15625 430.238281 360.269531 425.632812 360.269531 420.503906 C 360.300781 420.144531 360.296875 419.785156 360.253906 419.425781 Z M 369.441406 423.878906 C 369.503906 423.855469 369.492188 423.859375 369.449219 423.875 C 369.59375 423.824219 369.835938 423.859375 370.128906 423.953125 C 369.984375 423.886719 369.847656 423.824219 369.710938 423.765625 C 370.171875 423.570312 372.277344 422.386719 372.75 422.558594 C 372.746094 422.5625 372.746094 422.5625 372.742188 422.5625 C 372.621094 422.5625 372.265625 422.726562 372.195312 422.769531 C 372.285156 422.75 372.375 422.722656 372.464844 422.6875 C 374.933594 421.761719 377.527344 421.171875 379.949219 420.113281 C 379.707031 421.539062 379.230469 425.363281 377.4375 425.738281 C 377.21875 425.785156 376.996094 425.8125 376.765625 425.824219 C 377.132812 425.835938 377.5 425.828125 377.867188 425.796875 C 374.582031 430.417969 368.808594 432.183594 365.027344 436.277344 C 364.074219 437.304688 363.613281 438.53125 362.804688 439.609375 C 362.175781 440.457031 360.746094 440.589844 359.804688 440.851562 C 356.78125 441.703125 353.796875 443.410156 351.128906 445.039062 C 353.84375 440.847656 356.082031 436.375 358.488281 432.007812 C 359.570312 430.046875 361.171875 428.902344 362.976562 427.644531 C 364.992188 426.238281 367.070312 424.894531 369.335938 423.925781 C 369.121094 424.015625 368.808594 424.148438 369.441406 423.878906 Z M 290.707031 450.710938 C 289.683594 444.992188 288.066406 439.351562 286.8125 433.679688 C 284.988281 425.410156 283.1875 417.046875 282.398438 408.601562 C 281.816406 402.332031 281.332031 395.75 277.859375 390.289062 C 277.070312 389.050781 276.140625 387.90625 275.144531 386.828125 C 274.515625 386.148438 273.925781 385.734375 273.695312 384.832031 C 273.480469 383.972656 273.179688 383.136719 272.949219 382.285156 C 272 378.785156 272.945312 375.226562 274.78125 372.1875 C 280.257812 378.035156 287.25 382.070312 293.851562 386.476562 C 300.128906 390.667969 307.238281 395.996094 309.15625 403.730469 C 310.152344 407.746094 308.964844 411.710938 307.953125 415.59375 C 307.449219 417.523438 306.976562 419.457031 307 421.464844 C 307.023438 423.425781 305.273438 425.457031 304.308594 427.085938 C 299.683594 434.90625 294.753906 442.566406 290.707031 450.710938 Z M 272.09375 369.265625 C 272.097656 369.175781 272.105469 369.089844 272.109375 369 C 272.445312 369.457031 272.792969 369.894531 273.152344 370.332031 C 272.71875 370.925781 272.308594 371.535156 271.929688 372.164062 C 271.96875 371.199219 272.027344 370.230469 272.09375 369.265625 Z M 276.316406 369.90625 C 277.058594 368.90625 277.832031 367.882812 278.691406 366.988281 C 278.691406 366.988281 278.691406 366.988281 278.6875 366.988281 C 278.523438 367.164062 278.371094 367.347656 278.214844 367.53125 C 278.113281 367.648438 278.046875 367.722656 278.074219 367.695312 C 278.074219 367.695312 278.070312 367.695312 278.070312 367.699219 C 278.074219 367.695312 278.074219 367.695312 278.074219 367.691406 C 278.109375 367.652344 278.25 367.496094 278.566406 367.132812 C 279.234375 366.359375 279.925781 365.605469 280.617188 364.851562 C 285.667969 372.71875 290.457031 380.863281 296.917969 387.691406 C 292.105469 384.417969 287.003906 381.59375 282.277344 378.195312 C 279.96875 376.53125 277.773438 374.703125 275.753906 372.703125 C 274.628906 371.589844 275.539062 370.960938 276.316406 369.90625 Z M 281.539062 364.128906 C 281.523438 364.140625 281.523438 364.140625 281.558594 364.117188 C 281.863281 363.898438 281.457031 364.6875 281.433594 364.847656 C 280.886719 364.425781 281.324219 364.269531 281.539062 364.128906 Z M 281.878906 364.625 C 282.203125 363.140625 284 362.320312 285.238281 361.753906 C 287.261719 360.828125 289.316406 359.980469 291.507812 359.542969 C 295.222656 358.773438 299.671875 360.683594 302.816406 357.863281 C 299.933594 360.046875 296.519531 358.808594 293.234375 359.082031 C 289.507812 359.390625 285.855469 360.972656 282.710938 362.925781 C 284.734375 360.132812 287.878906 358.472656 290.578125 356.4375 C 292.660156 354.871094 295.761719 352.546875 295.238281 349.558594 C 295.4375 352.1875 293.242188 354.148438 291.363281 355.628906 C 289.0625 357.441406 286.523438 358.933594 284.285156 360.828125 C 286.96875 357.640625 289.492188 354.046875 290.25 349.863281 C 291.105469 345.117188 289.457031 340.363281 287.386719 336.152344 C 291.402344 334.972656 294.511719 333.066406 298.363281 335.820312 C 299.4375 336.589844 301.445312 337.886719 301.707031 339.28125 C 302.011719 340.890625 301.859375 342.574219 302.144531 344.210938 C 303.675781 352.878906 307.734375 360.792969 311.300781 368.75 C 314.839844 376.636719 317.828125 384.773438 317.40625 393.554688 C 316.980469 402.453125 313.230469 410.828125 309.117188 418.582031 C 310.234375 412.839844 312.339844 407.359375 310.082031 401.539062 C 309.402344 399.777344 308.324219 398.148438 307.234375 396.613281 C 306.507812 395.585938 304.421875 394.050781 304.867188 392.636719 C 305.386719 390.996094 306.964844 389.851562 308.238281 388.816406 C 309.867188 387.496094 311.558594 386.230469 312.925781 384.628906 C 311.238281 386.179688 309.535156 387.632812 307.707031 389.011719 C 306.265625 390.101562 304.667969 391.464844 304.472656 393.386719 C 303.484375 392.386719 301.738281 391.496094 301.417969 390.015625 C 301.222656 389.125 301.417969 388.105469 301.273438 387.179688 C 301.078125 385.910156 300.78125 384.660156 300.582031 383.386719 C 300.207031 380.996094 300.167969 378.535156 301.214844 376.296875 C 302.101562 374.386719 303.316406 372.65625 304.28125 370.792969 C 305.6875 368.082031 305.90625 365.726562 305.34375 362.832031 C 305.246094 362.328125 304.238281 356.675781 303.71875 356.785156 C 303.910156 356.746094 304.8125 360.898438 304.886719 361.21875 C 305.425781 363.554688 305.792969 365.648438 305.085938 368.042969 C 304.042969 371.601562 301.308594 374.308594 300.210938 377.816406 C 298.964844 381.792969 300.796875 385.761719 300.707031 389.777344 C 296.507812 385.878906 292.8125 381.488281 289.480469 376.835938 C 287.695312 374.335938 285.992188 371.777344 284.304688 369.210938 C 283.46875 367.9375 281.613281 365.804688 281.878906 364.625 Z M 216.257812 400.265625 C 216.082031 400.234375 215.902344 400.210938 215.722656 400.183594 C 215.914062 400.210938 216.101562 400.238281 216.289062 400.269531 C 216.28125 400.269531 216.269531 400.269531 216.257812 400.265625 Z M 193.984375 399.003906 C 193.253906 399.296875 192.527344 399.597656 191.792969 399.890625 C 192.632812 398.808594 193.925781 397.675781 195.351562 398.460938 C 194.925781 398.621094 194.503906 398.789062 194.082031 398.960938 C 194.101562 398.953125 194.082031 398.964844 193.984375 399.003906 Z M 396.28125 363.457031 C 389.507812 363.699219 382.722656 364.265625 376.847656 367.984375 C 376.832031 365.347656 379.929688 363.550781 381.714844 362.105469 C 382.753906 361.265625 383.671875 360.394531 384.175781 359.128906 C 384.347656 358.691406 385.121094 356.742188 384.738281 356.285156 C 384.921875 356.5 384.476562 358.003906 384.390625 358.277344 C 384.078125 359.230469 383.511719 360.070312 382.84375 360.804688 C 381.332031 362.464844 379.382812 363.648438 377.832031 365.269531 C 377.238281 365.890625 376.089844 367.183594 376.628906 368.132812 C 375.566406 368.816406 374.535156 369.558594 373.542969 370.34375 C 371.199219 372.203125 369.0625 374.304688 366.976562 376.445312 C 370.683594 368.289062 373.203125 359.457031 378.523438 352.125 C 381.195312 348.433594 384.570312 345.335938 388.535156 343.082031 C 390.636719 341.886719 392.863281 340.957031 395.164062 340.230469 C 396.34375 339.859375 397.550781 339.453125 398.78125 339.285156 C 399.710938 339.160156 400.898438 339.148438 401.675781 338.546875 C 401 339.066406 399.300781 338.816406 398.464844 338.96875 C 396.433594 339.332031 394.445312 339.910156 392.5 340.589844 C 388.933594 341.832031 385.578125 343.558594 382.632812 345.933594 C 377.195312 350.316406 373.464844 356.34375 370.390625 362.527344 C 366.863281 369.632812 363.929688 377.140625 359.277344 383.621094 C 355.003906 389.578125 349.210938 394.167969 342.957031 397.90625 C 345.148438 395.726562 346.878906 393.097656 347.277344 389.976562 C 347.511719 388.109375 347.375 386.195312 347.140625 384.335938 C 346.980469 383.082031 346.171875 381.140625 346.726562 379.933594 C 348.011719 377.152344 350.609375 374.546875 353.203125 372.972656 C 355.34375 371.679688 358.480469 371.367188 359.796875 368.996094 C 359.476562 369.359375 358.335938 370.285156 358.222656 370.367188 C 357.042969 371.242188 355.699219 371.671875 354.355469 372.25 C 351.125 373.652344 347.675781 376.722656 346.355469 380.039062 C 345.660156 377.015625 344.851562 374.113281 342.996094 371.578125 C 341.488281 369.523438 339.195312 367.035156 339.703125 364.253906 C 339.945312 362.933594 340.863281 362.007812 341.804688 361.128906 C 342.929688 360.082031 344.710938 360.75 346.007812 361.191406 C 346.105469 361.226562 348.433594 362.542969 349.835938 363.414062 C 349.222656 362.941406 348.542969 362.410156 348.433594 362.328125 C 346.808594 361.144531 344.78125 360.664062 342.828125 360.351562 C 346.042969 357.890625 350.9375 358.382812 352.6875 354.015625 C 350.980469 357.105469 347.730469 358.34375 344.449219 359.023438 C 345.15625 358.335938 345.554688 357.710938 345.722656 356.765625 C 345.746094 356.621094 346.046875 354.984375 345.707031 355.042969 C 345.957031 354.988281 345.414062 357.257812 345.355469 357.441406 C 344.902344 358.957031 343.449219 359.332031 342.023438 359.496094 C 338.132812 359.9375 334.070312 360.515625 330.625 362.503906 C 332.914062 360.074219 333.636719 356.640625 335.769531 354.113281 C 335.082031 354.886719 334.59375 355.472656 334.523438 355.578125 C 333.117188 357.746094 332.222656 360.121094 330.503906 362.089844 C 328.535156 364.339844 325.875 365.800781 323.871094 368.003906 C 327.652344 359.109375 334.929688 353.539062 341.746094 347.113281 C 343.25 345.699219 344.847656 344.453125 346.980469 344.238281 C 349.449219 343.988281 351.984375 344.863281 354.445312 344.996094 C 358.441406 345.214844 362.113281 343.566406 364.609375 340.46875 C 362.332031 343.285156 358.847656 345.011719 355.203125 344.816406 C 351.5 344.621094 347.359375 342.839844 343.882812 344.90625 C 344.859375 343.6875 345.449219 342.207031 345.570312 340.652344 C 345.632812 339.804688 345.554688 338.945312 345.421875 338.105469 C 345.289062 337.261719 344.71875 336.214844 344.738281 335.378906 C 344.691406 337.664062 345.648438 339.785156 344.859375 342.054688 C 344.128906 344.171875 342.367188 345.660156 340.683594 347.03125 C 336.496094 350.449219 332.128906 353.691406 328.472656 357.699219 C 328.222656 354.742188 325.121094 353.089844 326.914062 349.890625 C 327.699219 348.488281 328.964844 347.40625 330.117188 346.3125 C 330.636719 345.816406 332.167969 344.84375 332.398438 344.128906 C 332.296875 344.4375 331.453125 344.9375 331.214844 345.136719 C 330.355469 345.84375 329.476562 346.53125 328.660156 347.292969 C 327.09375 348.75 325.585938 350.679688 326.035156 352.957031 C 323.566406 349.40625 323.773438 345.839844 325.628906 342.132812 C 325.875 341.636719 328.488281 335.9375 328.625 335.96875 C 328.414062 335.921875 326.140625 340.78125 325.933594 341.183594 C 324.496094 343.960938 323.234375 346.648438 324.210938 349.859375 C 324.824219 351.886719 326.082031 353.515625 327.167969 355.292969 C 328.53125 357.519531 327.742188 358.441406 326.261719 360.300781 C 323.1875 364.164062 320.792969 368.566406 319.617188 373.382812 C 317.328125 368.28125 314.59375 363.398438 312.097656 358.398438 C 311 356.199219 309.621094 353.878906 309.09375 351.464844 C 308.625 349.3125 308.648438 346.894531 308.648438 344.691406 C 308.648438 340.410156 312.382812 337.003906 316.238281 335.886719 C 317.425781 335.542969 318.542969 335.234375 319.648438 334.777344 C 318.867188 335.050781 318.058594 335.257812 317.277344 335.484375 C 315.644531 335.953125 313.910156 336.371094 312.496094 337.359375 C 310.96875 338.429688 310.03125 340.144531 309.011719 341.660156 C 309.757812 334.683594 312.542969 327.824219 317.90625 323.132812 C 320.953125 320.46875 324.671875 318.710938 327.90625 316.296875 C 330.511719 314.351562 334.152344 311.164062 333.257812 307.511719 C 333.292969 308.046875 333.226562 308.921875 333.21875 309.058594 C 333.132812 310.5625 332.191406 311.96875 331.238281 313.066406 C 329.234375 315.371094 326.539062 316.9375 323.992188 318.558594 C 319.140625 321.636719 314.355469 324.964844 311.585938 330.160156 C 312.199219 327.855469 312.824219 325.476562 312.523438 323.074219 C 312.40625 322.160156 311.914062 321.316406 311.9375 320.378906 C 311.96875 319.351562 312.746094 318.765625 313.441406 318.140625 C 312.691406 318.820312 311.890625 319.332031 311.898438 320.460938 C 311.902344 321.582031 312.414062 322.628906 312.460938 323.757812 C 312.566406 326.398438 311.707031 329.09375 310.886719 331.578125 C 310.074219 334.042969 309.039062 336.4375 308.546875 338.996094 C 307.9375 342.136719 307.75 345.347656 307.796875 348.542969 C 303.933594 337.519531 305.144531 326.199219 310.644531 315.976562 C 315.421875 307.097656 322.167969 299.5 327.234375 290.8125 C 328.574219 288.515625 330.429688 285.976562 331.144531 283.386719 C 331.375 282.566406 330.238281 284.121094 330.15625 284.238281 C 329.222656 285.65625 328.382812 287.144531 327.527344 288.609375 C 322.378906 297.40625 314.925781 304.683594 309.425781 313.265625 C 306.753906 317.433594 304.480469 321.886719 303.082031 326.652344 C 302.632812 325.832031 302 325.125 301.617188 324.269531 C 301.128906 323.179688 301.179688 321.757812 301.226562 320.585938 C 301.289062 319.003906 301.660156 317.09375 302.449219 315.691406 C 301.085938 318.109375 300.652344 320.542969 300.820312 323.304688 C 298.0625 319.878906 294.449219 317.300781 291.375 314.1875 C 289.914062 312.707031 288.546875 311.097656 287.609375 309.226562 C 286.507812 307.039062 286.332031 304.574219 285.726562 302.230469 C 285.136719 299.933594 284.617188 298.519531 285.917969 296.347656 C 287.113281 294.355469 288.625 292.570312 289.792969 290.5625 C 290.9375 288.601562 291.625 286.417969 291.878906 284.167969 C 292.171875 281.539062 291.507812 279.234375 291.265625 276.65625 C 291.675781 281.03125 292.34375 285.066406 290.179688 289.171875 C 288.46875 292.414062 285.488281 294.96875 284.480469 298.578125 C 282.261719 293.355469 278.417969 289.328125 274.691406 285.167969 C 274.113281 284.519531 268.773438 278.003906 268.226562 278.332031 C 268.683594 278.054688 279.476562 292.105469 279.855469 292.675781 C 281.320312 294.867188 282.519531 297.207031 283.351562 299.710938 C 284.292969 302.550781 284.257812 305.546875 285.121094 308.375 C 286.585938 313.3125 290.742188 316.734375 294.261719 320.222656 C 291.78125 319.332031 289.171875 318.964844 286.808594 317.742188 C 284.445312 316.519531 281.96875 314.984375 280.195312 312.96875 C 278.648438 311.214844 278.027344 308.988281 277.667969 306.726562 C 277.550781 305.980469 276.804688 300.945312 275.386719 300.945312 C 277.695312 303.984375 276.960938 308.066406 278.675781 311.351562 C 280.414062 314.585938 283.871094 316.664062 287.042969 318.277344 C 285.203125 318.195312 282.304688 319.40625 280.765625 317.945312 C 281.71875 318.796875 280.941406 318.34375 280.417969 318.183594 C 279.875 318.011719 279.359375 317.769531 278.878906 317.46875 C 277.902344 316.851562 277.089844 316.003906 276.386719 315.089844 C 274.90625 313.160156 273.882812 310.933594 272.601562 308.878906 C 269.441406 303.8125 263.605469 299.332031 257.699219 298.175781 C 261.90625 299.480469 265.480469 301.8125 268.667969 304.820312 C 270.300781 306.359375 271.738281 308.03125 272.871094 309.972656 C 274.03125 311.964844 275.035156 314.09375 276.503906 315.886719 C 277.988281 317.699219 279.5625 318.320312 281.6875 319.03125 C 281.949219 319.121094 282.179688 319.273438 282.382812 319.46875 C 282.261719 319.308594 282.136719 319.152344 282.003906 319.003906 C 284.847656 319.175781 287.371094 318.679688 290.171875 319.53125 C 292.414062 320.21875 295.035156 320.84375 296.617188 322.675781 C 298.269531 324.582031 299.757812 326.644531 300.671875 329.011719 C 301.789062 331.886719 301.449219 334.769531 301.535156 337.773438 C 299.566406 335.652344 296.960938 334.226562 294.269531 333.230469 C 294.242188 333.222656 294.214844 333.210938 294.191406 333.203125 C 294.125 333.179688 294.058594 333.152344 293.992188 333.128906 C 291.5625 330.914062 288.617188 329.316406 286.390625 326.871094 C 284.832031 325.15625 284.28125 322.941406 283.296875 320.976562 C 283.789062 322.210938 284.066406 323.699219 284.511719 324.542969 C 286.402344 328.128906 289.976562 330.363281 293.066406 332.808594 C 287.4375 330.9375 281.488281 330.222656 275.894531 328.234375 C 273.742188 327.46875 271.574219 326.546875 269.6875 325.253906 C 269.429688 325.074219 266.769531 323.054688 266.660156 323.148438 C 266.691406 323.125 269.378906 325.167969 269.621094 325.335938 C 271.683594 326.78125 274.0625 327.800781 276.425781 328.636719 C 282.46875 330.777344 288.964844 331.425781 294.871094 333.984375 C 293.535156 333.925781 292.226562 334.265625 290.976562 334.707031 C 290.109375 335.015625 288.425781 336.089844 287.511719 335.90625 C 286.914062 335.789062 285.628906 332.15625 285.3125 332.273438 C 285.34375 332.261719 286.867188 335.78125 287.023438 336.144531 C 286.875 336.1875 286.726562 336.230469 286.570312 336.269531 C 286.738281 336.253906 286.902344 336.246094 287.066406 336.246094 C 288.519531 339.644531 289.738281 343.351562 289.507812 347.09375 C 289.105469 353.53125 284.421875 358.507812 280.046875 362.773438 C 276.75 357.875 272.308594 353.125 271.050781 347.175781 C 270.546875 344.777344 270.832031 342.589844 271.640625 340.332031 C 271.753906 340.015625 273.042969 336.3125 273.398438 336.480469 C 272.890625 336.226562 271.039062 341.257812 270.941406 341.632812 C 269.9375 345.457031 270.886719 349.132812 272.699219 352.558594 C 274.417969 355.804688 276.539062 359.148438 278.828125 362.019531 C 280.042969 363.546875 278.355469 364.417969 277.285156 365.523438 C 275.878906 366.96875 274.53125 368.46875 273.328125 370.089844 C 272.914062 369.601562 272.515625 369.105469 272.132812 368.589844 C 272.179688 367.820312 272.222656 367.050781 272.253906 366.28125 C 272.316406 364.632812 272.332031 362.972656 272.15625 361.324219 C 271.859375 358.585938 270.675781 356.246094 268.667969 354.367188 C 266.390625 352.226562 263.589844 350.695312 261.53125 348.3125 C 260.691406 347.347656 259.964844 346.230469 259.824219 344.929688 C 259.820312 344.773438 259.875 343.847656 259.996094 343.265625 C 258.402344 347.136719 263.425781 350.503906 266.019531 352.511719 C 267.917969 353.984375 269.910156 355.632812 270.898438 357.882812 C 272.234375 360.929688 271.824219 364.640625 271.585938 367.859375 C 270.292969 366.121094 268.875 363.90625 266.777344 363.058594 C 266.445312 362.921875 262.980469 361.675781 262.933594 362.015625 C 262.96875 361.753906 266.210938 362.984375 266.488281 363.097656 C 268.042969 363.734375 269.363281 365.039062 270.402344 366.332031 C 271.960938 368.269531 271.648438 370.988281 271.097656 373.308594 C 270.394531 376.277344 269.253906 378.695312 269.742188 381.855469 C 266.523438 379.25 263.117188 376.894531 259.648438 374.644531 C 257.914062 373.515625 256.160156 372.414062 254.40625 371.320312 C 253.054688 370.476562 250.246094 369.5 250.121094 367.671875 C 249.886719 364.21875 253.269531 362.113281 255.464844 360.078125 C 256.347656 359.261719 257.253906 358.261719 257.386719 357.019531 C 257.414062 356.78125 257.648438 354.3125 257.25 354.402344 C 257.476562 354.351562 257.417969 356.628906 257.402344 356.855469 C 257.285156 358.429688 255.699219 359.722656 254.589844 360.648438 C 252.191406 362.652344 249.320312 365.03125 249.9375 368.53125 C 245.3125 365.625 240.550781 362.414062 240.515625 356.308594 C 240.5 353.320312 241.859375 350.664062 242.742188 347.882812 C 243.695312 344.875 243.515625 341.964844 242.179688 339.097656 C 242.832031 341.191406 243.503906 343.148438 243.132812 345.375 C 242.734375 347.769531 241.535156 349.929688 240.875 352.25 C 239.675781 356.445312 240.308594 360.601562 243.03125 364.066406 C 236.152344 359.402344 228.460938 353.59375 226.96875 344.851562 C 226.21875 340.464844 227.132812 335.804688 228.910156 331.769531 C 229.144531 331.238281 231.742188 325.347656 231.878906 325.40625 C 231.347656 325.175781 229.417969 329.242188 229.195312 329.671875 C 227.78125 332.394531 226.578125 335.242188 225.929688 338.253906 C 224.363281 345.503906 227.09375 352.433594 231.96875 357.800781 C 229.292969 356.316406 226.359375 355.410156 223.609375 354.09375 C 221.226562 352.957031 219.144531 351.199219 217.378906 349.257812 C 215.273438 346.941406 214.136719 344.132812 212.953125 341.332031 C 213.488281 343.128906 213.992188 344.9375 214.925781 346.578125 C 216.722656 349.730469 219.625 352.371094 222.789062 354.109375 C 214.425781 352.160156 206.066406 351.675781 198.296875 347.917969 C 199.226562 348.421875 200.246094 348.984375 200.398438 349.058594 C 202.667969 350.183594 205.046875 350.914062 207.515625 351.5 C 214.261719 353.109375 221.328125 353.5625 227.769531 356.308594 C 230.9375 357.660156 233.347656 359.398438 235.921875 361.640625 C 238.710938 364.074219 241.6875 366.277344 244.710938 368.414062 C 250.855469 372.757812 257.265625 376.753906 263.109375 381.515625 C 260.1875 380.914062 257.183594 381.253906 254.230469 381.3125 C 253.550781 381.324219 252.871094 381.324219 252.191406 381.289062 C 251.640625 380.714844 251.023438 380.207031 250.394531 379.722656 C 249.269531 378.855469 248.140625 378.019531 247.148438 377 C 245.289062 375.089844 243.789062 372.839844 241.722656 371.128906 C 239.445312 369.246094 236.667969 368.089844 234.347656 366.261719 C 237.257812 368.554688 240.757812 370.078125 243.308594 372.824219 C 244.558594 374.171875 245.554688 375.726562 246.796875 377.082031 C 248.226562 378.644531 249.960938 380 251.65625 381.265625 C 243.492188 380.726562 235.992188 376.925781 229.464844 372.210938 C 226.070312 369.761719 222.695312 366.972656 218.722656 365.507812 C 218.167969 365.304688 212.941406 364.175781 212.941406 364.632812 C 212.964844 364.351562 216.128906 364.988281 216.390625 365.039062 C 218.425781 365.441406 220.265625 366.269531 222.039062 367.34375 C 226.941406 370.3125 231.160156 374.253906 236.203125 377.039062 C 241.121094 379.761719 246.769531 381.714844 252.414062 382 C 255.464844 382.152344 258.519531 381.878906 261.566406 382.121094 C 264.460938 382.351562 265.734375 383.628906 267.761719 385.496094 C 265.6875 385.066406 263.691406 384.179688 261.539062 384.648438 C 259.550781 385.078125 257.996094 386.320312 256.527344 387.65625 C 255.476562 388.613281 254.449219 389.714844 253.128906 390.285156 C 252.941406 390.367188 251.238281 391.078125 250.894531 390.816406 C 251.257812 391.472656 253.285156 390.296875 253.628906 390.105469 C 255.234375 389.195312 256.449219 387.75 257.90625 386.636719 C 261.242188 384.089844 267.1875 384.179688 269.917969 387.539062 C 272.886719 391.1875 275.148438 394.777344 275.890625 399.519531 C 276.792969 405.292969 276.445312 411.230469 277.058594 417.039062 C 268.03125 406.492188 255.585938 399.941406 241.570312 400.03125 C 237.992188 400.054688 234.421875 400.332031 230.851562 400.5 C 228.894531 400.59375 227.824219 400.542969 226.160156 399.503906 C 224.578125 398.519531 223.039062 397.46875 221.558594 396.335938 C 219.390625 394.667969 217.617188 392.625 218.902344 389.785156 C 220.078125 387.191406 222.367188 384.953125 222.335938 381.949219 C 222.332031 386.179688 216.324219 389.632812 218.703125 393.972656 C 216.625 392.097656 214.25 389.847656 213.699219 386.992188 C 213.351562 385.171875 213.289062 383.453125 212.378906 381.8125 C 211.984375 381.097656 208.40625 374.429688 207.617188 374.863281 C 208.304688 374.484375 212.757812 383.015625 212.855469 383.339844 C 213.234375 384.585938 213.164062 385.835938 213.355469 387.105469 C 213.570312 388.511719 214.371094 389.734375 215.222656 390.839844 C 216.902344 393.027344 218.964844 394.878906 221.121094 396.589844 C 216.9375 394.398438 212.105469 394.398438 207.523438 393.835938 C 207.164062 393.789062 206.785156 393.75 206.402344 393.703125 C 209.546875 394.203125 212.765625 394.292969 215.878906 394.980469 C 220.070312 395.910156 223.355469 398.476562 226.960938 400.644531 C 223.042969 400.746094 219.132812 400.660156 215.253906 400.113281 C 215.234375 400.109375 215.210938 400.105469 215.191406 400.101562 C 215.105469 400.089844 215.027344 400.078125 214.957031 400.066406 C 212.660156 399.722656 208.285156 399.039062 205.457031 397.289062 C 201.070312 395.3125 196.597656 392.59375 194.257812 388.230469 C 192.90625 385.707031 192.820312 383.320312 193.738281 380.644531 C 194.65625 377.96875 195.542969 375.511719 193.363281 373.171875 C 195.691406 375.996094 193.960938 378.890625 193.019531 381.875 C 191.828125 385.644531 194.226562 389.40625 196.714844 392.046875 C 194.289062 390.257812 191.980469 388.316406 189.683594 386.371094 C 188.71875 385.554688 187.757812 384.738281 186.792969 383.925781 C 186.226562 383.445312 185.039062 383.066406 184.738281 382.34375 C 185.238281 383.554688 187.070312 384.578125 188.003906 385.453125 C 189.589844 386.933594 191.171875 388.417969 192.789062 389.859375 C 195.699219 392.453125 198.746094 394.914062 202.085938 396.933594 C 199.988281 396.988281 198.285156 397.777344 196.296875 398.203125 C 195.507812 398.371094 194.949219 397.847656 194.160156 397.90625 C 192.824219 398 192.28125 399.160156 191.375 399.914062 C 189.964844 401.089844 187.269531 401.441406 185.511719 401.589844 C 183.128906 401.789062 180.683594 401.359375 178.667969 400.023438 C 182.457031 402.535156 187.097656 401.863281 191.132812 400.378906 C 189.621094 402.648438 188.101562 404.996094 185.78125 406.527344 C 185.402344 406.773438 181.542969 409.371094 181.359375 409.089844 C 181.585938 409.433594 184.726562 407.300781 185.015625 407.113281 C 186.816406 405.960938 188.367188 404.699219 189.691406 402.980469 C 190.410156 402.050781 190.882812 400.71875 191.957031 400.125 C 193.355469 399.34375 195.042969 398.851562 196.5625 398.359375 C 198.1875 397.828125 199.867188 397.425781 201.578125 397.316406 C 203.195312 397.214844 204.492188 398.324219 205.933594 398.988281 C 212.503906 402.011719 219.828125 402.710938 226.976562 402.8125 C 234.117188 402.914062 241.40625 401.945312 248.464844 403.40625 C 246.863281 403.886719 245.257812 404.367188 243.675781 404.914062 C 242.878906 405.191406 242.101562 405.519531 241.351562 405.910156 C 240.425781 405.90625 239.511719 406.046875 238.601562 406.226562 C 235.1875 406.894531 231.90625 408.089844 228.558594 409.015625 C 225.597656 409.835938 222.355469 410.566406 219.359375 409.5 C 217.941406 408.992188 216.691406 408.09375 215.472656 407.230469 C 214.648438 406.652344 213.195312 405.167969 212.128906 405.167969 C 215.90625 407.410156 219.46875 410.949219 224.238281 410.167969 C 229.738281 409.269531 234.953125 407.09375 240.496094 406.390625 C 237.222656 408.371094 235.019531 411.523438 232.246094 414.078125 C 229.402344 416.699219 225.992188 418.167969 222.214844 418.875 C 219.179688 419.445312 216.128906 419.550781 213.082031 419.089844 C 212.640625 419.019531 207.898438 418.039062 207.800781 418.242188 C 207.761719 418.335938 213.15625 419.234375 213.597656 419.296875 C 216.9375 419.757812 220.378906 419.550781 223.675781 418.855469 C 228.023438 417.9375 231.292969 415.738281 234.382812 412.617188 C 237.515625 409.449219 240.585938 406.535156 244.957031 405.203125 C 242.175781 407.128906 239.367188 409.75 239.339844 413.390625 C 239.316406 416.765625 240.320312 420.015625 237.394531 422.550781 C 241.175781 419.78125 238.6875 415.335938 239.726562 411.582031 C 240.824219 407.625 246.632812 403.324219 250.816406 403.992188 C 255.480469 404.734375 260.347656 407.867188 264.035156 410.664062 C 268.019531 413.6875 271.5 417.367188 274.371094 421.457031 C 275.90625 423.648438 277.398438 426.007812 278.367188 428.507812 C 279.441406 431.277344 279.753906 434.347656 280.28125 437.253906 C 281.375 443.230469 282.441406 449.222656 283.007812 455.273438 C 283.277344 458.117188 283.421875 460.96875 283.425781 463.824219 C 283.425781 466.472656 283.941406 469.328125 283.578125 471.953125 C 283.191406 474.777344 282.367188 477.585938 281.839844 480.386719 C 281.25 483.507812 280.726562 486.636719 280.277344 489.777344 C 279.207031 485.714844 277.417969 481.878906 275.207031 478.316406 C 274.109375 476.542969 272.910156 474.835938 271.648438 473.179688 C 270.402344 471.542969 268.851562 470.007812 267.863281 468.203125 C 266.257812 465.273438 265.667969 459.859375 269.320312 458.316406 C 271.246094 457.503906 273.335938 457.261719 275.410156 457.371094 C 277.289062 457.476562 278.867188 457.039062 279.960938 455.417969 C 278.75 457.21875 276.882812 457.367188 274.882812 457.246094 C 272.351562 457.09375 269.734375 457.625 267.578125 459 C 268.453125 456.585938 269.855469 454.441406 271.363281 452.382812 C 272.097656 451.382812 272.824219 450.375 273.378906 449.261719 C 273.941406 448.132812 274.722656 447.472656 275.511719 446.519531 C 275.558594 446.457031 275.652344 446.289062 275.773438 446.039062 C 275.269531 446.648438 274.648438 447.15625 274.011719 447.695312 C 275.074219 444.457031 273.699219 441.359375 271.886719 438.707031 C 271.597656 438.289062 268.941406 434.109375 268.507812 434.347656 C 268.996094 434.078125 272.246094 440.21875 272.5625 440.804688 C 274.8125 444.957031 272.886719 448.78125 270.144531 452.15625 C 271.503906 447.796875 267.164062 445.839844 264.089844 444.082031 C 262.632812 443.25 261.140625 441.96875 260.703125 440.28125 C 260.636719 440.015625 260.035156 437.371094 260.085938 436.871094 C 260.027344 437.253906 260.230469 438.84375 260.25 438.996094 C 260.425781 440.296875 260.976562 441.5 261.824219 442.507812 C 263.789062 444.828125 267.25 445.164062 269.074219 447.640625 C 271.175781 450.496094 269.214844 453.214844 267.613281 455.703125 C 265.5625 458.882812 264.214844 462.921875 265.152344 466.703125 C 262.648438 464.617188 259.933594 462.828125 257.027344 461.355469 C 253.992188 459.820312 250.871094 459.128906 248.882812 456.214844 C 247.058594 453.546875 248.199219 449.972656 249.878906 447.546875 C 250.140625 447.167969 252.894531 443.816406 253.109375 443.988281 C 252.695312 443.65625 250.125 447.171875 249.863281 447.511719 C 248.257812 449.613281 247.417969 452.082031 247.929688 454.757812 C 245.230469 450.703125 244.371094 446.695312 244.152344 441.910156 C 244.136719 441.5625 242.816406 433.734375 241.921875 433.984375 C 242.242188 433.898438 243.296875 438.558594 243.390625 438.980469 C 244.140625 442.277344 243.121094 445.71875 244.023438 449.019531 C 242.574219 447.222656 240.144531 446.640625 238.039062 446.003906 C 237.449219 445.820312 236.785156 445.636719 236.171875 445.375 C 237.449219 446.125 239.011719 446.398438 240.386719 446.921875 C 242.40625 447.691406 243.769531 448.6875 244.585938 450.710938 C 245.546875 453.089844 246.796875 455.289062 248.203125 457.429688 C 244.242188 456.347656 240.441406 454.363281 236.953125 452.226562 C 236.179688 451.753906 235.417969 451.257812 234.671875 450.742188 C 234.242188 449.789062 233.652344 448.921875 233.132812 448.019531 C 232.125 446.277344 231.519531 444.367188 231.464844 442.347656 C 231.4375 441.402344 232.730469 430.433594 232.710938 430.433594 C 232.722656 430.433594 231.800781 437.203125 231.714844 437.753906 C 231.507812 439.097656 231.265625 440.449219 231.160156 441.804688 C 230.90625 445.058594 232.449219 447.515625 233.964844 450.25 C 230.074219 447.460938 226.355469 444.121094 223.4375 440.3125 C 223 439.738281 218.898438 433.792969 218.46875 433.996094 C 218.46875 433.992188 222.3125 439.761719 222.660156 440.257812 C 225.386719 444.117188 228.800781 447.527344 232.394531 450.574219 C 228.671875 449.808594 224.871094 449.960938 221.09375 449.929688 C 218.164062 449.902344 214.957031 449.65625 212.644531 447.632812 C 216.082031 451.175781 221.960938 450.109375 226.378906 450.132812 C 228.890625 450.148438 232.039062 450.257812 234.089844 451.84375 C 236.746094 453.902344 239.652344 455.53125 242.671875 457 C 240.167969 457.191406 237.722656 457.800781 235.320312 458.503906 C 233.914062 458.917969 233.695312 458.648438 232.558594 457.855469 C 231.582031 457.167969 230.445312 456.941406 229.285156 456.78125 C 226.445312 456.390625 223.476562 456.554688 220.675781 455.914062 C 219.804688 455.714844 219.058594 455.398438 218.433594 454.765625 C 218.378906 454.710938 217.832031 454.132812 217.582031 453.78125 C 218.667969 456.101562 221.707031 456.257812 223.953125 456.414062 C 225.734375 456.535156 227.515625 456.699219 229.277344 456.980469 C 231.058594 457.261719 232.121094 458.207031 233.664062 459.003906 C 229.332031 460.339844 224.984375 461.984375 220.414062 462.226562 C 218.59375 462.324219 216.609375 462.230469 214.902344 461.539062 C 214.664062 461.445312 212.347656 460.339844 212.265625 460.433594 C 212.234375 460.46875 215.105469 461.765625 215.359375 461.867188 C 217.34375 462.660156 219.589844 462.726562 221.695312 462.578125 C 227.347656 462.179688 232.679688 460.046875 238.191406 458.914062 C 236.726562 459.628906 235.734375 460.816406 235.117188 462.308594 C 234.566406 463.625 234.183594 465.265625 232.710938 465.859375 C 234.371094 465.285156 234.742188 463.332031 235.375 461.917969 C 236.246094 459.96875 238.050781 458.960938 240.078125 458.578125 C 242.722656 458.082031 245.230469 458.132812 247.664062 459.304688 C 250.121094 460.488281 252.613281 461.578125 255.011719 462.882812 C 251.75 462.585938 248.644531 463.464844 245.898438 465.21875 C 242.875 467.148438 240.671875 468.90625 237.007812 467.085938 C 239.308594 468.230469 241.46875 468.292969 243.707031 466.984375 C 245.8125 465.75 247.59375 464.246094 249.964844 463.507812 C 255.445312 461.796875 259.640625 465.433594 263.410156 468.976562 C 266.988281 472.335938 270.042969 476.246094 272.320312 480.59375 C 274.925781 485.5625 276.035156 490.925781 276.894531 496.417969 C 277.3125 499.105469 277.722656 501.800781 278.53125 504.40625 C 279.167969 506.441406 278.375 509.421875 278.296875 511.535156 C 278.078125 517.488281 278.152344 523.457031 278.648438 529.398438 C 279.152344 535.371094 280.089844 541.269531 281.652344 547.054688 C 283.242188 552.949219 283.050781 558.507812 281.949219 564.476562 C 290.578125 564.476562 299.207031 564.476562 307.835938 564.476562 C 304.660156 559.800781 301.273438 555.523438 298.992188 550.300781 C 296.664062 544.972656 295.097656 539.328125 294.039062 533.621094 C 291.882812 521.9375 291.636719 509.902344 292.285156 498.066406 C 292.515625 493.886719 291.964844 488.820312 294.472656 485.246094 C 296.421875 482.46875 298.445312 479.746094 300.394531 476.972656 C 301.902344 474.832031 303.671875 472.890625 305.515625 471.039062 C 307.402344 469.144531 309.347656 466.835938 311.550781 465.316406 C 313.480469 463.984375 316.390625 464.148438 318.601562 464.40625 C 321.480469 464.746094 324.257812 465.734375 326.847656 467.015625 C 330.410156 468.78125 333.679688 471.109375 336.804688 473.554688 C 338.445312 474.839844 340.054688 476.167969 341.664062 477.492188 C 343.246094 478.789062 345.050781 479.835938 346.460938 481.335938 C 344.269531 479.003906 341.449219 477.089844 338.996094 475.039062 C 336.414062 472.875 333.773438 470.773438 330.945312 468.933594 C 325.605469 465.457031 319.265625 462.796875 312.785156 464.046875 C 313.898438 463.019531 315.601562 462.636719 317.007812 462.195312 C 318.980469 461.574219 321.019531 461.171875 323.078125 460.992188 C 327.097656 460.644531 331.171875 461.171875 335 462.429688 C 338.402344 463.542969 341.359375 465.554688 344.28125 467.5625 C 346.769531 469.269531 349.867188 471.28125 353.027344 470.878906 C 349.042969 471.34375 345.386719 467.609375 342.453125 465.464844 C 338.292969 462.425781 333.449219 460.4375 328.335938 459.78125 C 329.824219 458.777344 331.433594 458.082031 333.265625 458.164062 C 335.398438 458.253906 337.527344 458.746094 339.667969 458.480469 C 343.511719 458.003906 347.140625 455.492188 349.863281 452.871094 C 347.675781 454.980469 345.035156 456.6875 342.125 457.605469 C 339.125 458.554688 336.4375 458.078125 333.390625 457.933594 C 332.128906 457.875 330.828125 457.96875 329.664062 458.503906 C 328.398438 459.082031 327.953125 459.816406 326.472656 459.765625 C 323.535156 459.660156 320.878906 459.578125 317.957031 460.210938 C 324.078125 456.617188 330.832031 456.539062 337.5625 455.066406 C 340.929688 454.332031 344.183594 453.195312 347.421875 452.042969 C 350.835938 450.828125 354.289062 449.378906 357.941406 449.121094 C 365.214844 448.605469 370.277344 453.605469 375.179688 458.210938 C 377.621094 460.503906 380.394531 462.835938 383.800781 463.414062 C 383.863281 463.425781 384.210938 463.445312 384.699219 463.460938 C 383.277344 463.292969 381.871094 462.785156 380.636719 462.117188 C 376.601562 459.941406 373.851562 456.097656 370.375 453.21875 C 366.925781 450.355469 362.628906 448.328125 358.066406 448.5 C 353.179688 448.6875 348.746094 451.101562 344.121094 452.40625 C 347.332031 450.339844 349.363281 447.109375 352.660156 445.15625 C 355.902344 443.234375 361.105469 444.238281 364.496094 445.371094 C 368.371094 446.664062 372.011719 448.546875 375.789062 450.085938 C 379 451.390625 383.199219 453.113281 386.488281 451.109375 C 381.648438 453.507812 376.148438 450.085938 371.820312 448.078125 C 366.703125 445.703125 360.9375 442.578125 355.101562 443.789062 C 360.234375 441.226562 365.925781 439.414062 371.640625 438.796875 C 377.507812 438.164062 383.386719 439.207031 389.234375 438.644531 C 393.324219 438.25 396.933594 436.78125 400.066406 434.160156 C 400.511719 433.785156 405.738281 429.144531 405.8125 429.207031 C 405.574219 429.007812 401.550781 432.789062 401.15625 433.132812 C 398.648438 435.324219 395.710938 437.050781 392.457031 437.859375 C 387.628906 439.058594 382.558594 438.078125 377.671875 437.917969 C 372.859375 437.765625 367.996094 438.402344 363.367188 439.722656 C 365.515625 436.492188 368.167969 434.183594 371.355469 432.011719 C 372.972656 430.910156 374.597656 429.800781 376.035156 428.46875 C 376.621094 427.921875 377.675781 425.996094 378.558594 425.734375 C 378.039062 425.761719 378.824219 424.929688 378.941406 424.691406 C 379.417969 423.707031 379.738281 422.660156 379.96875 421.59375 C 380.335938 419.867188 380.863281 419.710938 382.410156 418.996094 C 386.441406 417.144531 390.1875 416.253906 394.445312 417.96875 C 389.722656 415.433594 384.753906 417.773438 380.289062 419.6875 C 380.371094 419.09375 380.449219 418.492188 380.539062 417.894531 C 380.269531 418.953125 379.917969 419.851562 379.371094 420.066406 C 376.921875 421.019531 374.296875 421.5 371.871094 422.507812 C 371.003906 422.867188 370.046875 423.519531 369.0625 423.394531 C 367.746094 423.226562 366.207031 422.066406 365.035156 421.457031 C 367.386719 418.316406 370.078125 415.210938 373.609375 413.386719 C 374.089844 413.136719 379.816406 410.40625 379.867188 410.625 C 379.824219 410.472656 377.828125 410.984375 377.605469 411.042969 C 379.09375 410.058594 381.082031 408.878906 381.800781 407.15625 C 381.523438 407.816406 380.457031 408.429688 379.921875 408.882812 C 378.992188 409.664062 378.019531 410.378906 376.964844 410.984375 C 374.464844 412.417969 371.722656 413.378906 368.933594 414.066406 C 366.257812 414.722656 363.527344 415.132812 360.792969 415.429688 C 360.117188 415.5 359.085938 415.863281 358.578125 415.234375 C 357.71875 414.15625 356.917969 412.839844 356.339844 411.585938 C 354.984375 408.652344 356.636719 407.851562 358.851562 406.167969 C 361.273438 404.332031 363.5625 402.363281 365.71875 400.21875 C 367.667969 398.285156 369.527344 396.257812 371.238281 394.109375 C 372.855469 392.074219 374.824219 389.941406 375.90625 387.5625 C 375.046875 389.449219 373.355469 391.105469 372.078125 392.71875 C 370.542969 394.652344 368.917969 396.511719 367.191406 398.277344 C 363.878906 401.667969 360.242188 404.742188 356.316406 407.402344 C 356.53125 407 356.875 406.691406 357.15625 406.339844 C 354.664062 408.816406 351.519531 410.503906 348.402344 412.0625 C 346.507812 413.003906 344.597656 413.902344 342.644531 414.71875 C 340.976562 415.417969 339.210938 416.496094 337.371094 416.589844 C 337.675781 415.648438 337.914062 414.683594 338.054688 413.703125 C 337.863281 414.378906 337.753906 416.390625 336.925781 416.621094 C 335.816406 416.921875 334.410156 416.769531 333.265625 416.863281 C 329.890625 417.136719 326.523438 417.566406 323.21875 418.316406 C 326.160156 416.871094 328.449219 414.464844 330.757812 412.199219 C 333.203125 409.792969 335.910156 407.664062 338.882812 405.945312 C 344.285156 402.816406 350.546875 400.777344 354.964844 396.179688 C 352.703125 398.53125 349.453125 400.101562 346.605469 401.625 C 343.246094 403.417969 339.6875 404.886719 336.492188 406.972656 C 330.921875 410.605469 326.871094 416.808594 320.296875 418.757812 C 325.339844 412.710938 332.433594 409.011719 339.140625 405.144531 C 345.929688 401.226562 352.691406 396.9375 357.945312 391.03125 C 360.648438 387.988281 362.882812 384.546875 364.777344 380.949219 C 366.585938 377.515625 369.710938 374.730469 372.59375 372.160156 C 375.539062 369.53125 378.972656 369.058594 382.683594 370.269531 C 383.886719 370.664062 385.035156 371.105469 386.171875 371.507812 C 385.777344 371.351562 385.382812 371.1875 384.984375 371.015625 C 381.976562 369.699219 378.714844 368.660156 375.472656 369.785156 C 378.476562 367.535156 381.875 365.851562 385.5 364.875 C 389.457031 363.8125 393.667969 363.953125 397.726562 363.761719 C 403.785156 363.472656 411.4375 363.503906 416.554688 360.144531 C 414.117188 361.707031 411.105469 362.261719 408.28125 362.660156 C 404.308594 363.21875 400.289062 363.316406 396.28125 363.457031 " fill-opacity="1" fill-rule="nonzero"/></g><g clip-path="url(#ac79e405fe)"><g clip-path="url(#4903186634)"><g clip-path="url(#d77c6f3dfe)"><path fill="#2bf6ff" d="M 324.746094 314.253906 C 333.195312 315.1875 342.796875 308.980469 342.21875 299.59375 C 341.667969 290.425781 332.820312 285.246094 324.835938 286.476562 C 328.761719 280.460938 327.832031 271.085938 320.410156 267.9375 C 312.308594 264.539062 301.070312 271.960938 300.597656 280.195312 C 298.488281 277.738281 295.554688 275.820312 292.871094 275.113281 C 286.96875 273.539062 281.058594 276.757812 277.78125 281.578125 C 274.515625 286.367188 274.632812 292.328125 277.953125 297.015625 C 279.46875 299.183594 282.144531 301.53125 285.09375 302.933594 C 278.046875 307.90625 273.328125 315.980469 279.460938 324.257812 C 284.585938 331.183594 295.421875 330.859375 300.441406 324.824219 C 302.304688 330.519531 308.804688 334.941406 315.515625 333.167969 C 323.117188 331.164062 327.375 321.488281 324.746094 314.253906 Z M 305.5625 326.425781 C 302.699219 323.0625 302.441406 318.90625 303.699219 314.816406 C 303.816406 314.402344 303.304688 313.898438 302.917969 314.28125 C 301.582031 315.71875 300.714844 317.222656 300.273438 318.808594 C 297.171875 325.621094 286.136719 326.675781 282.316406 320.019531 C 278.792969 313.890625 283.765625 307.976562 288.867188 304.109375 C 290.304688 304.289062 291.734375 304.113281 293.035156 303.4375 C 294.113281 302.886719 294.5 301.171875 293.3125 300.492188 C 293.140625 300.390625 292.996094 300.304688 292.820312 300.207031 C 292.617188 299.710938 292.109375 299.382812 291.449219 299.558594 C 288.46875 298.324219 285.355469 297.84375 282.941406 295.171875 C 280.066406 291.945312 279.609375 287.75 282.171875 284.207031 C 284.746094 280.636719 288.492188 278.929688 292.796875 279.882812 C 297.074219 280.824219 299.3125 284.171875 302.613281 286.714844 C 302.695312 286.78125 302.789062 286.8125 302.863281 286.804688 C 302.929688 286.902344 303.03125 287.007812 303.101562 287.105469 C 303.796875 287.882812 305.035156 287.078125 304.648438 286.132812 C 301.265625 278.09375 311.109375 267.421875 319.378906 271.792969 C 322.347656 273.339844 323.527344 276.890625 323.230469 280.074219 C 322.882812 283.976562 320.402344 286.632812 317.308594 288.753906 C 316.703125 289.164062 316.671875 289.921875 316.945312 290.511719 C 316.773438 290.695312 316.601562 290.875 316.429688 291.058594 C 316.167969 291.382812 316.5625 291.738281 316.890625 291.613281 C 317.171875 291.507812 317.488281 291.414062 317.804688 291.316406 C 318.019531 291.398438 318.226562 291.402344 318.5 291.328125 C 319.085938 291.160156 319.65625 290.949219 320.171875 290.683594 C 327.554688 289.089844 337.324219 290.230469 337.800781 299.230469 C 338.035156 303.730469 335.25 307.398438 331.046875 308.828125 C 326.601562 310.347656 322.351562 308.960938 318.566406 306.484375 C 316.671875 305.261719 314.425781 307.550781 315.859375 309.375 C 316.546875 310.257812 317.347656 311.042969 318.199219 311.671875 C 318.277344 311.945312 318.394531 312.199219 318.570312 312.472656 C 321.984375 317.578125 322.160156 325.769531 315.652344 328.703125 C 312.101562 330.265625 308.03125 329.332031 305.5625 326.425781 Z M 305.5625 326.425781 " fill-opacity="1" fill-rule="nonzero"/></g></g></g><g clip-path="url(#b4a92c14ad)"><g clip-path="url(#230abf3882)"><g clip-path="url(#fd92a50935)"><path fill="#2bf6ff" d="M 306.574219 295.28125 C 306.03125 295.324219 305.609375 295.625 305.273438 296.0625 C 304.035156 296.097656 302.730469 296.597656 301.953125 297.1875 C 299.664062 298.9375 300.207031 301.835938 302.152344 303.601562 C 304.011719 305.300781 306.734375 306.089844 309.125 305.113281 C 310.9375 304.378906 312.308594 302.640625 312.371094 300.667969 C 312.4375 297.714844 309.421875 295.066406 306.574219 295.28125 Z M 304.921875 300.066406 C 304.921875 300.066406 304.933594 300.035156 304.945312 300.003906 C 304.933594 300.035156 304.933594 300.035156 304.921875 300.066406 Z M 306.617188 300.6875 C 306.574219 300.707031 306.546875 300.699219 306.617188 300.6875 Z M 307.546875 300.542969 C 307.546875 300.542969 307.558594 300.511719 307.546875 300.542969 C 307.484375 300.621094 307.324219 300.773438 307.546875 300.542969 Z M 307.601562 300.492188 C 307.546875 300.542969 307.453125 300.609375 307.410156 300.628906 C 307.410156 300.628906 307.378906 300.617188 307.367188 300.648438 C 307.367188 300.648438 307.355469 300.679688 307.324219 300.667969 C 307.230469 300.738281 307.054688 300.746094 307.054688 300.746094 C 307.011719 300.765625 306.9375 300.773438 306.90625 300.761719 C 306.730469 300.765625 307.34375 300.710938 306.804688 300.757812 C 306.730469 300.765625 306.699219 300.753906 306.667969 300.742188 C 306.515625 300.6875 306.328125 300.617188 306.175781 300.5625 C 306.113281 300.539062 306.082031 300.527344 306.050781 300.515625 C 306.019531 300.503906 306.019531 300.503906 305.988281 300.492188 C 305.722656 300.359375 305.46875 300.195312 305.226562 300.003906 C 305.195312 299.992188 305.113281 299.925781 305.0625 299.871094 C 305.074219 299.839844 305.105469 299.851562 305.117188 299.820312 C 305.320312 299.652344 305.5625 299.460938 305.734375 299.382812 C 305.773438 299.363281 305.773438 299.363281 305.816406 299.34375 C 306.011719 299.484375 306.203125 299.625 306.4375 299.746094 C 306.5 299.769531 306.890625 299.949219 306.921875 299.960938 C 307.0625 300.046875 307.175781 300.125 307.320312 300.210938 C 307.351562 300.222656 307.398438 300.277344 307.429688 300.289062 C 307.480469 300.339844 307.5625 300.40625 307.601562 300.492188 C 307.582031 300.449219 307.582031 300.449219 307.601562 300.492188 C 307.613281 300.460938 307.613281 300.460938 307.601562 300.492188 Z M 307.601562 300.492188 " fill-opacity="1" fill-rule="nonzero"/></g></g></g><g clip-path="url(#1ec6cac4ed)"><g clip-path="url(#f22681ab95)"><g clip-path="url(#43fc6e9ef9)"><path fill="#2bf6ff" d="M 307.066406 300.714844 C 307.136719 300.707031 307.253906 300.675781 307.335938 300.636719 C 307.148438 300.675781 307.066406 300.714844 307.066406 300.714844 Z M 307.066406 300.714844 " fill-opacity="1" fill-rule="nonzero"/><path fill="#2bf6ff" d="M 307.378906 300.617188 C 307.585938 300.34375 307.148438 300.675781 307.378906 300.617188 Z M 307.378906 300.617188 " fill-opacity="1" fill-rule="nonzero"/></g></g></g><g clip-path="url(#7329c92ede)"><g clip-path="url(#60765463cc)"><g clip-path="url(#00085e0f09)"><path fill="#2bf6ff" d="M 398.628906 334.863281 C 398.152344 334.546875 397.703125 334.523438 397.324219 334.699219 C 396.640625 334.273438 395.828125 334.011719 395.046875 334.421875 C 394.261719 334.835938 393.746094 335.765625 393.453125 336.570312 C 392.804688 338.328125 393.03125 340.476562 394.800781 341.476562 C 396.597656 342.488281 398.820312 341.871094 399.832031 340.070312 C 400.855469 338.238281 400.34375 336.019531 398.628906 334.863281 Z M 396.257812 339.316406 C 394.878906 338.878906 395.589844 337.039062 396.160156 336.058594 C 396.277344 336.03125 396.390625 336.003906 396.507812 335.976562 C 396.5 336.464844 396.746094 336.9375 397.332031 337.257812 C 398.382812 337.820312 397.390625 339.664062 396.257812 339.316406 Z M 396.257812 339.316406 " fill-opacity="1" fill-rule="nonzero"/></g></g></g><g clip-path="url(#5b7cc8e9b4)"><g clip-path="url(#6d205e1e59)"><g clip-path="url(#06bc28df64)"><path fill="#2bf6ff" d="M 429.992188 340.160156 C 429.566406 335.3125 424.898438 331.808594 420.132812 331.246094 C 421.1875 329.710938 421.910156 327.941406 422.191406 326.226562 C 423.078125 321.332031 421.1875 316.085938 417.410156 312.839844 C 416.234375 311.847656 414.886719 311.035156 413.425781 310.429688 C 408.914062 308.421875 402.769531 308.367188 398.703125 311.042969 C 397.035156 312.144531 395.574219 314.023438 394.542969 316.167969 C 393.996094 316.980469 393.515625 317.820312 393.167969 318.671875 C 392.179688 317.539062 390.78125 316.675781 389.425781 316.175781 C 384.859375 314.496094 380.03125 315.246094 375.84375 317.59375 C 371.707031 319.890625 367.941406 323.652344 367.394531 328.566406 C 366.921875 332.804688 369.007812 336.652344 372.359375 338.972656 C 367.542969 342.070312 366.175781 350.847656 368.367188 355.644531 C 370.289062 359.851562 375.160156 362.414062 379.691406 362.1875 C 382.855469 362.058594 386.972656 360.769531 390.070312 358.71875 C 390.300781 360.765625 391.152344 362.832031 392.019531 364.09375 C 394.613281 367.710938 399.378906 369.988281 403.773438 370.132812 C 409.027344 370.3125 413.214844 368.070312 415.472656 363.261719 C 416.609375 360.839844 417.28125 358.25 416.863281 355.578125 C 416.710938 354.75 416.5 353.796875 416.21875 352.851562 C 418.019531 353.09375 419.929688 352.851562 421.40625 352.167969 C 425.929688 350.15625 430.453125 345.476562 429.992188 340.160156 Z M 418.273438 347.933594 C 415.800781 348.179688 414.367188 345.691406 411.75 346.902344 C 410.980469 347.285156 410.378906 348.253906 410.539062 349.152344 C 410.503906 349.246094 410.480469 349.308594 410.480469 349.410156 C 409.683594 353.007812 412.933594 355.882812 411.671875 359.691406 C 410.484375 363.210938 407.589844 364.703125 403.980469 364.324219 C 401.316406 364.046875 398.453125 363.167969 396.441406 361.308594 C 395.5 360.4375 394.75 359.425781 394.433594 358.1875 C 394.050781 356.75 394.554688 355.289062 393.835938 354.011719 C 393.738281 353.800781 393.554688 353.628906 393.351562 353.515625 C 392.972656 352.921875 392.296875 352.570312 391.53125 352.742188 C 388.148438 353.566406 385.480469 356.15625 382.011719 357.019531 C 378.730469 357.84375 374.402344 357.234375 372.511719 354.085938 C 369.433594 349.03125 372.527344 342.324219 377.695312 340.371094 C 378.957031 339.890625 378.472656 338.066406 377.269531 337.90625 C 377.167969 337.902344 377.0625 337.898438 376.957031 337.894531 C 376.890625 337.695312 376.78125 337.515625 376.632812 337.355469 C 374.476562 335.023438 371.675781 332.449219 372.082031 328.957031 C 372.4375 325.902344 374.925781 323.417969 377.398438 321.839844 C 380.101562 320.105469 383.019531 319.214844 386.234375 319.519531 C 389.6875 319.84375 391.734375 321.226562 392.707031 324.492188 C 392.867188 325.007812 393.574219 325.371094 393.972656 324.957031 C 394.136719 325.085938 394.414062 325.085938 394.558594 324.890625 C 396.351562 322.015625 396.363281 318.550781 398.359375 315.785156 C 399.457031 314.609375 400.695312 313.628906 402.160156 312.976562 C 406.242188 311.117188 411.675781 312.238281 414.988281 315.136719 C 415.757812 315.804688 416.441406 316.617188 416.996094 317.488281 C 417.949219 319.273438 418.492188 321.328125 418.636719 323.414062 C 418.621094 323.828125 418.609375 324.242188 418.535156 324.636719 C 418.332031 326.242188 417.722656 327.804688 416.675781 329.03125 C 415.28125 330.726562 413.449219 331.136719 411.679688 332.238281 C 410.226562 333.140625 410.1875 335.820312 412.328125 335.90625 C 413.1875 335.945312 414.003906 335.824219 414.757812 335.574219 C 415.082031 335.554688 415.386719 335.492188 415.671875 335.386719 C 419.515625 335.117188 424.640625 336.230469 425.125 340.4375 C 425.46875 343.503906 421.296875 347.609375 418.273438 347.933594 Z M 418.273438 347.933594 " fill-opacity="1" fill-rule="nonzero"/></g></g></g><g clip-path="url(#025fe0ce49)"><g clip-path="url(#59ace1abab)"><g clip-path="url(#86d78d937c)"><path fill="#2bf6ff" d="M 335.332031 379.011719 C 335.210938 378.863281 335.109375 378.757812 334.9375 378.65625 C 333.769531 375.636719 330.523438 374.757812 327.546875 375.800781 C 323.730469 377.128906 322.644531 381.421875 324.242188 384.882812 C 325.804688 388.257812 329.875 389.753906 333.289062 388.277344 C 334.871094 387.597656 336.148438 386.316406 336.59375 384.625 C 337.179688 382.5625 336.601562 380.703125 335.332031 379.011719 Z M 331.964844 382.644531 C 331.902344 382.722656 331.71875 382.9375 331.71875 382.9375 C 331.652344 383.019531 331.597656 383.070312 331.515625 383.109375 C 331.515625 383.109375 331.34375 383.1875 331.25 383.257812 C 331.132812 383.285156 330.84375 383.316406 330.726562 383.34375 C 330.59375 383.328125 330.382812 383.324219 330.355469 383.3125 C 330.324219 383.300781 330.292969 383.289062 330.28125 383.320312 C 330.28125 383.320312 330.25 383.308594 330.25 383.308594 C 330.097656 383.25 329.941406 383.195312 329.816406 383.148438 C 329.757812 383.128906 329.644531 383.050781 329.5625 382.984375 C 329.09375 382.640625 329.121094 382.753906 328.875 382.382812 C 328.605469 381.96875 328.265625 381.179688 328.441406 380.507812 C 328.429688 380.539062 328.574219 380.242188 328.789062 380.039062 C 328.800781 380.007812 329.183594 379.730469 329.363281 379.621094 C 330.230469 379.167969 331.523438 379.082031 332.628906 379.316406 C 332.53125 379.488281 332.480469 379.714844 332.464844 379.953125 C 332.5 380.527344 332.441406 381.066406 332.328125 381.65625 C 332.324219 381.761719 332.25 382.152344 332.226562 382.214844 C 332.226562 382.214844 332.171875 382.367188 332.148438 382.429688 C 332.0625 382.46875 332.03125 382.5625 331.964844 382.644531 Z M 331.964844 382.644531 " fill-opacity="1" fill-rule="nonzero"/></g></g></g><g clip-path="url(#8301b09a4e)"><g clip-path="url(#5737b44bc6)"><g clip-path="url(#c717d92e8b)"><path fill="#2bf6ff" d="M 365.09375 384.558594 C 366.75 377.675781 364.335938 368.519531 357.03125 365.90625 C 354.519531 365.019531 351.773438 365.058594 349.210938 365.832031 C 352.007812 357.753906 346.421875 346.84375 336.824219 347.902344 C 331.824219 348.445312 326.566406 351.3125 323.351562 355.207031 C 322.605469 356.089844 321.921875 357.378906 321.496094 358.726562 C 317.078125 354.265625 309.558594 354.234375 303.808594 357.96875 C 296.996094 362.398438 291.875 371.757812 295.625 379.753906 C 296.890625 382.496094 300.417969 386.246094 304.089844 387.875 C 297.703125 392.007812 295.785156 401.320312 299.617188 408.332031 C 301.734375 412.191406 305.480469 414.863281 309.976562 414.835938 C 314.144531 414.828125 319.410156 412.316406 322.542969 408.84375 C 324.28125 416.976562 337.90625 422.789062 345.21875 419 C 350.238281 416.398438 353.386719 410.691406 353.90625 405.171875 C 354.179688 402.4375 353.789062 399.492188 352.480469 397.050781 C 352.222656 396.605469 351.949219 396.117188 351.609375 395.609375 C 357.871094 395.25 363.496094 391.1875 365.09375 384.558594 Z M 358.410156 388.160156 C 354.96875 391.800781 350.648438 390.703125 346.347656 389.820312 C 343.96875 389.332031 342.96875 392.535156 344.335938 394.054688 C 344.304688 394.429688 344.320312 394.855469 344.453125 395.253906 C 345.035156 397.007812 347.082031 397.726562 347.957031 399.449219 C 348.789062 401.085938 348.910156 402.953125 348.699219 404.765625 C 348.289062 408.359375 346.199219 412.320312 342.941406 414.136719 C 339.558594 416.007812 334.984375 414.539062 331.910156 412.707031 C 328.582031 410.710938 325.871094 407.125 325.703125 403.105469 C 325.660156 402.179688 324.402344 401.402344 323.792969 402.402344 C 323.550781 402.769531 323.363281 403.191406 323.164062 403.539062 C 322.8125 403.445312 322.449219 403.484375 322.097656 403.671875 C 317.949219 405.71875 315.460938 409.917969 310.40625 409.949219 C 307.492188 409.964844 305.082031 408.132812 303.753906 405.648438 C 300.507812 399.621094 303.410156 393.160156 307.851562 388.699219 C 308.601562 388.660156 309.292969 388.492188 309.96875 388.179688 C 310.738281 387.796875 311.324219 386.683594 310.816406 385.867188 C 309.199219 383.308594 305.765625 382.746094 303.382812 381.03125 C 301.789062 379.851562 300.441406 378.269531 299.855469 376.339844 C 298.78125 372.789062 300.214844 368.976562 302.289062 366.097656 C 304.496094 363.054688 307.808594 360.417969 311.601562 359.816406 C 316.285156 359.085938 319.238281 362.101562 322.199219 365.289062 C 322.855469 365.984375 324.148438 365.796875 324.527344 365.058594 C 325.066406 365.011719 325.601562 364.507812 325.589844 363.980469 C 325.484375 361.210938 325.304688 359.601562 327.429688 357.441406 C 329.847656 354.96875 333.367188 353.109375 336.746094 352.496094 C 345.582031 350.839844 347.570312 362.394531 344.128906 368.519531 C 343.777344 368.808594 343.421875 369.097656 343.101562 369.402344 C 341.976562 370.460938 343.078125 372.230469 344.511719 371.671875 C 344.59375 371.632812 344.679688 371.59375 344.761719 371.554688 C 344.953125 371.515625 345.121094 371.4375 345.300781 371.332031 C 349.007812 369.820312 353.164062 367.847656 356.9375 370.25 C 359.773438 372.0625 361.058594 375.617188 361.328125 378.796875 C 361.527344 382.058594 360.742188 385.726562 358.410156 388.160156 Z M 358.410156 388.160156 " fill-opacity="1" fill-rule="nonzero"/></g></g></g><g clip-path="url(#0df2ef0ee4)"><g clip-path="url(#4bfddab50f)"><g clip-path="url(#0f846634c3)"><path fill="#2bf6ff" d="M 156.199219 404.421875 C 162.929688 399.230469 165.535156 388.101562 158.605469 381.742188 C 151.847656 375.523438 141.882812 377.933594 136.988281 384.359375 C 135.644531 377.304688 128.464844 371.195312 120.933594 374.078125 C 112.742188 377.253906 109.804688 390.402344 115.175781 396.65625 C 111.953125 396.347656 108.507812 397.003906 106.085938 398.359375 C 100.746094 401.320312 98.722656 407.738281 99.707031 413.484375 C 100.679688 419.199219 104.902344 423.410156 110.546875 424.480469 C 113.140625 424.992188 116.695312 424.824219 119.792969 423.785156 C 118.171875 432.257812 120.375 441.34375 130.535156 443.050781 C 139.03125 444.480469 146.609375 436.726562 146.035156 428.898438 C 151.328125 431.707031 159.074219 430.378906 162.679688 424.445312 C 166.761719 417.730469 163.113281 407.808594 156.199219 404.421875 Z M 150.832031 426.5 C 146.4375 426.0625 143.367188 423.25 141.4375 419.429688 C 141.234375 419.054688 140.511719 419.046875 140.5 419.589844 C 140.539062 421.550781 140.957031 423.234375 141.738281 424.683594 C 144.230469 431.738281 137.019531 440.160156 129.648438 438.015625 C 122.855469 436.050781 122.335938 428.339844 123.324219 422.015625 C 124.484375 421.144531 125.394531 420.027344 125.859375 418.636719 C 126.253906 417.496094 125.339844 415.992188 124.015625 416.324219 C 123.820312 416.375 123.65625 416.410156 123.464844 416.460938 C 122.972656 416.246094 122.378906 416.363281 122.027344 416.949219 C 119.027344 418.125 116.449219 419.941406 112.855469 419.691406 C 108.542969 419.363281 105.304688 416.660156 104.695312 412.332031 C 104.070312 407.972656 105.582031 404.148438 109.34375 401.84375 C 113.078125 399.554688 117.007812 400.410156 121.152344 399.949219 C 121.257812 399.941406 121.347656 399.902344 121.394531 399.84375 C 121.511719 399.863281 121.65625 399.871094 121.773438 399.890625 C 122.816406 399.972656 123.152344 398.53125 122.214844 398.117188 C 114.199219 394.679688 113.882812 380.164062 122.867188 377.574219 C 126.078125 376.628906 129.394531 378.367188 131.390625 380.863281 C 133.847656 383.910156 133.902344 387.550781 133.148438 391.222656 C 132.996094 391.9375 133.5 392.503906 134.105469 392.742188 C 134.109375 392.992188 134.109375 393.242188 134.113281 393.492188 C 134.152344 393.90625 134.683594 393.886719 134.832031 393.570312 C 134.960938 393.296875 135.121094 393.011719 135.285156 392.726562 C 135.496094 392.632812 135.648438 392.492188 135.792969 392.25 C 136.097656 391.71875 136.359375 391.171875 136.550781 390.625 C 140.757812 384.355469 148.585938 378.394531 155.171875 384.546875 C 158.464844 387.621094 159.007812 392.195312 156.972656 396.144531 C 154.824219 400.320312 150.800781 402.273438 146.355469 403.113281 C 144.144531 403.550781 144.117188 406.757812 146.414062 407.078125 C 147.523438 407.234375 148.640625 407.246094 149.695312 407.105469 C 149.9375 407.25 150.195312 407.351562 150.515625 407.425781 C 156.515625 408.734375 162.328125 414.507812 159.675781 421.136719 C 158.207031 424.726562 154.625 426.878906 150.832031 426.5 Z M 150.832031 426.5 " fill-opacity="1" fill-rule="nonzero"/></g></g></g><g clip-path="url(#789ebf1929)"><g clip-path="url(#7785970cad)"><g clip-path="url(#bcf931cd80)"><path fill="#2bf6ff" d="M 129.949219 403.371094 C 129.589844 403.777344 129.492188 404.289062 129.554688 404.835938 C 128.683594 405.722656 128.09375 406.988281 127.941406 407.953125 C 127.507812 410.800781 129.914062 412.507812 132.535156 412.429688 C 135.054688 412.363281 137.5625 411.042969 138.609375 408.679688 C 139.402344 406.894531 139.1875 404.691406 137.859375 403.226562 C 135.859375 401.054688 131.847656 401.238281 129.949219 403.371094 Z M 132.078125 407.960938 C 132.078125 407.960938 132.066406 407.933594 132.050781 407.902344 C 132.066406 407.933594 132.066406 407.933594 132.078125 407.960938 Z M 133.734375 407.234375 C 133.714844 407.277344 133.6875 407.292969 133.734375 407.234375 Z M 134.300781 406.480469 C 134.300781 406.480469 134.285156 406.453125 134.300781 406.480469 C 134.308594 406.585938 134.296875 406.804688 134.300781 406.480469 Z M 134.304688 406.410156 C 134.300781 406.480469 134.28125 406.597656 134.261719 406.640625 C 134.261719 406.640625 134.234375 406.65625 134.246094 406.6875 C 134.246094 406.6875 134.257812 406.714844 134.230469 406.730469 C 134.207031 406.847656 134.085938 406.972656 134.085938 406.972656 C 134.066406 407.015625 134.019531 407.070312 133.992188 407.085938 C 133.867188 407.210938 134.273438 406.746094 133.914062 407.15625 C 133.867188 407.210938 133.835938 407.226562 133.804688 407.238281 C 133.65625 407.304688 133.476562 407.382812 133.324219 407.449219 C 133.265625 407.476562 133.234375 407.488281 133.203125 407.503906 C 133.175781 407.515625 133.175781 407.515625 133.144531 407.53125 C 132.859375 407.617188 132.5625 407.675781 132.253906 407.707031 C 132.222656 407.71875 132.121094 407.730469 132.046875 407.726562 C 132.03125 407.695312 132.0625 407.683594 132.050781 407.652344 C 132.078125 407.390625 132.121094 407.082031 132.1875 406.910156 C 132.207031 406.867188 132.207031 406.867188 132.222656 406.820312 C 132.460938 406.789062 132.695312 406.757812 132.949219 406.679688 C 133.011719 406.65625 133.414062 406.511719 133.445312 406.5 C 133.609375 406.464844 133.742188 406.441406 133.90625 406.402344 C 133.9375 406.390625 134.011719 406.394531 134.039062 406.382812 C 134.113281 406.386719 134.21875 406.375 134.304688 406.410156 C 134.261719 406.390625 134.261719 406.390625 134.304688 406.410156 C 134.289062 406.378906 134.289062 406.378906 134.304688 406.410156 Z M 134.304688 406.410156 " fill-opacity="1" fill-rule="nonzero"/></g></g></g><g clip-path="url(#daa28d29f5)"><g clip-path="url(#7b0d0ec0ca)"><g clip-path="url(#19bfe544bb)"><path fill="#2bf6ff" d="M 134.070312 406.941406 C 134.117188 406.886719 134.183594 406.785156 134.214844 406.699219 C 134.105469 406.855469 134.070312 406.941406 134.070312 406.941406 Z M 134.070312 406.941406 " fill-opacity="1" fill-rule="nonzero"/><path fill="#2bf6ff" d="M 134.234375 406.65625 C 134.191406 406.316406 134.105469 406.855469 134.234375 406.65625 Z M 134.234375 406.65625 " fill-opacity="1" fill-rule="nonzero"/></g></g></g><g clip-path="url(#92f97621a5)"><g clip-path="url(#8d2e4d0f95)"><g clip-path="url(#e686ae399d)"><path fill="#2bf6ff" d="M 223.703125 367.992188 C 223.136719 368.097656 222.800781 368.390625 222.648438 368.78125 C 221.859375 368.949219 221.089844 369.320312 220.8125 370.160156 C 220.535156 371 220.808594 372.03125 221.15625 372.8125 C 221.910156 374.527344 223.5625 375.917969 225.53125 375.410156 C 227.527344 374.890625 228.699219 372.902344 228.179688 370.90625 C 227.648438 368.878906 225.734375 367.636719 223.703125 367.992188 Z M 225.082031 372.84375 C 223.785156 373.488281 223.019531 371.667969 222.75 370.566406 C 222.816406 370.464844 222.878906 370.367188 222.941406 370.265625 C 223.277344 370.621094 223.785156 370.792969 224.425781 370.617188 C 225.574219 370.292969 226.140625 372.308594 225.082031 372.84375 Z M 225.082031 372.84375 " fill-opacity="1" fill-rule="nonzero"/></g></g></g><g clip-path="url(#bd7acc24c6)"><g clip-path="url(#59f8f5b4b2)"><g clip-path="url(#6c346b3396)"><path fill="#2bf6ff" d="M 249.957031 350.042969 C 246.285156 346.847656 240.496094 347.5625 236.675781 350.464844 C 236.367188 348.625 235.660156 346.855469 234.667969 345.421875 C 231.914062 341.285156 226.914062 338.816406 221.9375 339.101562 C 220.402344 339.203125 218.871094 339.554688 217.398438 340.132812 C 212.753906 341.816406 208.292969 346.042969 207.222656 350.789062 C 206.789062 352.738281 207.039062 355.105469 207.78125 357.367188 C 207.957031 358.332031 208.191406 359.269531 208.53125 360.125 C 207.035156 359.992188 205.429688 360.339844 204.105469 360.921875 C 199.652344 362.882812 196.695312 366.769531 195.308594 371.367188 C 193.921875 375.894531 193.824219 381.214844 196.839844 385.132812 C 199.441406 388.511719 203.613281 389.835938 207.636719 389.179688 C 206.316406 394.75 211.421875 402.023438 216.332031 403.957031 C 220.632812 405.652344 225.917969 404.117188 229.023438 400.808594 C 231.210938 398.519531 233.28125 394.734375 234.09375 391.109375 C 235.675781 392.421875 237.722656 393.320312 239.222656 393.628906 C 243.597656 394.429688 248.613281 392.761719 251.875 389.816406 C 255.789062 386.300781 257.246094 381.78125 255.535156 376.75 C 254.671875 374.222656 253.359375 371.890625 251.203125 370.253906 C 250.519531 369.765625 249.707031 369.222656 248.847656 368.738281 C 250.3125 367.664062 251.519531 366.164062 252.109375 364.648438 C 253.96875 360.058594 253.980469 353.550781 249.957031 350.042969 Z M 246.914062 363.773438 C 245.304688 365.667969 242.546875 364.871094 241.503906 367.554688 C 241.210938 368.367188 241.453125 369.480469 242.191406 370.019531 C 242.230469 370.109375 242.257812 370.167969 242.328125 370.246094 C 244.25 373.386719 248.585938 373.203125 250.320312 376.820312 C 251.90625 380.179688 250.859375 383.261719 247.996094 385.492188 C 245.886719 387.140625 243.214844 388.496094 240.472656 388.550781 C 239.191406 388.578125 237.949219 388.371094 236.863281 387.699219 C 235.59375 386.929688 234.941406 385.527344 233.53125 385.105469 C 233.316406 385.023438 233.066406 385.023438 232.84375 385.085938 C 232.160156 384.921875 231.425781 385.136719 230.996094 385.792969 C 229.132812 388.730469 229.007812 392.449219 227.109375 395.476562 C 225.320312 398.347656 221.777344 400.910156 218.234375 399.957031 C 212.507812 398.453125 210.082031 391.476562 212.449219 386.484375 C 213.023438 385.261719 211.40625 384.285156 210.429688 385.003906 C 210.355469 385.074219 210.277344 385.144531 210.199219 385.214844 C 210.011719 385.117188 209.808594 385.0625 209.589844 385.050781 C 206.417969 384.867188 202.617188 384.960938 200.488281 382.160156 C 198.621094 379.714844 198.691406 376.199219 199.375 373.347656 C 200.117188 370.222656 201.601562 367.554688 204.128906 365.546875 C 206.839844 363.382812 209.273438 362.957031 212.238281 364.632812 C 212.710938 364.894531 213.472656 364.664062 213.472656 364.089844 C 213.679688 364.070312 213.878906 363.875 213.847656 363.636719 C 213.140625 360.320312 210.75 357.820312 210.265625 354.441406 C 210.242188 352.835938 210.453125 351.269531 211.054688 349.785156 C 212.699219 345.613281 217.394531 342.648438 221.789062 342.4375 C 222.808594 342.382812 223.863281 342.492188 224.867188 342.734375 C 226.792969 343.359375 228.609375 344.464844 230.160156 345.863281 C 230.4375 346.171875 230.71875 346.480469 230.9375 346.816406 C 231.902344 348.113281 232.546875 349.660156 232.644531 351.269531 C 232.820312 353.457031 231.785156 355.023438 231.273438 357.046875 C 230.855469 358.703125 232.6875 360.664062 234.285156 359.238281 C 234.933594 358.667969 235.4375 358.015625 235.808594 357.3125 C 236.027344 357.074219 236.199219 356.816406 236.332031 356.542969 C 238.914062 353.683594 243.378906 350.929688 246.644531 353.621094 C 249.023438 355.589844 248.867188 361.441406 246.914062 363.773438 Z M 246.914062 363.773438 " fill-opacity="1" fill-rule="nonzero"/></g></g></g><g clip-path="url(#c039180d35)"><g clip-path="url(#ba7392a28f)"><g clip-path="url(#e9d2d4e544)"><path fill="#2bf6ff" d="M 208.757812 443.707031 C 208.570312 443.683594 208.421875 443.675781 208.226562 443.722656 C 205.292969 442.359375 202.34375 443.980469 200.925781 446.796875 C 199.097656 450.398438 201.292969 454.246094 204.847656 455.628906 C 208.3125 456.976562 212.285156 455.226562 213.71875 451.792969 C 214.386719 450.207031 214.414062 448.398438 213.5625 446.871094 C 212.550781 444.980469 210.847656 444.042969 208.757812 443.707031 Z M 208.855469 448.65625 C 208.863281 448.757812 208.878906 449.039062 208.878906 449.039062 C 208.890625 449.144531 208.886719 449.21875 208.851562 449.304688 C 208.851562 449.304688 208.785156 449.476562 208.765625 449.59375 C 208.699219 449.695312 208.511719 449.917969 208.449219 450.019531 C 208.34375 450.101562 208.1875 450.242188 208.15625 450.253906 C 208.128906 450.269531 208.097656 450.28125 208.109375 450.3125 C 208.109375 450.3125 208.082031 450.324219 208.082031 450.324219 C 207.929688 450.390625 207.78125 450.457031 207.660156 450.511719 C 207.597656 450.539062 207.464844 450.558594 207.363281 450.570312 C 206.785156 450.644531 206.882812 450.707031 206.449219 450.613281 C 205.96875 450.5 205.175781 450.167969 204.835938 449.5625 C 204.847656 449.59375 204.746094 449.277344 204.761719 448.984375 C 204.75 448.953125 204.828125 448.488281 204.882812 448.285156 C 205.195312 447.359375 206.066406 446.398438 207.023438 445.800781 C 207.070312 445.992188 207.195312 446.191406 207.347656 446.375 C 207.769531 446.761719 208.101562 447.191406 208.429688 447.691406 C 208.5 447.769531 208.71875 448.105469 208.746094 448.164062 C 208.746094 448.164062 208.8125 448.316406 208.839844 448.375 C 208.804688 448.460938 208.84375 448.550781 208.855469 448.65625 Z M 208.855469 448.65625 " fill-opacity="1" fill-rule="nonzero"/></g></g></g><g clip-path="url(#70193c4329)"><g clip-path="url(#6caeef2377)"><g clip-path="url(#f22e80b96a)"><path fill="#2bf6ff" d="M 234.039062 427.046875 C 230.449219 420.941406 222.363281 416.027344 215.289062 419.210938 C 212.863281 420.3125 210.914062 422.25 209.609375 424.585938 C 206.015625 416.828125 194.421875 412.84375 188.242188 420.269531 C 185.023438 424.128906 183.226562 429.839844 183.613281 434.878906 C 183.6875 436.03125 184.089844 437.433594 184.71875 438.699219 C 178.441406 438.554688 173.007812 443.75 171.457031 450.429688 C 169.625 458.34375 172.433594 468.636719 180.683594 471.792969 C 183.5 472.890625 188.636719 473.140625 192.414062 471.765625 C 190.683594 479.171875 195.761719 487.207031 203.386719 489.597656 C 207.589844 490.910156 212.144531 490.234375 215.359375 487.09375 C 218.355469 484.195312 220.40625 478.730469 220.25 474.058594 C 227.148438 478.710938 240.988281 473.441406 243.625 465.640625 C 245.433594 460.28125 243.738281 453.988281 240.289062 449.652344 C 238.582031 447.492188 236.261719 445.644531 233.625 444.792969 C 233.128906 444.652344 232.59375 444.492188 231.996094 444.359375 C 236.253906 439.757812 237.488281 432.929688 234.039062 427.046875 Z M 231.726562 434.28125 C 231.773438 439.285156 227.898438 441.496094 224.191406 443.84375 C 222.140625 445.140625 223.640625 448.144531 225.679688 448.289062 C 225.917969 448.582031 226.226562 448.875 226.597656 449.070312 C 228.234375 449.929688 230.207031 449.027344 232.03125 449.660156 C 233.765625 450.261719 235.148438 451.519531 236.253906 452.972656 C 238.453125 455.847656 239.699219 460.148438 238.613281 463.714844 C 237.472656 467.414062 233.160156 469.527344 229.675781 470.339844 C 225.894531 471.214844 221.457031 470.511719 218.546875 467.734375 C 217.871094 467.097656 216.425781 467.410156 216.679688 468.554688 C 216.761719 468.988281 216.917969 469.421875 217.015625 469.808594 C 216.699219 469.984375 216.464844 470.265625 216.34375 470.644531 C 214.773438 474.996094 215.894531 479.746094 212.277344 483.277344 C 210.191406 485.3125 207.1875 485.664062 204.507812 484.796875 C 197.984375 482.710938 195.589844 476.042969 195.691406 469.75 C 196.203125 469.199219 196.585938 468.601562 196.855469 467.90625 C 197.148438 467.097656 196.792969 465.886719 195.863281 465.652344 C 192.925781 464.933594 190.0625 466.914062 187.15625 467.328125 C 185.1875 467.585938 183.121094 467.382812 181.359375 466.398438 C 178.121094 464.589844 176.507812 460.847656 176.003906 457.332031 C 175.480469 453.613281 176.039062 449.417969 178.355469 446.351562 C 181.21875 442.574219 185.4375 442.695312 189.78125 442.9375 C 190.734375 442.984375 191.535156 441.949219 191.296875 441.15625 C 191.652344 440.746094 191.691406 440.011719 191.3125 439.640625 C 189.316406 437.71875 188.070312 436.6875 188.101562 433.65625 C 188.125 430.199219 189.367188 426.417969 191.375 423.632812 C 196.589844 416.308594 206.039062 423.246094 207.808594 430.046875 C 207.757812 430.5 207.707031 430.953125 207.683594 431.394531 C 207.609375 432.933594 209.628906 433.445312 210.273438 432.050781 C 210.304688 431.964844 210.339844 431.875 210.375 431.789062 C 210.484375 431.632812 210.550781 431.460938 210.605469 431.257812 C 212.226562 427.597656 213.851562 423.292969 218.238281 422.402344 C 221.535156 421.742188 224.929688 423.40625 227.328125 425.511719 C 229.734375 427.71875 231.714844 430.910156 231.726562 434.28125 Z M 231.726562 434.28125 " fill-opacity="1" fill-rule="nonzero"/></g></g></g></svg>